solid Default
  facet normal -3.826836e-01 9.238795e-01 0.000000e+00
    outer loop
      vertex -5.120000e+01 -2.550000e+00 0.000000e+00
      vertex -4.992721e+01 -2.022792e+00 3.000000e+00
      vertex -4.992721e+01 -2.022792e+00 0.000000e+00
    endloop
  endfacet
  facet normal -3.826836e-01 9.238795e-01 0.000000e+00
    outer loop
      vertex -4.992721e+01 -2.022792e+00 3.000000e+00
      vertex -5.120000e+01 -2.550000e+00 0.000000e+00
      vertex -5.120000e+01 -2.550000e+00 3.000000e+00
    endloop
  endfacet
  facet normal -3.826836e-01 -9.238795e-01 0.000000e+00
    outer loop
      vertex -5.120000e+01 1.050000e+00 3.000000e+00
      vertex -4.992721e+01 5.227919e-01 0.000000e+00
      vertex -4.992721e+01 5.227919e-01 3.000000e+00
    endloop
  endfacet
  facet normal -3.826836e-01 -9.238795e-01 0.000000e+00
    outer loop
      vertex -4.992721e+01 5.227919e-01 0.000000e+00
      vertex -5.120000e+01 1.050000e+00 3.000000e+00
      vertex -5.120000e+01 1.050000e+00 0.000000e+00
    endloop
  endfacet
  facet normal 0.000000e+00 0.000000e+00 -1.000000e+00
    outer loop
      vertex -7.000000e+01 -7.150000e+00 0.000000e+00
      vertex -6.428001e+01 2.349999e+00 0.000000e+00
      vertex -6.428001e+01 -7.150000e+00 0.000000e+00
    endloop
  endfacet
  facet normal 0.000000e+00 0.000000e+00 -1.000000e+00
    outer loop
      vertex -7.000000e+01 7.150000e+00 0.000000e+00
      vertex -6.085001e+01 2.349999e+00 0.000000e+00
      vertex -6.428001e+01 2.349999e+00 0.000000e+00
    endloop
  endfacet
  facet normal 0.000000e+00 0.000000e+00 -1.000000e+00
    outer loop
      vertex -6.085001e+01 2.349999e+00 0.000000e+00
      vertex -7.000000e+01 7.150000e+00 0.000000e+00
      vertex 6.084999e+01 2.349999e+00 0.000000e+00
    endloop
  endfacet
  facet normal 0.000000e+00 0.000000e+00 -1.000000e+00
    outer loop
      vertex 7.000000e+01 7.150000e+00 0.000000e+00
      vertex 6.084999e+01 2.349999e+00 0.000000e+00
      vertex -7.000000e+01 7.150000e+00 0.000000e+00
    endloop
  endfacet
  facet normal 0.000000e+00 0.000000e+00 -1.000000e+00
    outer loop
      vertex -7.000000e+01 7.150000e+00 0.000000e+00
      vertex -6.428001e+01 2.349999e+00 0.000000e+00
      vertex -7.000000e+01 -7.150000e+00 0.000000e+00
    endloop
  endfacet
  facet normal 0.000000e+00 0.000000e+00 -1.000000e+00
    outer loop
      vertex 6.428000e+01 2.349999e+00 0.000000e+00
      vertex 7.000000e+01 -7.150000e+00 0.000000e+00
      vertex 6.428000e+01 -7.150000e+00 0.000000e+00
    endloop
  endfacet
  facet normal 0.000000e+00 0.000000e+00 -1.000000e+00
    outer loop
      vertex 6.428000e+01 2.349999e+00 0.000000e+00
      vertex 7.000000e+01 7.150000e+00 0.000000e+00
      vertex 7.000000e+01 -7.150000e+00 0.000000e+00
    endloop
  endfacet
  facet normal 0.000000e+00 0.000000e+00 -1.000000e+00
    outer loop
      vertex 6.084999e+01 2.349999e+00 0.000000e+00
      vertex 7.000000e+01 7.150000e+00 0.000000e+00
      vertex 6.428000e+01 2.349999e+00 0.000000e+00
    endloop
  endfacet
  facet normal 0.000000e+00 0.000000e+00 -1.000000e+00
    outer loop
      vertex 2.587279e+01 -2.022792e+00 0.000000e+00
      vertex 5.120000e+01 -2.550000e+00 0.000000e+00
      vertex 2.460000e+01 -2.550000e+00 0.000000e+00
    endloop
  endfacet
  facet normal 0.000000e+00 0.000000e+00 -1.000000e+00
    outer loop
      vertex 2.587279e+01 -2.022792e+00 0.000000e+00
      vertex 4.992721e+01 -2.022792e+00 0.000000e+00
      vertex 5.120000e+01 -2.550000e+00 0.000000e+00
    endloop
  endfacet
  facet normal 0.000000e+00 0.000000e+00 -1.000000e+00
    outer loop
      vertex 2.640000e+01 -7.500000e-01 0.000000e+00
      vertex 4.992721e+01 -2.022792e+00 0.000000e+00
      vertex 2.587279e+01 -2.022792e+00 0.000000e+00
    endloop
  endfacet
  facet normal 0.000000e+00 0.000000e+00 -1.000000e+00
    outer loop
      vertex 2.640000e+01 -7.500000e-01 0.000000e+00
      vertex 4.940000e+01 -7.500000e-01 0.000000e+00
      vertex 4.992721e+01 -2.022792e+00 0.000000e+00
    endloop
  endfacet
  facet normal 0.000000e+00 0.000000e+00 -1.000000e+00
    outer loop
      vertex 2.587279e+01 5.227919e-01 0.000000e+00
      vertex 4.940000e+01 -7.500000e-01 0.000000e+00
      vertex 2.640000e+01 -7.500000e-01 0.000000e+00
    endloop
  endfacet
  facet normal 0.000000e+00 0.000000e+00 -1.000000e+00
    outer loop
      vertex 2.587279e+01 5.227919e-01 0.000000e+00
      vertex 4.992721e+01 5.227919e-01 0.000000e+00
      vertex 4.940000e+01 -7.500000e-01 0.000000e+00
    endloop
  endfacet
  facet normal 0.000000e+00 0.000000e+00 -1.000000e+00
    outer loop
      vertex 2.460000e+01 1.050000e+00 0.000000e+00
      vertex 4.992721e+01 5.227919e-01 0.000000e+00
      vertex 2.587279e+01 5.227919e-01 0.000000e+00
    endloop
  endfacet
  facet normal 0.000000e+00 0.000000e+00 -1.000000e+00
    outer loop
      vertex 4.992721e+01 5.227919e-01 0.000000e+00
      vertex 2.460000e+01 1.050000e+00 0.000000e+00
      vertex 5.120000e+01 1.050000e+00 0.000000e+00
    endloop
  endfacet
  facet normal 0.000000e+00 0.000000e+00 -1.000000e+00
    outer loop
      vertex -2.332721e+01 -2.022792e+00 0.000000e+00
      vertex 2.460000e+01 -2.550000e+00 0.000000e+00
      vertex -2.460000e+01 -2.550000e+00 0.000000e+00
    endloop
  endfacet
  facet normal 0.000000e+00 0.000000e+00 -1.000000e+00
    outer loop
      vertex -2.332721e+01 -2.022792e+00 0.000000e+00
      vertex 2.332721e+01 -2.022792e+00 0.000000e+00
      vertex 2.460000e+01 -2.550000e+00 0.000000e+00
    endloop
  endfacet
  facet normal 0.000000e+00 0.000000e+00 -1.000000e+00
    outer loop
      vertex -2.280000e+01 -7.500000e-01 0.000000e+00
      vertex 2.332721e+01 -2.022792e+00 0.000000e+00
      vertex -2.332721e+01 -2.022792e+00 0.000000e+00
    endloop
  endfacet
  facet normal 0.000000e+00 0.000000e+00 -1.000000e+00
    outer loop
      vertex -2.280000e+01 -7.500000e-01 0.000000e+00
      vertex 2.280000e+01 -7.500000e-01 0.000000e+00
      vertex 2.332721e+01 -2.022792e+00 0.000000e+00
    endloop
  endfacet
  facet normal 0.000000e+00 0.000000e+00 -1.000000e+00
    outer loop
      vertex -2.332721e+01 5.227919e-01 0.000000e+00
      vertex 2.280000e+01 -7.500000e-01 0.000000e+00
      vertex -2.280000e+01 -7.500000e-01 0.000000e+00
    endloop
  endfacet
  facet normal 0.000000e+00 0.000000e+00 -1.000000e+00
    outer loop
      vertex -2.332721e+01 5.227919e-01 0.000000e+00
      vertex 2.332721e+01 5.227919e-01 0.000000e+00
      vertex 2.280000e+01 -7.500000e-01 0.000000e+00
    endloop
  endfacet
  facet normal 0.000000e+00 0.000000e+00 -1.000000e+00
    outer loop
      vertex -2.460000e+01 1.050000e+00 0.000000e+00
      vertex 2.332721e+01 5.227919e-01 0.000000e+00
      vertex -2.332721e+01 5.227919e-01 0.000000e+00
    endloop
  endfacet
  facet normal 0.000000e+00 0.000000e+00 -1.000000e+00
    outer loop
      vertex 2.332721e+01 5.227919e-01 0.000000e+00
      vertex -2.460000e+01 1.050000e+00 0.000000e+00
      vertex 2.460000e+01 1.050000e+00 0.000000e+00
    endloop
  endfacet
  facet normal 0.000000e+00 0.000000e+00 -1.000000e+00
    outer loop
      vertex -4.992721e+01 -2.022792e+00 0.000000e+00
      vertex -2.460000e+01 -2.550000e+00 0.000000e+00
      vertex -5.120000e+01 -2.550000e+00 0.000000e+00
    endloop
  endfacet
  facet normal 0.000000e+00 0.000000e+00 -1.000000e+00
    outer loop
      vertex -4.992721e+01 -2.022792e+00 0.000000e+00
      vertex -2.587279e+01 -2.022792e+00 0.000000e+00
      vertex -2.460000e+01 -2.550000e+00 0.000000e+00
    endloop
  endfacet
  facet normal 0.000000e+00 0.000000e+00 -1.000000e+00
    outer loop
      vertex -4.940000e+01 -7.500000e-01 0.000000e+00
      vertex -2.587279e+01 -2.022792e+00 0.000000e+00
      vertex -4.992721e+01 -2.022792e+00 0.000000e+00
    endloop
  endfacet
  facet normal 0.000000e+00 0.000000e+00 -1.000000e+00
    outer loop
      vertex -4.940000e+01 -7.500000e-01 0.000000e+00
      vertex -2.640000e+01 -7.500000e-01 0.000000e+00
      vertex -2.587279e+01 -2.022792e+00 0.000000e+00
    endloop
  endfacet
  facet normal 0.000000e+00 0.000000e+00 -1.000000e+00
    outer loop
      vertex -4.992721e+01 5.227919e-01 0.000000e+00
      vertex -2.640000e+01 -7.500000e-01 0.000000e+00
      vertex -4.940000e+01 -7.500000e-01 0.000000e+00
    endloop
  endfacet
  facet normal 0.000000e+00 0.000000e+00 -1.000000e+00
    outer loop
      vertex -4.992721e+01 5.227919e-01 0.000000e+00
      vertex -2.587279e+01 5.227919e-01 0.000000e+00
      vertex -2.640000e+01 -7.500000e-01 0.000000e+00
    endloop
  endfacet
  facet normal 0.000000e+00 0.000000e+00 -1.000000e+00
    outer loop
      vertex -5.120000e+01 1.050000e+00 0.000000e+00
      vertex -2.587279e+01 5.227919e-01 0.000000e+00
      vertex -4.992721e+01 5.227919e-01 0.000000e+00
    endloop
  endfacet
  facet normal 0.000000e+00 0.000000e+00 -1.000000e+00
    outer loop
      vertex -2.587279e+01 5.227919e-01 0.000000e+00
      vertex -5.120000e+01 1.050000e+00 0.000000e+00
      vertex -2.460000e+01 1.050000e+00 0.000000e+00
    endloop
  endfacet
  facet normal 0.000000e+00 0.000000e+00 -1.000000e+00
    outer loop
      vertex -2.460000e+01 -2.550000e+00 0.000000e+00
      vertex -6.085001e+01 -7.150000e+00 0.000000e+00
      vertex -5.120000e+01 -2.550000e+00 0.000000e+00
    endloop
  endfacet
  facet normal 0.000000e+00 0.000000e+00 -1.000000e+00
    outer loop
      vertex -6.085001e+01 -7.150000e+00 0.000000e+00
      vertex -5.247279e+01 -2.022792e+00 0.000000e+00
      vertex -5.120000e+01 -2.550000e+00 0.000000e+00
    endloop
  endfacet
  facet normal 0.000000e+00 0.000000e+00 -1.000000e+00
    outer loop
      vertex -6.085001e+01 -7.150000e+00 0.000000e+00
      vertex -5.300000e+01 -7.500000e-01 0.000000e+00
      vertex -5.247279e+01 -2.022792e+00 0.000000e+00
    endloop
  endfacet
  facet normal 0.000000e+00 0.000000e+00 -1.000000e+00
    outer loop
      vertex -6.085001e+01 2.349999e+00 0.000000e+00
      vertex -5.300000e+01 -7.500000e-01 0.000000e+00
      vertex -6.085001e+01 -7.150000e+00 0.000000e+00
    endloop
  endfacet
  facet normal 0.000000e+00 0.000000e+00 -1.000000e+00
    outer loop
      vertex -6.085001e+01 2.349999e+00 0.000000e+00
      vertex -2.460000e+01 1.050000e+00 0.000000e+00
      vertex -5.120000e+01 1.050000e+00 0.000000e+00
    endloop
  endfacet
  facet normal 0.000000e+00 0.000000e+00 -1.000000e+00
    outer loop
      vertex -2.460000e+01 1.050000e+00 0.000000e+00
      vertex -6.085001e+01 2.349999e+00 0.000000e+00
      vertex 2.460000e+01 1.050000e+00 0.000000e+00
    endloop
  endfacet
  facet normal 0.000000e+00 0.000000e+00 -1.000000e+00
    outer loop
      vertex 6.084999e+01 2.349999e+00 0.000000e+00
      vertex 2.460000e+01 1.050000e+00 0.000000e+00
      vertex -6.085001e+01 2.349999e+00 0.000000e+00
    endloop
  endfacet
  facet normal 0.000000e+00 0.000000e+00 -1.000000e+00
    outer loop
      vertex -5.247279e+01 5.227919e-01 0.000000e+00
      vertex -6.085001e+01 2.349999e+00 0.000000e+00
      vertex -5.120000e+01 1.050000e+00 0.000000e+00
    endloop
  endfacet
  facet normal 0.000000e+00 0.000000e+00 -1.000000e+00
    outer loop
      vertex -5.300000e+01 -7.500000e-01 0.000000e+00
      vertex -6.085001e+01 2.349999e+00 0.000000e+00
      vertex -5.247279e+01 5.227919e-01 0.000000e+00
    endloop
  endfacet
  facet normal 0.000000e+00 0.000000e+00 -1.000000e+00
    outer loop
      vertex -6.085001e+01 -7.150000e+00 0.000000e+00
      vertex -2.460000e+01 -2.550000e+00 0.000000e+00
      vertex 6.084999e+01 -7.150000e+00 0.000000e+00
    endloop
  endfacet
  facet normal 0.000000e+00 0.000000e+00 -1.000000e+00
    outer loop
      vertex 2.460000e+01 -2.550000e+00 0.000000e+00
      vertex 6.084999e+01 -7.150000e+00 0.000000e+00
      vertex -2.460000e+01 -2.550000e+00 0.000000e+00
    endloop
  endfacet
  facet normal 0.000000e+00 0.000000e+00 -1.000000e+00
    outer loop
      vertex 5.120000e+01 -2.550000e+00 0.000000e+00
      vertex 6.084999e+01 -7.150000e+00 0.000000e+00
      vertex 2.460000e+01 -2.550000e+00 0.000000e+00
    endloop
  endfacet
  facet normal 0.000000e+00 0.000000e+00 -1.000000e+00
    outer loop
      vertex 5.247279e+01 -2.022792e+00 0.000000e+00
      vertex 6.084999e+01 -7.150000e+00 0.000000e+00
      vertex 5.120000e+01 -2.550000e+00 0.000000e+00
    endloop
  endfacet
  facet normal 0.000000e+00 0.000000e+00 -1.000000e+00
    outer loop
      vertex 5.300000e+01 -7.500000e-01 0.000000e+00
      vertex 6.084999e+01 -7.150000e+00 0.000000e+00
      vertex 5.247279e+01 -2.022792e+00 0.000000e+00
    endloop
  endfacet
  facet normal 0.000000e+00 0.000000e+00 -1.000000e+00
    outer loop
      vertex 6.084999e+01 2.349999e+00 0.000000e+00
      vertex 5.300000e+01 -7.500000e-01 0.000000e+00
      vertex 5.247279e+01 5.227919e-01 0.000000e+00
    endloop
  endfacet
  facet normal 0.000000e+00 0.000000e+00 -1.000000e+00
    outer loop
      vertex 5.300000e+01 -7.500000e-01 0.000000e+00
      vertex 6.084999e+01 2.349999e+00 0.000000e+00
      vertex 6.084999e+01 -7.150000e+00 0.000000e+00
    endloop
  endfacet
  facet normal 0.000000e+00 0.000000e+00 -1.000000e+00
    outer loop
      vertex 5.120000e+01 1.050000e+00 0.000000e+00
      vertex 6.084999e+01 2.349999e+00 0.000000e+00
      vertex 5.247279e+01 5.227919e-01 0.000000e+00
    endloop
  endfacet
  facet normal 0.000000e+00 0.000000e+00 -1.000000e+00
    outer loop
      vertex 2.460000e+01 1.050000e+00 0.000000e+00
      vertex 6.084999e+01 2.349999e+00 0.000000e+00
      vertex 5.120000e+01 1.050000e+00 0.000000e+00
    endloop
  endfacet
  facet normal -9.238799e-01 -3.826827e-01 0.000000e+00
    outer loop
      vertex -4.992721e+01 5.227919e-01 0.000000e+00
      vertex -4.940000e+01 -7.500000e-01 3.000000e+00
      vertex -4.992721e+01 5.227919e-01 3.000000e+00
    endloop
  endfacet
  facet normal -9.238799e-01 -3.826827e-01 0.000000e+00
    outer loop
      vertex -4.940000e+01 -7.500000e-01 3.000000e+00
      vertex -4.992721e+01 5.227919e-01 0.000000e+00
      vertex -4.940000e+01 -7.500000e-01 0.000000e+00
    endloop
  endfacet
  facet normal -9.238799e-01 3.826827e-01 0.000000e+00
    outer loop
      vertex -4.940000e+01 -7.500000e-01 0.000000e+00
      vertex -4.992721e+01 -2.022792e+00 3.000000e+00
      vertex -4.940000e+01 -7.500000e-01 3.000000e+00
    endloop
  endfacet
  facet normal -9.238799e-01 3.826827e-01 -0.000000e+00
    outer loop
      vertex -4.992721e+01 -2.022792e+00 3.000000e+00
      vertex -4.940000e+01 -7.500000e-01 0.000000e+00
      vertex -4.992721e+01 -2.022792e+00 0.000000e+00
    endloop
  endfacet
  facet normal 0.000000e+00 0.000000e+00 1.000000e+00
    outer loop
      vertex 6.680000e+01 -6.350000e+00 3.000000e+00
      vertex 7.000000e+01 -7.150000e+00 3.000000e+00
      vertex 6.880000e+01 -6.350000e+00 3.000000e+00
    endloop
  endfacet
  facet normal 0.000000e+00 0.000000e+00 1.000000e+00
    outer loop
      vertex 7.000000e+01 -7.150000e+00 3.000000e+00
      vertex 6.880000e+01 4.350000e+00 3.000000e+00
      vertex 6.880000e+01 -6.350000e+00 3.000000e+00
    endloop
  endfacet
  facet normal 0.000000e+00 0.000000e+00 1.000000e+00
    outer loop
      vertex 7.000000e+01 7.150000e+00 3.000000e+00
      vertex 4.150000e+01 4.350000e+00 3.000000e+00
      vertex 6.880000e+01 4.350000e+00 3.000000e+00
    endloop
  endfacet
  facet normal 0.000000e+00 0.000000e+00 1.000000e+00
    outer loop
      vertex 4.150000e+01 4.350000e+00 3.000000e+00
      vertex 7.000000e+01 7.150000e+00 3.000000e+00
      vertex 3.850000e+01 4.350000e+00 3.000000e+00
    endloop
  endfacet
  facet normal 0.000000e+00 0.000000e+00 1.000000e+00
    outer loop
      vertex 3.850000e+01 4.350000e+00 3.000000e+00
      vertex 7.000000e+01 7.150000e+00 3.000000e+00
      vertex 1.120000e+01 4.350000e+00 3.000000e+00
    endloop
  endfacet
  facet normal 0.000000e+00 0.000000e+00 1.000000e+00
    outer loop
      vertex 1.120000e+01 4.350000e+00 3.000000e+00
      vertex 7.000000e+01 7.150000e+00 3.000000e+00
      vertex -1.120000e+01 4.350000e+00 3.000000e+00
    endloop
  endfacet
  facet normal 0.000000e+00 0.000000e+00 1.000000e+00
    outer loop
      vertex -7.000000e+01 7.150000e+00 3.000000e+00
      vertex -1.120000e+01 4.350000e+00 3.000000e+00
      vertex 7.000000e+01 7.150000e+00 3.000000e+00
    endloop
  endfacet
  facet normal 0.000000e+00 0.000000e+00 1.000000e+00
    outer loop
      vertex -1.120000e+01 4.350000e+00 3.000000e+00
      vertex -7.000000e+01 7.150000e+00 3.000000e+00
      vertex -3.850000e+01 4.350000e+00 3.000000e+00
    endloop
  endfacet
  facet normal 0.000000e+00 0.000000e+00 1.000000e+00
    outer loop
      vertex -3.850000e+01 4.350000e+00 3.000000e+00
      vertex -7.000000e+01 7.150000e+00 3.000000e+00
      vertex -4.150000e+01 4.350000e+00 3.000000e+00
    endloop
  endfacet
  facet normal 0.000000e+00 0.000000e+00 1.000000e+00
    outer loop
      vertex 7.000000e+01 7.150000e+00 3.000000e+00
      vertex 6.880000e+01 4.350000e+00 3.000000e+00
      vertex 7.000000e+01 -7.150000e+00 3.000000e+00
    endloop
  endfacet
  facet normal 0.000000e+00 0.000000e+00 1.000000e+00
    outer loop
      vertex 7.000000e+01 -7.150000e+00 3.000000e+00
      vertex 6.680000e+01 -6.350000e+00 3.000000e+00
      vertex 6.428000e+01 -7.150000e+00 3.000000e+00
    endloop
  endfacet
  facet normal 0.000000e+00 0.000000e+00 1.000000e+00
    outer loop
      vertex 6.428000e+01 2.349999e+00 3.000000e+00
      vertex 6.680000e+01 -6.350000e+00 3.000000e+00
      vertex 6.680000e+01 2.349999e+00 3.000000e+00
    endloop
  endfacet
  facet normal 0.000000e+00 0.000000e+00 1.000000e+00
    outer loop
      vertex 6.680000e+01 -6.350000e+00 3.000000e+00
      vertex 6.428000e+01 2.349999e+00 3.000000e+00
      vertex 6.428000e+01 -7.150000e+00 3.000000e+00
    endloop
  endfacet
  facet normal 0.000000e+00 0.000000e+00 1.000000e+00
    outer loop
      vertex -6.428001e+01 -7.150000e+00 3.000000e+00
      vertex -6.680000e+01 -6.350000e+00 3.000000e+00
      vertex -7.000000e+01 -7.150000e+00 3.000000e+00
    endloop
  endfacet
  facet normal 0.000000e+00 0.000000e+00 1.000000e+00
    outer loop
      vertex -6.428001e+01 2.349999e+00 3.000000e+00
      vertex -6.680000e+01 -6.350000e+00 3.000000e+00
      vertex -6.428001e+01 -7.150000e+00 3.000000e+00
    endloop
  endfacet
  facet normal 0.000000e+00 0.000000e+00 1.000000e+00
    outer loop
      vertex -6.680000e+01 -6.350000e+00 3.000000e+00
      vertex -6.428001e+01 2.349999e+00 3.000000e+00
      vertex -6.680000e+01 2.349999e+00 3.000000e+00
    endloop
  endfacet
  facet normal 0.000000e+00 0.000000e+00 1.000000e+00
    outer loop
      vertex -6.880000e+01 -6.350000e+00 3.000000e+00
      vertex -7.000000e+01 -7.150000e+00 3.000000e+00
      vertex -6.680000e+01 -6.350000e+00 3.000000e+00
    endloop
  endfacet
  facet normal 0.000000e+00 0.000000e+00 1.000000e+00
    outer loop
      vertex -6.880000e+01 4.350000e+00 3.000000e+00
      vertex -7.000000e+01 -7.150000e+00 3.000000e+00
      vertex -6.880000e+01 -6.350000e+00 3.000000e+00
    endloop
  endfacet
  facet normal 0.000000e+00 0.000000e+00 1.000000e+00
    outer loop
      vertex -6.880000e+01 4.350000e+00 3.000000e+00
      vertex -7.000000e+01 7.150000e+00 3.000000e+00
      vertex -7.000000e+01 -7.150000e+00 3.000000e+00
    endloop
  endfacet
  facet normal 0.000000e+00 0.000000e+00 1.000000e+00
    outer loop
      vertex -4.150000e+01 4.350000e+00 3.000000e+00
      vertex -7.000000e+01 7.150000e+00 3.000000e+00
      vertex -6.880000e+01 4.350000e+00 3.000000e+00
    endloop
  endfacet
  facet normal 0.000000e+00 0.000000e+00 1.000000e+00
    outer loop
      vertex -4.350000e+01 -6.350000e+00 3.000000e+00
      vertex -4.992721e+01 -2.022792e+00 3.000000e+00
      vertex -5.120000e+01 -2.550000e+00 3.000000e+00
    endloop
  endfacet
  facet normal 0.000000e+00 0.000000e+00 1.000000e+00
    outer loop
      vertex -4.350000e+01 -6.350000e+00 3.000000e+00
      vertex -4.940000e+01 -7.500000e-01 3.000000e+00
      vertex -4.992721e+01 -2.022792e+00 3.000000e+00
    endloop
  endfacet
  facet normal 0.000000e+00 0.000000e+00 1.000000e+00
    outer loop
      vertex -4.350000e+01 2.349999e+00 3.000000e+00
      vertex -4.940000e+01 -7.500000e-01 3.000000e+00
      vertex -4.350000e+01 -6.350000e+00 3.000000e+00
    endloop
  endfacet
  facet normal 0.000000e+00 0.000000e+00 1.000000e+00
    outer loop
      vertex -4.992721e+01 5.227919e-01 3.000000e+00
      vertex -4.350000e+01 2.349999e+00 3.000000e+00
      vertex -5.120000e+01 1.050000e+00 3.000000e+00
    endloop
  endfacet
  facet normal 0.000000e+00 0.000000e+00 1.000000e+00
    outer loop
      vertex -4.940000e+01 -7.500000e-01 3.000000e+00
      vertex -4.350000e+01 2.349999e+00 3.000000e+00
      vertex -4.992721e+01 5.227919e-01 3.000000e+00
    endloop
  endfacet
  facet normal 0.000000e+00 0.000000e+00 1.000000e+00
    outer loop
      vertex -3.850000e+01 4.350000e+00 3.000000e+00
      vertex -4.150000e+01 -6.350000e+00 3.000000e+00
      vertex -3.850000e+01 -6.350000e+00 3.000000e+00
    endloop
  endfacet
  facet normal 0.000000e+00 0.000000e+00 1.000000e+00
    outer loop
      vertex -4.150000e+01 -6.350000e+00 3.000000e+00
      vertex -3.850000e+01 4.350000e+00 3.000000e+00
      vertex -4.150000e+01 4.350000e+00 3.000000e+00
    endloop
  endfacet
  facet normal 0.000000e+00 0.000000e+00 1.000000e+00
    outer loop
      vertex -1.320000e+01 -6.350000e+00 3.000000e+00
      vertex -2.460000e+01 -2.550000e+00 3.000000e+00
      vertex -3.650000e+01 -6.350000e+00 3.000000e+00
    endloop
  endfacet
  facet normal 0.000000e+00 0.000000e+00 1.000000e+00
    outer loop
      vertex -1.320000e+01 -6.350000e+00 3.000000e+00
      vertex -2.332721e+01 -2.022792e+00 3.000000e+00
      vertex -2.460000e+01 -2.550000e+00 3.000000e+00
    endloop
  endfacet
  facet normal 0.000000e+00 0.000000e+00 1.000000e+00
    outer loop
      vertex -1.320000e+01 -6.350000e+00 3.000000e+00
      vertex -2.280000e+01 -7.500000e-01 3.000000e+00
      vertex -2.332721e+01 -2.022792e+00 3.000000e+00
    endloop
  endfacet
  facet normal 0.000000e+00 0.000000e+00 1.000000e+00
    outer loop
      vertex -1.320000e+01 2.349999e+00 3.000000e+00
      vertex -2.280000e+01 -7.500000e-01 3.000000e+00
      vertex -1.320000e+01 -6.350000e+00 3.000000e+00
    endloop
  endfacet
  facet normal 0.000000e+00 0.000000e+00 1.000000e+00
    outer loop
      vertex -2.332721e+01 5.227919e-01 3.000000e+00
      vertex -1.320000e+01 2.349999e+00 3.000000e+00
      vertex -2.460000e+01 1.050000e+00 3.000000e+00
    endloop
  endfacet
  facet normal 0.000000e+00 0.000000e+00 1.000000e+00
    outer loop
      vertex -2.280000e+01 -7.500000e-01 3.000000e+00
      vertex -1.320000e+01 2.349999e+00 3.000000e+00
      vertex -2.332721e+01 5.227919e-01 3.000000e+00
    endloop
  endfacet
  facet normal 0.000000e+00 0.000000e+00 1.000000e+00
    outer loop
      vertex 1.120000e+01 4.350000e+00 3.000000e+00
      vertex -1.120000e+01 -6.350000e+00 3.000000e+00
      vertex 1.120000e+01 -6.350000e+00 3.000000e+00
    endloop
  endfacet
  facet normal 0.000000e+00 0.000000e+00 1.000000e+00
    outer loop
      vertex -1.120000e+01 -6.350000e+00 3.000000e+00
      vertex 1.120000e+01 4.350000e+00 3.000000e+00
      vertex -1.120000e+01 4.350000e+00 3.000000e+00
    endloop
  endfacet
  facet normal 0.000000e+00 0.000000e+00 1.000000e+00
    outer loop
      vertex 3.650000e+01 -6.350000e+00 3.000000e+00
      vertex 2.460000e+01 -2.550000e+00 3.000000e+00
      vertex 1.320000e+01 -6.350000e+00 3.000000e+00
    endloop
  endfacet
  facet normal 0.000000e+00 0.000000e+00 1.000000e+00
    outer loop
      vertex 3.650000e+01 -6.350000e+00 3.000000e+00
      vertex 2.587279e+01 -2.022792e+00 3.000000e+00
      vertex 2.460000e+01 -2.550000e+00 3.000000e+00
    endloop
  endfacet
  facet normal 0.000000e+00 0.000000e+00 1.000000e+00
    outer loop
      vertex 3.650000e+01 -6.350000e+00 3.000000e+00
      vertex 2.640000e+01 -7.500000e-01 3.000000e+00
      vertex 2.587279e+01 -2.022792e+00 3.000000e+00
    endloop
  endfacet
  facet normal 0.000000e+00 0.000000e+00 1.000000e+00
    outer loop
      vertex 3.650000e+01 2.349999e+00 3.000000e+00
      vertex 2.640000e+01 -7.500000e-01 3.000000e+00
      vertex 3.650000e+01 -6.350000e+00 3.000000e+00
    endloop
  endfacet
  facet normal 0.000000e+00 0.000000e+00 1.000000e+00
    outer loop
      vertex 2.587279e+01 5.227919e-01 3.000000e+00
      vertex 3.650000e+01 2.349999e+00 3.000000e+00
      vertex 2.460000e+01 1.050000e+00 3.000000e+00
    endloop
  endfacet
  facet normal 0.000000e+00 0.000000e+00 1.000000e+00
    outer loop
      vertex 2.640000e+01 -7.500000e-01 3.000000e+00
      vertex 3.650000e+01 2.349999e+00 3.000000e+00
      vertex 2.587279e+01 5.227919e-01 3.000000e+00
    endloop
  endfacet
  facet normal 0.000000e+00 0.000000e+00 1.000000e+00
    outer loop
      vertex 4.150000e+01 4.350000e+00 3.000000e+00
      vertex 3.850000e+01 -6.350000e+00 3.000000e+00
      vertex 4.150000e+01 -6.350000e+00 3.000000e+00
    endloop
  endfacet
  facet normal 0.000000e+00 0.000000e+00 1.000000e+00
    outer loop
      vertex 3.850000e+01 -6.350000e+00 3.000000e+00
      vertex 4.150000e+01 4.350000e+00 3.000000e+00
      vertex 3.850000e+01 4.350000e+00 3.000000e+00
    endloop
  endfacet
  facet normal 0.000000e+00 0.000000e+00 1.000000e+00
    outer loop
      vertex 4.150000e+01 -6.350000e+00 3.000000e+00
      vertex 6.084999e+01 -7.150000e+00 3.000000e+00
      vertex 4.350000e+01 -6.350000e+00 3.000000e+00
    endloop
  endfacet
  facet normal 0.000000e+00 0.000000e+00 1.000000e+00
    outer loop
      vertex 6.084999e+01 -7.150000e+00 3.000000e+00
      vertex 5.120000e+01 -2.550000e+00 3.000000e+00
      vertex 4.350000e+01 -6.350000e+00 3.000000e+00
    endloop
  endfacet
  facet normal 0.000000e+00 0.000000e+00 1.000000e+00
    outer loop
      vertex 6.084999e+01 -7.150000e+00 3.000000e+00
      vertex 5.247279e+01 -2.022792e+00 3.000000e+00
      vertex 5.120000e+01 -2.550000e+00 3.000000e+00
    endloop
  endfacet
  facet normal 0.000000e+00 0.000000e+00 1.000000e+00
    outer loop
      vertex 6.084999e+01 -7.150000e+00 3.000000e+00
      vertex 5.300000e+01 -7.500000e-01 3.000000e+00
      vertex 5.247279e+01 -2.022792e+00 3.000000e+00
    endloop
  endfacet
  facet normal 0.000000e+00 0.000000e+00 1.000000e+00
    outer loop
      vertex 6.084999e+01 2.349999e+00 3.000000e+00
      vertex 5.300000e+01 -7.500000e-01 3.000000e+00
      vertex 6.084999e+01 -7.150000e+00 3.000000e+00
    endloop
  endfacet
  facet normal 0.000000e+00 0.000000e+00 1.000000e+00
    outer loop
      vertex 5.247279e+01 5.227919e-01 3.000000e+00
      vertex 6.084999e+01 2.349999e+00 3.000000e+00
      vertex 5.120000e+01 1.050000e+00 3.000000e+00
    endloop
  endfacet
  facet normal 0.000000e+00 0.000000e+00 1.000000e+00
    outer loop
      vertex 5.300000e+01 -7.500000e-01 3.000000e+00
      vertex 6.084999e+01 2.349999e+00 3.000000e+00
      vertex 5.247279e+01 5.227919e-01 3.000000e+00
    endloop
  endfacet
  facet normal 0.000000e+00 0.000000e+00 1.000000e+00
    outer loop
      vertex 3.850000e+01 -6.350000e+00 3.000000e+00
      vertex 6.084999e+01 -7.150000e+00 3.000000e+00
      vertex 4.150000e+01 -6.350000e+00 3.000000e+00
    endloop
  endfacet
  facet normal 0.000000e+00 0.000000e+00 1.000000e+00
    outer loop
      vertex 3.650000e+01 -6.350000e+00 3.000000e+00
      vertex 6.084999e+01 -7.150000e+00 3.000000e+00
      vertex 3.850000e+01 -6.350000e+00 3.000000e+00
    endloop
  endfacet
  facet normal 0.000000e+00 0.000000e+00 1.000000e+00
    outer loop
      vertex 1.320000e+01 -6.350000e+00 3.000000e+00
      vertex 6.084999e+01 -7.150000e+00 3.000000e+00
      vertex 3.650000e+01 -6.350000e+00 3.000000e+00
    endloop
  endfacet
  facet normal 0.000000e+00 0.000000e+00 1.000000e+00
    outer loop
      vertex 6.084999e+01 -7.150000e+00 3.000000e+00
      vertex 1.320000e+01 -6.350000e+00 3.000000e+00
      vertex -6.085001e+01 -7.150000e+00 3.000000e+00
    endloop
  endfacet
  facet normal 0.000000e+00 0.000000e+00 1.000000e+00
    outer loop
      vertex 1.120000e+01 -6.350000e+00 3.000000e+00
      vertex -6.085001e+01 -7.150000e+00 3.000000e+00
      vertex 1.320000e+01 -6.350000e+00 3.000000e+00
    endloop
  endfacet
  facet normal 0.000000e+00 0.000000e+00 1.000000e+00
    outer loop
      vertex -1.120000e+01 -6.350000e+00 3.000000e+00
      vertex -6.085001e+01 -7.150000e+00 3.000000e+00
      vertex 1.120000e+01 -6.350000e+00 3.000000e+00
    endloop
  endfacet
  facet normal 0.000000e+00 0.000000e+00 1.000000e+00
    outer loop
      vertex -1.320000e+01 -6.350000e+00 3.000000e+00
      vertex -6.085001e+01 -7.150000e+00 3.000000e+00
      vertex -1.120000e+01 -6.350000e+00 3.000000e+00
    endloop
  endfacet
  facet normal 0.000000e+00 0.000000e+00 1.000000e+00
    outer loop
      vertex -3.650000e+01 -6.350000e+00 3.000000e+00
      vertex -6.085001e+01 -7.150000e+00 3.000000e+00
      vertex -1.320000e+01 -6.350000e+00 3.000000e+00
    endloop
  endfacet
  facet normal 0.000000e+00 0.000000e+00 1.000000e+00
    outer loop
      vertex -3.850000e+01 -6.350000e+00 3.000000e+00
      vertex -6.085001e+01 -7.150000e+00 3.000000e+00
      vertex -3.650000e+01 -6.350000e+00 3.000000e+00
    endloop
  endfacet
  facet normal 0.000000e+00 0.000000e+00 1.000000e+00
    outer loop
      vertex -4.150000e+01 -6.350000e+00 3.000000e+00
      vertex -6.085001e+01 -7.150000e+00 3.000000e+00
      vertex -3.850000e+01 -6.350000e+00 3.000000e+00
    endloop
  endfacet
  facet normal 0.000000e+00 0.000000e+00 1.000000e+00
    outer loop
      vertex -4.350000e+01 -6.350000e+00 3.000000e+00
      vertex -6.085001e+01 -7.150000e+00 3.000000e+00
      vertex -4.150000e+01 -6.350000e+00 3.000000e+00
    endloop
  endfacet
  facet normal 0.000000e+00 0.000000e+00 1.000000e+00
    outer loop
      vertex -5.120000e+01 -2.550000e+00 3.000000e+00
      vertex -6.085001e+01 -7.150000e+00 3.000000e+00
      vertex -4.350000e+01 -6.350000e+00 3.000000e+00
    endloop
  endfacet
  facet normal 0.000000e+00 0.000000e+00 1.000000e+00
    outer loop
      vertex -5.247279e+01 -2.022792e+00 3.000000e+00
      vertex -6.085001e+01 -7.150000e+00 3.000000e+00
      vertex -5.120000e+01 -2.550000e+00 3.000000e+00
    endloop
  endfacet
  facet normal 0.000000e+00 0.000000e+00 1.000000e+00
    outer loop
      vertex -5.300000e+01 -7.500000e-01 3.000000e+00
      vertex -6.085001e+01 -7.150000e+00 3.000000e+00
      vertex -5.247279e+01 -2.022792e+00 3.000000e+00
    endloop
  endfacet
  facet normal 0.000000e+00 0.000000e+00 1.000000e+00
    outer loop
      vertex -6.085001e+01 2.349999e+00 3.000000e+00
      vertex -5.300000e+01 -7.500000e-01 3.000000e+00
      vertex -5.247279e+01 5.227919e-01 3.000000e+00
    endloop
  endfacet
  facet normal 0.000000e+00 0.000000e+00 1.000000e+00
    outer loop
      vertex -5.300000e+01 -7.500000e-01 3.000000e+00
      vertex -6.085001e+01 2.349999e+00 3.000000e+00
      vertex -6.085001e+01 -7.150000e+00 3.000000e+00
    endloop
  endfacet
  facet normal 0.000000e+00 0.000000e+00 1.000000e+00
    outer loop
      vertex -5.120000e+01 1.050000e+00 3.000000e+00
      vertex -6.085001e+01 2.349999e+00 3.000000e+00
      vertex -5.247279e+01 5.227919e-01 3.000000e+00
    endloop
  endfacet
  facet normal 0.000000e+00 0.000000e+00 1.000000e+00
    outer loop
      vertex -6.085001e+01 2.349999e+00 3.000000e+00
      vertex -5.120000e+01 1.050000e+00 3.000000e+00
      vertex -4.350000e+01 2.349999e+00 3.000000e+00
    endloop
  endfacet
  facet normal 0.000000e+00 0.000000e+00 1.000000e+00
    outer loop
      vertex 4.992721e+01 -2.022792e+00 3.000000e+00
      vertex 4.350000e+01 -6.350000e+00 3.000000e+00
      vertex 5.120000e+01 -2.550000e+00 3.000000e+00
    endloop
  endfacet
  facet normal 0.000000e+00 0.000000e+00 1.000000e+00
    outer loop
      vertex 4.940000e+01 -7.500000e-01 3.000000e+00
      vertex 4.350000e+01 -6.350000e+00 3.000000e+00
      vertex 4.992721e+01 -2.022792e+00 3.000000e+00
    endloop
  endfacet
  facet normal 0.000000e+00 0.000000e+00 1.000000e+00
    outer loop
      vertex 4.350000e+01 2.349999e+00 3.000000e+00
      vertex 4.940000e+01 -7.500000e-01 3.000000e+00
      vertex 4.992721e+01 5.227919e-01 3.000000e+00
    endloop
  endfacet
  facet normal 0.000000e+00 0.000000e+00 1.000000e+00
    outer loop
      vertex 4.940000e+01 -7.500000e-01 3.000000e+00
      vertex 4.350000e+01 2.349999e+00 3.000000e+00
      vertex 4.350000e+01 -6.350000e+00 3.000000e+00
    endloop
  endfacet
  facet normal 0.000000e+00 0.000000e+00 1.000000e+00
    outer loop
      vertex 5.120000e+01 1.050000e+00 3.000000e+00
      vertex 4.350000e+01 2.349999e+00 3.000000e+00
      vertex 4.992721e+01 5.227919e-01 3.000000e+00
    endloop
  endfacet
  facet normal 0.000000e+00 0.000000e+00 1.000000e+00
    outer loop
      vertex 4.350000e+01 2.349999e+00 3.000000e+00
      vertex 5.120000e+01 1.050000e+00 3.000000e+00
      vertex 6.084999e+01 2.349999e+00 3.000000e+00
    endloop
  endfacet
  facet normal 0.000000e+00 0.000000e+00 1.000000e+00
    outer loop
      vertex 2.332721e+01 -2.022792e+00 3.000000e+00
      vertex 1.320000e+01 -6.350000e+00 3.000000e+00
      vertex 2.460000e+01 -2.550000e+00 3.000000e+00
    endloop
  endfacet
  facet normal 0.000000e+00 0.000000e+00 1.000000e+00
    outer loop
      vertex 2.280000e+01 -7.500000e-01 3.000000e+00
      vertex 1.320000e+01 -6.350000e+00 3.000000e+00
      vertex 2.332721e+01 -2.022792e+00 3.000000e+00
    endloop
  endfacet
  facet normal 0.000000e+00 0.000000e+00 1.000000e+00
    outer loop
      vertex 1.320000e+01 2.349999e+00 3.000000e+00
      vertex 2.280000e+01 -7.500000e-01 3.000000e+00
      vertex 2.332721e+01 5.227919e-01 3.000000e+00
    endloop
  endfacet
  facet normal 0.000000e+00 0.000000e+00 1.000000e+00
    outer loop
      vertex 2.280000e+01 -7.500000e-01 3.000000e+00
      vertex 1.320000e+01 2.349999e+00 3.000000e+00
      vertex 1.320000e+01 -6.350000e+00 3.000000e+00
    endloop
  endfacet
  facet normal 0.000000e+00 0.000000e+00 1.000000e+00
    outer loop
      vertex 2.460000e+01 1.050000e+00 3.000000e+00
      vertex 1.320000e+01 2.349999e+00 3.000000e+00
      vertex 2.332721e+01 5.227919e-01 3.000000e+00
    endloop
  endfacet
  facet normal 0.000000e+00 0.000000e+00 1.000000e+00
    outer loop
      vertex 1.320000e+01 2.349999e+00 3.000000e+00
      vertex 2.460000e+01 1.050000e+00 3.000000e+00
      vertex 3.650000e+01 2.349999e+00 3.000000e+00
    endloop
  endfacet
  facet normal 0.000000e+00 0.000000e+00 1.000000e+00
    outer loop
      vertex -2.587279e+01 -2.022792e+00 3.000000e+00
      vertex -3.650000e+01 -6.350000e+00 3.000000e+00
      vertex -2.460000e+01 -2.550000e+00 3.000000e+00
    endloop
  endfacet
  facet normal 0.000000e+00 0.000000e+00 1.000000e+00
    outer loop
      vertex -2.640000e+01 -7.500000e-01 3.000000e+00
      vertex -3.650000e+01 -6.350000e+00 3.000000e+00
      vertex -2.587279e+01 -2.022792e+00 3.000000e+00
    endloop
  endfacet
  facet normal 0.000000e+00 0.000000e+00 1.000000e+00
    outer loop
      vertex -3.650000e+01 2.349999e+00 3.000000e+00
      vertex -2.640000e+01 -7.500000e-01 3.000000e+00
      vertex -2.587279e+01 5.227919e-01 3.000000e+00
    endloop
  endfacet
  facet normal 0.000000e+00 0.000000e+00 1.000000e+00
    outer loop
      vertex -2.640000e+01 -7.500000e-01 3.000000e+00
      vertex -3.650000e+01 2.349999e+00 3.000000e+00
      vertex -3.650000e+01 -6.350000e+00 3.000000e+00
    endloop
  endfacet
  facet normal 0.000000e+00 0.000000e+00 1.000000e+00
    outer loop
      vertex -2.460000e+01 1.050000e+00 3.000000e+00
      vertex -3.650000e+01 2.349999e+00 3.000000e+00
      vertex -2.587279e+01 5.227919e-01 3.000000e+00
    endloop
  endfacet
  facet normal 0.000000e+00 0.000000e+00 1.000000e+00
    outer loop
      vertex -3.650000e+01 2.349999e+00 3.000000e+00
      vertex -2.460000e+01 1.050000e+00 3.000000e+00
      vertex -1.320000e+01 2.349999e+00 3.000000e+00
    endloop
  endfacet
  facet normal 3.826836e-01 9.238795e-01 0.000000e+00
    outer loop
      vertex -5.247279e+01 -2.022792e+00 0.000000e+00
      vertex -5.120000e+01 -2.550000e+00 3.000000e+00
      vertex -5.120000e+01 -2.550000e+00 0.000000e+00
    endloop
  endfacet
  facet normal 3.826836e-01 9.238795e-01 0.000000e+00
    outer loop
      vertex -5.120000e+01 -2.550000e+00 3.000000e+00
      vertex -5.247279e+01 -2.022792e+00 0.000000e+00
      vertex -5.247279e+01 -2.022792e+00 3.000000e+00
    endloop
  endfacet
  facet normal 9.238799e-01 3.826827e-01 0.000000e+00
    outer loop
      vertex -5.247279e+01 -2.022792e+00 0.000000e+00
      vertex -5.300000e+01 -7.500000e-01 3.000000e+00
      vertex -5.247279e+01 -2.022792e+00 3.000000e+00
    endloop
  endfacet
  facet normal 9.238799e-01 3.826827e-01 0.000000e+00
    outer loop
      vertex -5.300000e+01 -7.500000e-01 3.000000e+00
      vertex -5.247279e+01 -2.022792e+00 0.000000e+00
      vertex -5.300000e+01 -7.500000e-01 0.000000e+00
    endloop
  endfacet
  facet normal 9.238799e-01 -3.826827e-01 0.000000e+00
    outer loop
      vertex -5.300000e+01 -7.500000e-01 0.000000e+00
      vertex -5.247279e+01 5.227919e-01 3.000000e+00
      vertex -5.300000e+01 -7.500000e-01 3.000000e+00
    endloop
  endfacet
  facet normal 9.238799e-01 -3.826827e-01 0.000000e+00
    outer loop
      vertex -5.247279e+01 5.227919e-01 3.000000e+00
      vertex -5.300000e+01 -7.500000e-01 0.000000e+00
      vertex -5.247279e+01 5.227919e-01 0.000000e+00
    endloop
  endfacet
  facet normal 3.826836e-01 -9.238795e-01 0.000000e+00
    outer loop
      vertex -5.247279e+01 5.227919e-01 3.000000e+00
      vertex -5.120000e+01 1.050000e+00 0.000000e+00
      vertex -5.120000e+01 1.050000e+00 3.000000e+00
    endloop
  endfacet
  facet normal 3.826836e-01 -9.238795e-01 0.000000e+00
    outer loop
      vertex -5.120000e+01 1.050000e+00 0.000000e+00
      vertex -5.247279e+01 5.227919e-01 3.000000e+00
      vertex -5.247279e+01 5.227919e-01 0.000000e+00
    endloop
  endfacet
  facet normal -3.826826e-01 9.238799e-01 0.000000e+00
    outer loop
      vertex 5.120000e+01 -2.550000e+00 0.000000e+00
      vertex 5.247279e+01 -2.022792e+00 3.000000e+00
      vertex 5.247279e+01 -2.022792e+00 0.000000e+00
    endloop
  endfacet
  facet normal -3.826826e-01 9.238799e-01 0.000000e+00
    outer loop
      vertex 5.247279e+01 -2.022792e+00 3.000000e+00
      vertex 5.120000e+01 -2.550000e+00 0.000000e+00
      vertex 5.120000e+01 -2.550000e+00 3.000000e+00
    endloop
  endfacet
  facet normal -9.238799e-01 -3.826827e-01 0.000000e+00
    outer loop
      vertex 5.247279e+01 5.227919e-01 0.000000e+00
      vertex 5.300000e+01 -7.500000e-01 3.000000e+00
      vertex 5.247279e+01 5.227919e-01 3.000000e+00
    endloop
  endfacet
  facet normal -9.238799e-01 -3.826827e-01 0.000000e+00
    outer loop
      vertex 5.300000e+01 -7.500000e-01 3.000000e+00
      vertex 5.247279e+01 5.227919e-01 0.000000e+00
      vertex 5.300000e+01 -7.500000e-01 0.000000e+00
    endloop
  endfacet
  facet normal -9.238799e-01 3.826827e-01 0.000000e+00
    outer loop
      vertex 5.300000e+01 -7.500000e-01 0.000000e+00
      vertex 5.247279e+01 -2.022792e+00 3.000000e+00
      vertex 5.300000e+01 -7.500000e-01 3.000000e+00
    endloop
  endfacet
  facet normal -9.238799e-01 3.826827e-01 -0.000000e+00
    outer loop
      vertex 5.247279e+01 -2.022792e+00 3.000000e+00
      vertex 5.300000e+01 -7.500000e-01 0.000000e+00
      vertex 5.247279e+01 -2.022792e+00 0.000000e+00
    endloop
  endfacet
  facet normal -3.826826e-01 -9.238799e-01 0.000000e+00
    outer loop
      vertex 5.120000e+01 1.050000e+00 3.000000e+00
      vertex 5.247279e+01 5.227919e-01 0.000000e+00
      vertex 5.247279e+01 5.227919e-01 3.000000e+00
    endloop
  endfacet
  facet normal -3.826826e-01 -9.238799e-01 0.000000e+00
    outer loop
      vertex 5.247279e+01 5.227919e-01 0.000000e+00
      vertex 5.120000e+01 1.050000e+00 3.000000e+00
      vertex 5.120000e+01 1.050000e+00 0.000000e+00
    endloop
  endfacet
  facet normal 3.826846e-01 9.238790e-01 0.000000e+00
    outer loop
      vertex 4.992721e+01 -2.022792e+00 0.000000e+00
      vertex 5.120000e+01 -2.550000e+00 3.000000e+00
      vertex 5.120000e+01 -2.550000e+00 0.000000e+00
    endloop
  endfacet
  facet normal 3.826846e-01 9.238790e-01 0.000000e+00
    outer loop
      vertex 5.120000e+01 -2.550000e+00 3.000000e+00
      vertex 4.992721e+01 -2.022792e+00 0.000000e+00
      vertex 4.992721e+01 -2.022792e+00 3.000000e+00
    endloop
  endfacet
  facet normal 9.238799e-01 -3.826827e-01 0.000000e+00
    outer loop
      vertex 4.940000e+01 -7.500000e-01 0.000000e+00
      vertex 4.992721e+01 5.227919e-01 3.000000e+00
      vertex 4.940000e+01 -7.500000e-01 3.000000e+00
    endloop
  endfacet
  facet normal 9.238799e-01 -3.826827e-01 0.000000e+00
    outer loop
      vertex 4.992721e+01 5.227919e-01 3.000000e+00
      vertex 4.940000e+01 -7.500000e-01 0.000000e+00
      vertex 4.992721e+01 5.227919e-01 0.000000e+00
    endloop
  endfacet
  facet normal 3.826846e-01 -9.238790e-01 0.000000e+00
    outer loop
      vertex 4.992721e+01 5.227919e-01 3.000000e+00
      vertex 5.120000e+01 1.050000e+00 0.000000e+00
      vertex 5.120000e+01 1.050000e+00 3.000000e+00
    endloop
  endfacet
  facet normal 3.826846e-01 -9.238790e-01 0.000000e+00
    outer loop
      vertex 5.120000e+01 1.050000e+00 0.000000e+00
      vertex 4.992721e+01 5.227919e-01 3.000000e+00
      vertex 4.992721e+01 5.227919e-01 0.000000e+00
    endloop
  endfacet
  facet normal 9.238799e-01 3.826827e-01 0.000000e+00
    outer loop
      vertex 4.992721e+01 -2.022792e+00 0.000000e+00
      vertex 4.940000e+01 -7.500000e-01 3.000000e+00
      vertex 4.992721e+01 -2.022792e+00 3.000000e+00
    endloop
  endfacet
  facet normal 9.238799e-01 3.826827e-01 0.000000e+00
    outer loop
      vertex 4.940000e+01 -7.500000e-01 3.000000e+00
      vertex 4.992721e+01 -2.022792e+00 0.000000e+00
      vertex 4.940000e+01 -7.500000e-01 0.000000e+00
    endloop
  endfacet
  facet normal -3.826846e-01 9.238790e-01 0.000000e+00
    outer loop
      vertex -2.460000e+01 -2.550000e+00 0.000000e+00
      vertex -2.332721e+01 -2.022792e+00 3.000000e+00
      vertex -2.332721e+01 -2.022792e+00 0.000000e+00
    endloop
  endfacet
  facet normal -3.826846e-01 9.238790e-01 0.000000e+00
    outer loop
      vertex -2.332721e+01 -2.022792e+00 3.000000e+00
      vertex -2.460000e+01 -2.550000e+00 0.000000e+00
      vertex -2.460000e+01 -2.550000e+00 3.000000e+00
    endloop
  endfacet
  facet normal -3.826846e-01 -9.238790e-01 0.000000e+00
    outer loop
      vertex -2.460000e+01 1.050000e+00 3.000000e+00
      vertex -2.332721e+01 5.227919e-01 0.000000e+00
      vertex -2.332721e+01 5.227919e-01 3.000000e+00
    endloop
  endfacet
  facet normal -3.826846e-01 -9.238790e-01 0.000000e+00
    outer loop
      vertex -2.332721e+01 5.227919e-01 0.000000e+00
      vertex -2.460000e+01 1.050000e+00 3.000000e+00
      vertex -2.460000e+01 1.050000e+00 0.000000e+00
    endloop
  endfacet
  facet normal -9.238789e-01 3.826851e-01 0.000000e+00
    outer loop
      vertex -2.280000e+01 -7.500000e-01 0.000000e+00
      vertex -2.332721e+01 -2.022792e+00 3.000000e+00
      vertex -2.280000e+01 -7.500000e-01 3.000000e+00
    endloop
  endfacet
  facet normal -9.238789e-01 3.826851e-01 -0.000000e+00
    outer loop
      vertex -2.332721e+01 -2.022792e+00 3.000000e+00
      vertex -2.280000e+01 -7.500000e-01 0.000000e+00
      vertex -2.332721e+01 -2.022792e+00 0.000000e+00
    endloop
  endfacet
  facet normal -9.238789e-01 -3.826851e-01 0.000000e+00
    outer loop
      vertex -2.332721e+01 5.227919e-01 0.000000e+00
      vertex -2.280000e+01 -7.500000e-01 3.000000e+00
      vertex -2.332721e+01 5.227919e-01 3.000000e+00
    endloop
  endfacet
  facet normal -9.238789e-01 -3.826851e-01 0.000000e+00
    outer loop
      vertex -2.280000e+01 -7.500000e-01 3.000000e+00
      vertex -2.332721e+01 5.227919e-01 0.000000e+00
      vertex -2.280000e+01 -7.500000e-01 0.000000e+00
    endloop
  endfacet
  facet normal 9.238789e-01 3.826851e-01 0.000000e+00
    outer loop
      vertex -2.587279e+01 -2.022792e+00 0.000000e+00
      vertex -2.640000e+01 -7.500000e-01 3.000000e+00
      vertex -2.587279e+01 -2.022792e+00 3.000000e+00
    endloop
  endfacet
  facet normal 9.238789e-01 3.826851e-01 0.000000e+00
    outer loop
      vertex -2.640000e+01 -7.500000e-01 3.000000e+00
      vertex -2.587279e+01 -2.022792e+00 0.000000e+00
      vertex -2.640000e+01 -7.500000e-01 0.000000e+00
    endloop
  endfacet
  facet normal 3.826836e-01 -9.238795e-01 0.000000e+00
    outer loop
      vertex -2.587279e+01 5.227919e-01 3.000000e+00
      vertex -2.460000e+01 1.050000e+00 0.000000e+00
      vertex -2.460000e+01 1.050000e+00 3.000000e+00
    endloop
  endfacet
  facet normal 3.826836e-01 -9.238795e-01 0.000000e+00
    outer loop
      vertex -2.460000e+01 1.050000e+00 0.000000e+00
      vertex -2.587279e+01 5.227919e-01 3.000000e+00
      vertex -2.587279e+01 5.227919e-01 0.000000e+00
    endloop
  endfacet
  facet normal 3.826836e-01 9.238795e-01 0.000000e+00
    outer loop
      vertex -2.587279e+01 -2.022792e+00 0.000000e+00
      vertex -2.460000e+01 -2.550000e+00 3.000000e+00
      vertex -2.460000e+01 -2.550000e+00 0.000000e+00
    endloop
  endfacet
  facet normal 3.826836e-01 9.238795e-01 0.000000e+00
    outer loop
      vertex -2.460000e+01 -2.550000e+00 3.000000e+00
      vertex -2.587279e+01 -2.022792e+00 0.000000e+00
      vertex -2.587279e+01 -2.022792e+00 3.000000e+00
    endloop
  endfacet
  facet normal 9.238789e-01 -3.826851e-01 0.000000e+00
    outer loop
      vertex -2.640000e+01 -7.500000e-01 0.000000e+00
      vertex -2.587279e+01 5.227919e-01 3.000000e+00
      vertex -2.640000e+01 -7.500000e-01 3.000000e+00
    endloop
  endfacet
  facet normal 9.238789e-01 -3.826851e-01 0.000000e+00
    outer loop
      vertex -2.587279e+01 5.227919e-01 3.000000e+00
      vertex -2.640000e+01 -7.500000e-01 0.000000e+00
      vertex -2.587279e+01 5.227919e-01 0.000000e+00
    endloop
  endfacet
  facet normal -3.826846e-01 9.238790e-01 0.000000e+00
    outer loop
      vertex 2.460000e+01 -2.550000e+00 0.000000e+00
      vertex 2.587279e+01 -2.022792e+00 3.000000e+00
      vertex 2.587279e+01 -2.022792e+00 0.000000e+00
    endloop
  endfacet
  facet normal -3.826846e-01 9.238790e-01 0.000000e+00
    outer loop
      vertex 2.587279e+01 -2.022792e+00 3.000000e+00
      vertex 2.460000e+01 -2.550000e+00 0.000000e+00
      vertex 2.460000e+01 -2.550000e+00 3.000000e+00
    endloop
  endfacet
  facet normal -3.826846e-01 -9.238790e-01 0.000000e+00
    outer loop
      vertex 2.460000e+01 1.050000e+00 3.000000e+00
      vertex 2.587279e+01 5.227919e-01 0.000000e+00
      vertex 2.587279e+01 5.227919e-01 3.000000e+00
    endloop
  endfacet
  facet normal -3.826846e-01 -9.238790e-01 0.000000e+00
    outer loop
      vertex 2.587279e+01 5.227919e-01 0.000000e+00
      vertex 2.460000e+01 1.050000e+00 3.000000e+00
      vertex 2.460000e+01 1.050000e+00 0.000000e+00
    endloop
  endfacet
  facet normal -9.238780e-01 3.826874e-01 0.000000e+00
    outer loop
      vertex 2.640000e+01 -7.500000e-01 0.000000e+00
      vertex 2.587279e+01 -2.022792e+00 3.000000e+00
      vertex 2.640000e+01 -7.500000e-01 3.000000e+00
    endloop
  endfacet
  facet normal -9.238780e-01 3.826874e-01 -0.000000e+00
    outer loop
      vertex 2.587279e+01 -2.022792e+00 3.000000e+00
      vertex 2.640000e+01 -7.500000e-01 0.000000e+00
      vertex 2.587279e+01 -2.022792e+00 0.000000e+00
    endloop
  endfacet
  facet normal -9.238780e-01 -3.826874e-01 0.000000e+00
    outer loop
      vertex 2.587279e+01 5.227919e-01 0.000000e+00
      vertex 2.640000e+01 -7.500000e-01 3.000000e+00
      vertex 2.587279e+01 5.227919e-01 3.000000e+00
    endloop
  endfacet
  facet normal -9.238780e-01 -3.826874e-01 0.000000e+00
    outer loop
      vertex 2.640000e+01 -7.500000e-01 3.000000e+00
      vertex 2.587279e+01 5.227919e-01 0.000000e+00
      vertex 2.640000e+01 -7.500000e-01 0.000000e+00
    endloop
  endfacet
  facet normal 9.238799e-01 3.826827e-01 0.000000e+00
    outer loop
      vertex 2.332721e+01 -2.022792e+00 0.000000e+00
      vertex 2.280000e+01 -7.500000e-01 3.000000e+00
      vertex 2.332721e+01 -2.022792e+00 3.000000e+00
    endloop
  endfacet
  facet normal 9.238799e-01 3.826827e-01 0.000000e+00
    outer loop
      vertex 2.280000e+01 -7.500000e-01 3.000000e+00
      vertex 2.332721e+01 -2.022792e+00 0.000000e+00
      vertex 2.280000e+01 -7.500000e-01 0.000000e+00
    endloop
  endfacet
  facet normal 3.826846e-01 -9.238790e-01 0.000000e+00
    outer loop
      vertex 2.332721e+01 5.227919e-01 3.000000e+00
      vertex 2.460000e+01 1.050000e+00 0.000000e+00
      vertex 2.460000e+01 1.050000e+00 3.000000e+00
    endloop
  endfacet
  facet normal 3.826846e-01 -9.238790e-01 0.000000e+00
    outer loop
      vertex 2.460000e+01 1.050000e+00 0.000000e+00
      vertex 2.332721e+01 5.227919e-01 3.000000e+00
      vertex 2.332721e+01 5.227919e-01 0.000000e+00
    endloop
  endfacet
  facet normal 9.238799e-01 -3.826827e-01 0.000000e+00
    outer loop
      vertex 2.280000e+01 -7.500000e-01 0.000000e+00
      vertex 2.332721e+01 5.227919e-01 3.000000e+00
      vertex 2.280000e+01 -7.500000e-01 3.000000e+00
    endloop
  endfacet
  facet normal 9.238799e-01 -3.826827e-01 0.000000e+00
    outer loop
      vertex 2.332721e+01 5.227919e-01 3.000000e+00
      vertex 2.280000e+01 -7.500000e-01 0.000000e+00
      vertex 2.332721e+01 5.227919e-01 0.000000e+00
    endloop
  endfacet
  facet normal 3.826846e-01 9.238790e-01 0.000000e+00
    outer loop
      vertex 2.332721e+01 -2.022792e+00 0.000000e+00
      vertex 2.460000e+01 -2.550000e+00 3.000000e+00
      vertex 2.460000e+01 -2.550000e+00 0.000000e+00
    endloop
  endfacet
  facet normal 3.826846e-01 9.238790e-01 0.000000e+00
    outer loop
      vertex 2.460000e+01 -2.550000e+00 3.000000e+00
      vertex 2.332721e+01 -2.022792e+00 0.000000e+00
      vertex 2.332721e+01 -2.022792e+00 3.000000e+00
    endloop
  endfacet
  facet normal -6.123234e-17 1.000000e+00 0.000000e+00
    outer loop
      vertex -7.000000e+01 7.150000e+00 0.000000e+00
      vertex 7.000000e+01 7.150000e+00 3.000000e+00
      vertex 7.000000e+01 7.150000e+00 0.000000e+00
    endloop
  endfacet
  facet normal -6.123234e-17 1.000000e+00 0.000000e+00
    outer loop
      vertex 7.000000e+01 7.150000e+00 3.000000e+00
      vertex -7.000000e+01 7.150000e+00 0.000000e+00
      vertex -7.000000e+01 7.150000e+00 3.000000e+00
    endloop
  endfacet
  facet normal 6.123234e-17 -1.000000e+00 0.000000e+00
    outer loop
      vertex -7.000000e+01 -7.150000e+00 3.000000e+00
      vertex -6.428001e+01 -7.150000e+00 0.000000e+00
      vertex -6.428001e+01 -7.150000e+00 3.000000e+00
    endloop
  endfacet
  facet normal 6.123234e-17 -1.000000e+00 0.000000e+00
    outer loop
      vertex -6.428001e+01 -7.150000e+00 0.000000e+00
      vertex -7.000000e+01 -7.150000e+00 3.000000e+00
      vertex -7.000000e+01 -7.150000e+00 0.000000e+00
    endloop
  endfacet
  facet normal 6.123234e-17 -1.000000e+00 0.000000e+00
    outer loop
      vertex 6.428000e+01 -7.150000e+00 3.000000e+00
      vertex 7.000000e+01 -7.150000e+00 0.000000e+00
      vertex 7.000000e+01 -7.150000e+00 3.000000e+00
    endloop
  endfacet
  facet normal 6.123234e-17 -1.000000e+00 0.000000e+00
    outer loop
      vertex 7.000000e+01 -7.150000e+00 0.000000e+00
      vertex 6.428000e+01 -7.150000e+00 3.000000e+00
      vertex 6.428000e+01 -7.150000e+00 0.000000e+00
    endloop
  endfacet
  facet normal 6.123234e-17 -1.000000e+00 0.000000e+00
    outer loop
      vertex -6.085001e+01 -7.150000e+00 3.000000e+00
      vertex 6.084999e+01 -7.150000e+00 0.000000e+00
      vertex 6.084999e+01 -7.150000e+00 3.000000e+00
    endloop
  endfacet
  facet normal 6.123234e-17 -1.000000e+00 0.000000e+00
    outer loop
      vertex 6.084999e+01 -7.150000e+00 0.000000e+00
      vertex -6.085001e+01 -7.150000e+00 3.000000e+00
      vertex -6.085001e+01 -7.150000e+00 0.000000e+00
    endloop
  endfacet
  facet normal -1.000000e+00 -6.123234e-17 0.000000e+00
    outer loop
      vertex -7.000000e+01 7.150000e+00 0.000000e+00
      vertex -7.000000e+01 -7.150000e+00 3.000000e+00
      vertex -7.000000e+01 7.150000e+00 3.000000e+00
    endloop
  endfacet
  facet normal -1.000000e+00 -6.123234e-17 0.000000e+00
    outer loop
      vertex -7.000000e+01 -7.150000e+00 3.000000e+00
      vertex -7.000000e+01 7.150000e+00 0.000000e+00
      vertex -7.000000e+01 -7.150000e+00 0.000000e+00
    endloop
  endfacet
  facet normal 1.000000e+00 6.123234e-17 0.000000e+00
    outer loop
      vertex 7.000000e+01 -7.150000e+00 0.000000e+00
      vertex 7.000000e+01 7.150000e+00 3.000000e+00
      vertex 7.000000e+01 -7.150000e+00 3.000000e+00
    endloop
  endfacet
  facet normal 1.000000e+00 6.123234e-17 0.000000e+00
    outer loop
      vertex 7.000000e+01 7.150000e+00 3.000000e+00
      vertex 7.000000e+01 -7.150000e+00 0.000000e+00
      vertex 7.000000e+01 7.150000e+00 0.000000e+00
    endloop
  endfacet
  facet normal -1.000000e+00 -6.123234e-17 0.000000e+00
    outer loop
      vertex -6.085001e+01 2.349999e+00 0.000000e+00
      vertex -6.085001e+01 -7.150000e+00 3.000000e+00
      vertex -6.085001e+01 2.349999e+00 3.000000e+00
    endloop
  endfacet
  facet normal -1.000000e+00 -6.123234e-17 0.000000e+00
    outer loop
      vertex -6.085001e+01 -7.150000e+00 3.000000e+00
      vertex -6.085001e+01 2.349999e+00 0.000000e+00
      vertex -6.085001e+01 -7.150000e+00 0.000000e+00
    endloop
  endfacet
  facet normal 1.000000e+00 6.123234e-17 0.000000e+00
    outer loop
      vertex -6.428001e+01 -7.150000e+00 0.000000e+00
      vertex -6.428001e+01 2.349999e+00 3.000000e+00
      vertex -6.428001e+01 -7.150000e+00 3.000000e+00
    endloop
  endfacet
  facet normal 1.000000e+00 6.123234e-17 0.000000e+00
    outer loop
      vertex -6.428001e+01 2.349999e+00 3.000000e+00
      vertex -6.428001e+01 -7.150000e+00 0.000000e+00
      vertex -6.428001e+01 2.349999e+00 0.000000e+00
    endloop
  endfacet
  facet normal -1.000000e+00 -6.123234e-17 0.000000e+00
    outer loop
      vertex 6.428000e+01 2.349999e+00 0.000000e+00
      vertex 6.428000e+01 -7.150000e+00 3.000000e+00
      vertex 6.428000e+01 2.349999e+00 3.000000e+00
    endloop
  endfacet
  facet normal -1.000000e+00 -6.123234e-17 0.000000e+00
    outer loop
      vertex 6.428000e+01 -7.150000e+00 3.000000e+00
      vertex 6.428000e+01 2.349999e+00 0.000000e+00
      vertex 6.428000e+01 -7.150000e+00 0.000000e+00
    endloop
  endfacet
  facet normal 1.000000e+00 6.123234e-17 0.000000e+00
    outer loop
      vertex 6.084999e+01 -7.150000e+00 0.000000e+00
      vertex 6.084999e+01 2.349999e+00 3.000000e+00
      vertex 6.084999e+01 -7.150000e+00 3.000000e+00
    endloop
  endfacet
  facet normal 1.000000e+00 6.123234e-17 0.000000e+00
    outer loop
      vertex 6.084999e+01 2.349999e+00 3.000000e+00
      vertex 6.084999e+01 -7.150000e+00 0.000000e+00
      vertex 6.084999e+01 2.349999e+00 0.000000e+00
    endloop
  endfacet
  facet normal -6.123234e-17 1.000000e+00 0.000000e+00
    outer loop
      vertex -4.150000e+01 4.350000e+00 3.000000e+00
      vertex -5.200000e+01 4.350000e+00 1.040000e+01
      vertex -4.150000e+01 4.350000e+00 1.900000e+01
    endloop
  endfacet
  facet normal -6.123234e-17 1.000000e+00 0.000000e+00
    outer loop
      vertex -4.150000e+01 4.350000e+00 3.000000e+00
      vertex -5.830000e+01 4.350000e+00 1.040000e+01
      vertex -5.200000e+01 4.350000e+00 1.040000e+01
    endloop
  endfacet
  facet normal -6.123234e-17 1.000000e+00 0.000000e+00
    outer loop
      vertex -6.880000e+01 4.350000e+00 1.900000e+01
      vertex -5.830000e+01 4.350000e+00 1.040000e+01
      vertex -6.880000e+01 4.350000e+00 3.000000e+00
    endloop
  endfacet
  facet normal -6.123234e-17 1.000000e+00 0.000000e+00
    outer loop
      vertex -6.880000e+01 4.350000e+00 3.000000e+00
      vertex -5.830000e+01 4.350000e+00 1.040000e+01
      vertex -4.150000e+01 4.350000e+00 3.000000e+00
    endloop
  endfacet
  facet normal -6.123234e-17 1.000000e+00 0.000000e+00
    outer loop
      vertex -5.200000e+01 4.350000e+00 1.510000e+01
      vertex -4.150000e+01 4.350000e+00 1.900000e+01
      vertex -5.200000e+01 4.350000e+00 1.040000e+01
    endloop
  endfacet
  facet normal -6.123234e-17 1.000000e+00 0.000000e+00
    outer loop
      vertex -5.830000e+01 4.350000e+00 1.510000e+01
      vertex -4.150000e+01 4.350000e+00 1.900000e+01
      vertex -5.200000e+01 4.350000e+00 1.510000e+01
    endloop
  endfacet
  facet normal -6.123234e-17 1.000000e+00 0.000000e+00
    outer loop
      vertex -5.830000e+01 4.350000e+00 1.510000e+01
      vertex -6.880000e+01 4.350000e+00 1.900000e+01
      vertex -4.150000e+01 4.350000e+00 1.900000e+01
    endloop
  endfacet
  facet normal -6.123234e-17 1.000000e+00 0.000000e+00
    outer loop
      vertex -5.830000e+01 4.350000e+00 1.040000e+01
      vertex -6.880000e+01 4.350000e+00 1.900000e+01
      vertex -5.830000e+01 4.350000e+00 1.510000e+01
    endloop
  endfacet
  facet normal 0.000000e+00 0.000000e+00 1.000000e+00
    outer loop
      vertex -4.150000e+01 -6.350000e+00 1.900000e+01
      vertex -4.350000e+01 2.349999e+00 1.900000e+01
      vertex -4.350000e+01 -6.350000e+00 1.900000e+01
    endloop
  endfacet
  facet normal 0.000000e+00 0.000000e+00 1.000000e+00
    outer loop
      vertex -4.350000e+01 2.349999e+00 1.900000e+01
      vertex -4.150000e+01 4.350000e+00 1.900000e+01
      vertex -6.680000e+01 2.349999e+00 1.900000e+01
    endloop
  endfacet
  facet normal 0.000000e+00 0.000000e+00 1.000000e+00
    outer loop
      vertex -4.150000e+01 4.350000e+00 1.900000e+01
      vertex -4.350000e+01 2.349999e+00 1.900000e+01
      vertex -4.150000e+01 -6.350000e+00 1.900000e+01
    endloop
  endfacet
  facet normal 0.000000e+00 0.000000e+00 1.000000e+00
    outer loop
      vertex -6.680000e+01 2.349999e+00 1.900000e+01
      vertex -6.880000e+01 -6.350000e+00 1.900000e+01
      vertex -6.680000e+01 -6.350000e+00 1.900000e+01
    endloop
  endfacet
  facet normal 0.000000e+00 0.000000e+00 1.000000e+00
    outer loop
      vertex -6.680000e+01 2.349999e+00 1.900000e+01
      vertex -6.880000e+01 4.350000e+00 1.900000e+01
      vertex -6.880000e+01 -6.350000e+00 1.900000e+01
    endloop
  endfacet
  facet normal 0.000000e+00 0.000000e+00 1.000000e+00
    outer loop
      vertex -6.880000e+01 4.350000e+00 1.900000e+01
      vertex -6.680000e+01 2.349999e+00 1.900000e+01
      vertex -4.150000e+01 4.350000e+00 1.900000e+01
    endloop
  endfacet
  facet normal 6.123234e-17 -1.000000e+00 0.000000e+00
    outer loop
      vertex -6.880000e+01 -6.350000e+00 1.900000e+01
      vertex -6.680000e+01 -6.350000e+00 3.000000e+00
      vertex -6.680000e+01 -6.350000e+00 1.900000e+01
    endloop
  endfacet
  facet normal 6.123234e-17 -1.000000e+00 0.000000e+00
    outer loop
      vertex -6.680000e+01 -6.350000e+00 3.000000e+00
      vertex -6.880000e+01 -6.350000e+00 1.900000e+01
      vertex -6.880000e+01 -6.350000e+00 3.000000e+00
    endloop
  endfacet
  facet normal 6.123234e-17 -1.000000e+00 0.000000e+00
    outer loop
      vertex -4.350000e+01 -6.350000e+00 1.900000e+01
      vertex -4.150000e+01 -6.350000e+00 3.000000e+00
      vertex -4.150000e+01 -6.350000e+00 1.900000e+01
    endloop
  endfacet
  facet normal 6.123234e-17 -1.000000e+00 0.000000e+00
    outer loop
      vertex -4.150000e+01 -6.350000e+00 3.000000e+00
      vertex -4.350000e+01 -6.350000e+00 1.900000e+01
      vertex -4.350000e+01 -6.350000e+00 3.000000e+00
    endloop
  endfacet
  facet normal -1.000000e+00 -6.123234e-17 0.000000e+00
    outer loop
      vertex -6.880000e+01 4.350000e+00 3.000000e+00
      vertex -6.880000e+01 -6.350000e+00 1.900000e+01
      vertex -6.880000e+01 4.350000e+00 1.900000e+01
    endloop
  endfacet
  facet normal -1.000000e+00 -6.123234e-17 0.000000e+00
    outer loop
      vertex -6.880000e+01 -6.350000e+00 1.900000e+01
      vertex -6.880000e+01 4.350000e+00 3.000000e+00
      vertex -6.880000e+01 -6.350000e+00 3.000000e+00
    endloop
  endfacet
  facet normal 1.000000e+00 6.123234e-17 0.000000e+00
    outer loop
      vertex -4.150000e+01 -6.350000e+00 3.000000e+00
      vertex -4.150000e+01 4.350000e+00 1.900000e+01
      vertex -4.150000e+01 -6.350000e+00 1.900000e+01
    endloop
  endfacet
  facet normal 1.000000e+00 6.123234e-17 0.000000e+00
    outer loop
      vertex -4.150000e+01 4.350000e+00 1.900000e+01
      vertex -4.150000e+01 -6.350000e+00 3.000000e+00
      vertex -4.150000e+01 4.350000e+00 3.000000e+00
    endloop
  endfacet
  facet normal 1.000000e+00 6.123234e-17 0.000000e+00
    outer loop
      vertex -5.200000e+01 4.350000e+00 1.040000e+01
      vertex -5.200000e+01 6.049997e+00 1.040000e+01
      vertex -5.200000e+01 4.350000e+00 1.510000e+01
    endloop
  endfacet
  facet normal -5.758145e-17 9.403763e-01 3.401357e-01
    outer loop
      vertex -5.830000e+01 6.049997e+00 1.040000e+01
      vertex -5.200000e+01 4.350000e+00 1.510000e+01
      vertex -5.200000e+01 6.049997e+00 1.040000e+01
    endloop
  endfacet
  facet normal -5.758145e-17 9.403763e-01 3.401357e-01
    outer loop
      vertex -5.200000e+01 4.350000e+00 1.510000e+01
      vertex -5.830000e+01 6.049997e+00 1.040000e+01
      vertex -5.830000e+01 4.350000e+00 1.510000e+01
    endloop
  endfacet
  facet normal 0.000000e+00 0.000000e+00 -1.000000e+00
    outer loop
      vertex -5.830000e+01 6.049997e+00 1.040000e+01
      vertex -5.200000e+01 4.350000e+00 1.040000e+01
      vertex -5.830000e+01 4.350000e+00 1.040000e+01
    endloop
  endfacet
  facet normal 0.000000e+00 0.000000e+00 -1.000000e+00
    outer loop
      vertex -5.200000e+01 4.350000e+00 1.040000e+01
      vertex -5.830000e+01 6.049997e+00 1.040000e+01
      vertex -5.200000e+01 6.049997e+00 1.040000e+01
    endloop
  endfacet
  facet normal -1.000000e+00 -6.123234e-17 0.000000e+00
    outer loop
      vertex -5.830000e+01 4.350000e+00 1.510000e+01
      vertex -5.830000e+01 6.049997e+00 1.040000e+01
      vertex -5.830000e+01 4.350000e+00 1.040000e+01
    endloop
  endfacet
  facet normal 6.123234e-17 -1.000000e+00 0.000000e+00
    outer loop
      vertex -4.350000e+01 2.349999e+00 1.900000e+01
      vertex -6.085001e+01 2.349999e+00 3.000000e+00
      vertex -4.350000e+01 2.349999e+00 3.000000e+00
    endloop
  endfacet
  facet normal 6.123234e-17 -1.000000e+00 0.000000e+00
    outer loop
      vertex -6.085001e+01 2.349999e+00 3.000000e+00
      vertex -6.428001e+01 2.349999e+00 3.000000e+00
      vertex -6.085001e+01 2.349999e+00 0.000000e+00
    endloop
  endfacet
  facet normal 6.123234e-17 -1.000000e+00 0.000000e+00
    outer loop
      vertex -6.680000e+01 2.349999e+00 1.900000e+01
      vertex -6.085001e+01 2.349999e+00 3.000000e+00
      vertex -4.350000e+01 2.349999e+00 1.900000e+01
    endloop
  endfacet
  facet normal 6.123234e-17 -1.000000e+00 0.000000e+00
    outer loop
      vertex -6.085001e+01 2.349999e+00 3.000000e+00
      vertex -6.680000e+01 2.349999e+00 1.900000e+01
      vertex -6.428001e+01 2.349999e+00 3.000000e+00
    endloop
  endfacet
  facet normal 6.123234e-17 -1.000000e+00 0.000000e+00
    outer loop
      vertex -6.428001e+01 2.349999e+00 3.000000e+00
      vertex -6.680000e+01 2.349999e+00 1.900000e+01
      vertex -6.680000e+01 2.349999e+00 3.000000e+00
    endloop
  endfacet
  facet normal 6.123234e-17 -1.000000e+00 0.000000e+00
    outer loop
      vertex -6.085001e+01 2.349999e+00 0.000000e+00
      vertex -6.428001e+01 2.349999e+00 3.000000e+00
      vertex -6.428001e+01 2.349999e+00 0.000000e+00
    endloop
  endfacet
  facet normal 1.000000e+00 6.123234e-17 0.000000e+00
    outer loop
      vertex -6.680000e+01 -6.350000e+00 3.000000e+00
      vertex -6.680000e+01 2.349999e+00 1.900000e+01
      vertex -6.680000e+01 -6.350000e+00 1.900000e+01
    endloop
  endfacet
  facet normal 1.000000e+00 6.123234e-17 0.000000e+00
    outer loop
      vertex -6.680000e+01 2.349999e+00 1.900000e+01
      vertex -6.680000e+01 -6.350000e+00 3.000000e+00
      vertex -6.680000e+01 2.349999e+00 3.000000e+00
    endloop
  endfacet
  facet normal -1.000000e+00 -6.123234e-17 0.000000e+00
    outer loop
      vertex -4.350000e+01 2.349999e+00 3.000000e+00
      vertex -4.350000e+01 -6.350000e+00 1.900000e+01
      vertex -4.350000e+01 2.349999e+00 1.900000e+01
    endloop
  endfacet
  facet normal -1.000000e+00 -6.123234e-17 0.000000e+00
    outer loop
      vertex -4.350000e+01 -6.350000e+00 1.900000e+01
      vertex -4.350000e+01 2.349999e+00 3.000000e+00
      vertex -4.350000e+01 -6.350000e+00 3.000000e+00
    endloop
  endfacet
  facet normal -6.123234e-17 1.000000e+00 0.000000e+00
    outer loop
      vertex -1.120000e+01 4.350000e+00 3.000000e+00
      vertex -2.170000e+01 4.350000e+00 1.040000e+01
      vertex -1.120000e+01 4.350000e+00 1.900000e+01
    endloop
  endfacet
  facet normal -6.123234e-17 1.000000e+00 0.000000e+00
    outer loop
      vertex -1.120000e+01 4.350000e+00 3.000000e+00
      vertex -2.800000e+01 4.350000e+00 1.040000e+01
      vertex -2.170000e+01 4.350000e+00 1.040000e+01
    endloop
  endfacet
  facet normal -6.123234e-17 1.000000e+00 0.000000e+00
    outer loop
      vertex -3.850000e+01 4.350000e+00 1.900000e+01
      vertex -2.800000e+01 4.350000e+00 1.040000e+01
      vertex -3.850000e+01 4.350000e+00 3.000000e+00
    endloop
  endfacet
  facet normal -6.123234e-17 1.000000e+00 0.000000e+00
    outer loop
      vertex -3.850000e+01 4.350000e+00 3.000000e+00
      vertex -2.800000e+01 4.350000e+00 1.040000e+01
      vertex -1.120000e+01 4.350000e+00 3.000000e+00
    endloop
  endfacet
  facet normal -6.123234e-17 1.000000e+00 0.000000e+00
    outer loop
      vertex -2.170000e+01 4.350000e+00 1.510000e+01
      vertex -1.120000e+01 4.350000e+00 1.900000e+01
      vertex -2.170000e+01 4.350000e+00 1.040000e+01
    endloop
  endfacet
  facet normal -6.123234e-17 1.000000e+00 0.000000e+00
    outer loop
      vertex -2.800000e+01 4.350000e+00 1.510000e+01
      vertex -1.120000e+01 4.350000e+00 1.900000e+01
      vertex -2.170000e+01 4.350000e+00 1.510000e+01
    endloop
  endfacet
  facet normal -6.123234e-17 1.000000e+00 0.000000e+00
    outer loop
      vertex -2.800000e+01 4.350000e+00 1.510000e+01
      vertex -3.850000e+01 4.350000e+00 1.900000e+01
      vertex -1.120000e+01 4.350000e+00 1.900000e+01
    endloop
  endfacet
  facet normal -6.123234e-17 1.000000e+00 0.000000e+00
    outer loop
      vertex -2.800000e+01 4.350000e+00 1.040000e+01
      vertex -3.850000e+01 4.350000e+00 1.900000e+01
      vertex -2.800000e+01 4.350000e+00 1.510000e+01
    endloop
  endfacet
  facet normal 0.000000e+00 0.000000e+00 1.000000e+00
    outer loop
      vertex -1.120000e+01 -6.350000e+00 1.900000e+01
      vertex -1.320000e+01 2.349999e+00 1.900000e+01
      vertex -1.320000e+01 -6.350000e+00 1.900000e+01
    endloop
  endfacet
  facet normal 0.000000e+00 0.000000e+00 1.000000e+00
    outer loop
      vertex -1.320000e+01 2.349999e+00 1.900000e+01
      vertex -1.120000e+01 4.350000e+00 1.900000e+01
      vertex -3.650000e+01 2.349999e+00 1.900000e+01
    endloop
  endfacet
  facet normal 0.000000e+00 0.000000e+00 1.000000e+00
    outer loop
      vertex -1.120000e+01 4.350000e+00 1.900000e+01
      vertex -1.320000e+01 2.349999e+00 1.900000e+01
      vertex -1.120000e+01 -6.350000e+00 1.900000e+01
    endloop
  endfacet
  facet normal 0.000000e+00 0.000000e+00 1.000000e+00
    outer loop
      vertex -3.650000e+01 2.349999e+00 1.900000e+01
      vertex -3.850000e+01 -6.350000e+00 1.900000e+01
      vertex -3.650000e+01 -6.350000e+00 1.900000e+01
    endloop
  endfacet
  facet normal 0.000000e+00 0.000000e+00 1.000000e+00
    outer loop
      vertex -3.650000e+01 2.349999e+00 1.900000e+01
      vertex -3.850000e+01 4.350000e+00 1.900000e+01
      vertex -3.850000e+01 -6.350000e+00 1.900000e+01
    endloop
  endfacet
  facet normal 0.000000e+00 0.000000e+00 1.000000e+00
    outer loop
      vertex -3.850000e+01 4.350000e+00 1.900000e+01
      vertex -3.650000e+01 2.349999e+00 1.900000e+01
      vertex -1.120000e+01 4.350000e+00 1.900000e+01
    endloop
  endfacet
  facet normal 6.123234e-17 -1.000000e+00 0.000000e+00
    outer loop
      vertex -3.850000e+01 -6.350000e+00 1.900000e+01
      vertex -3.650000e+01 -6.350000e+00 3.000000e+00
      vertex -3.650000e+01 -6.350000e+00 1.900000e+01
    endloop
  endfacet
  facet normal 6.123234e-17 -1.000000e+00 0.000000e+00
    outer loop
      vertex -3.650000e+01 -6.350000e+00 3.000000e+00
      vertex -3.850000e+01 -6.350000e+00 1.900000e+01
      vertex -3.850000e+01 -6.350000e+00 3.000000e+00
    endloop
  endfacet
  facet normal 6.123234e-17 -1.000000e+00 0.000000e+00
    outer loop
      vertex -1.320000e+01 -6.350000e+00 1.900000e+01
      vertex -1.120000e+01 -6.350000e+00 3.000000e+00
      vertex -1.120000e+01 -6.350000e+00 1.900000e+01
    endloop
  endfacet
  facet normal 6.123234e-17 -1.000000e+00 0.000000e+00
    outer loop
      vertex -1.120000e+01 -6.350000e+00 3.000000e+00
      vertex -1.320000e+01 -6.350000e+00 1.900000e+01
      vertex -1.320000e+01 -6.350000e+00 3.000000e+00
    endloop
  endfacet
  facet normal -1.000000e+00 -6.123234e-17 0.000000e+00
    outer loop
      vertex -3.850000e+01 4.350000e+00 3.000000e+00
      vertex -3.850000e+01 -6.350000e+00 1.900000e+01
      vertex -3.850000e+01 4.350000e+00 1.900000e+01
    endloop
  endfacet
  facet normal -1.000000e+00 -6.123234e-17 0.000000e+00
    outer loop
      vertex -3.850000e+01 -6.350000e+00 1.900000e+01
      vertex -3.850000e+01 4.350000e+00 3.000000e+00
      vertex -3.850000e+01 -6.350000e+00 3.000000e+00
    endloop
  endfacet
  facet normal 1.000000e+00 6.123234e-17 0.000000e+00
    outer loop
      vertex -1.120000e+01 -6.350000e+00 3.000000e+00
      vertex -1.120000e+01 4.350000e+00 1.900000e+01
      vertex -1.120000e+01 -6.350000e+00 1.900000e+01
    endloop
  endfacet
  facet normal 1.000000e+00 6.123234e-17 0.000000e+00
    outer loop
      vertex -1.120000e+01 4.350000e+00 1.900000e+01
      vertex -1.120000e+01 -6.350000e+00 3.000000e+00
      vertex -1.120000e+01 4.350000e+00 3.000000e+00
    endloop
  endfacet
  facet normal 1.000000e+00 6.123234e-17 0.000000e+00
    outer loop
      vertex -2.170000e+01 4.350000e+00 1.040000e+01
      vertex -2.170000e+01 6.049997e+00 1.040000e+01
      vertex -2.170000e+01 4.350000e+00 1.510000e+01
    endloop
  endfacet
  facet normal -5.758145e-17 9.403763e-01 3.401357e-01
    outer loop
      vertex -2.800000e+01 6.049997e+00 1.040000e+01
      vertex -2.170000e+01 4.350000e+00 1.510000e+01
      vertex -2.170000e+01 6.049997e+00 1.040000e+01
    endloop
  endfacet
  facet normal -5.758145e-17 9.403763e-01 3.401357e-01
    outer loop
      vertex -2.170000e+01 4.350000e+00 1.510000e+01
      vertex -2.800000e+01 6.049997e+00 1.040000e+01
      vertex -2.800000e+01 4.350000e+00 1.510000e+01
    endloop
  endfacet
  facet normal 0.000000e+00 0.000000e+00 -1.000000e+00
    outer loop
      vertex -2.800000e+01 6.049997e+00 1.040000e+01
      vertex -2.170000e+01 4.350000e+00 1.040000e+01
      vertex -2.800000e+01 4.350000e+00 1.040000e+01
    endloop
  endfacet
  facet normal 0.000000e+00 0.000000e+00 -1.000000e+00
    outer loop
      vertex -2.170000e+01 4.350000e+00 1.040000e+01
      vertex -2.800000e+01 6.049997e+00 1.040000e+01
      vertex -2.170000e+01 6.049997e+00 1.040000e+01
    endloop
  endfacet
  facet normal -1.000000e+00 -6.123234e-17 0.000000e+00
    outer loop
      vertex -2.800000e+01 4.350000e+00 1.510000e+01
      vertex -2.800000e+01 6.049997e+00 1.040000e+01
      vertex -2.800000e+01 4.350000e+00 1.040000e+01
    endloop
  endfacet
  facet normal 6.123234e-17 -1.000000e+00 0.000000e+00
    outer loop
      vertex -3.650000e+01 2.349999e+00 1.900000e+01
      vertex -1.320000e+01 2.349999e+00 3.000000e+00
      vertex -1.320000e+01 2.349999e+00 1.900000e+01
    endloop
  endfacet
  facet normal 6.123234e-17 -1.000000e+00 0.000000e+00
    outer loop
      vertex -1.320000e+01 2.349999e+00 3.000000e+00
      vertex -3.650000e+01 2.349999e+00 1.900000e+01
      vertex -3.650000e+01 2.349999e+00 3.000000e+00
    endloop
  endfacet
  facet normal 1.000000e+00 6.123234e-17 0.000000e+00
    outer loop
      vertex -3.650000e+01 -6.350000e+00 3.000000e+00
      vertex -3.650000e+01 2.349999e+00 1.900000e+01
      vertex -3.650000e+01 -6.350000e+00 1.900000e+01
    endloop
  endfacet
  facet normal 1.000000e+00 6.123234e-17 0.000000e+00
    outer loop
      vertex -3.650000e+01 2.349999e+00 1.900000e+01
      vertex -3.650000e+01 -6.350000e+00 3.000000e+00
      vertex -3.650000e+01 2.349999e+00 3.000000e+00
    endloop
  endfacet
  facet normal -1.000000e+00 -6.123234e-17 0.000000e+00
    outer loop
      vertex -1.320000e+01 2.349999e+00 3.000000e+00
      vertex -1.320000e+01 -6.350000e+00 1.900000e+01
      vertex -1.320000e+01 2.349999e+00 1.900000e+01
    endloop
  endfacet
  facet normal -1.000000e+00 -6.123234e-17 0.000000e+00
    outer loop
      vertex -1.320000e+01 -6.350000e+00 1.900000e+01
      vertex -1.320000e+01 2.349999e+00 3.000000e+00
      vertex -1.320000e+01 -6.350000e+00 3.000000e+00
    endloop
  endfacet
  facet normal -6.123234e-17 1.000000e+00 0.000000e+00
    outer loop
      vertex 3.850000e+01 4.350000e+00 3.000000e+00
      vertex 2.800000e+01 4.350000e+00 1.040000e+01
      vertex 3.850000e+01 4.350000e+00 1.900000e+01
    endloop
  endfacet
  facet normal -6.123234e-17 1.000000e+00 0.000000e+00
    outer loop
      vertex 3.850000e+01 4.350000e+00 3.000000e+00
      vertex 2.170000e+01 4.350000e+00 1.040000e+01
      vertex 2.800000e+01 4.350000e+00 1.040000e+01
    endloop
  endfacet
  facet normal -6.123234e-17 1.000000e+00 0.000000e+00
    outer loop
      vertex 1.120000e+01 4.350000e+00 1.900000e+01
      vertex 2.170000e+01 4.350000e+00 1.040000e+01
      vertex 1.120000e+01 4.350000e+00 3.000000e+00
    endloop
  endfacet
  facet normal -6.123234e-17 1.000000e+00 0.000000e+00
    outer loop
      vertex 1.120000e+01 4.350000e+00 3.000000e+00
      vertex 2.170000e+01 4.350000e+00 1.040000e+01
      vertex 3.850000e+01 4.350000e+00 3.000000e+00
    endloop
  endfacet
  facet normal -6.123234e-17 1.000000e+00 0.000000e+00
    outer loop
      vertex 2.800000e+01 4.350000e+00 1.510000e+01
      vertex 3.850000e+01 4.350000e+00 1.900000e+01
      vertex 2.800000e+01 4.350000e+00 1.040000e+01
    endloop
  endfacet
  facet normal -6.123234e-17 1.000000e+00 0.000000e+00
    outer loop
      vertex 2.170000e+01 4.350000e+00 1.510000e+01
      vertex 3.850000e+01 4.350000e+00 1.900000e+01
      vertex 2.800000e+01 4.350000e+00 1.510000e+01
    endloop
  endfacet
  facet normal -6.123234e-17 1.000000e+00 0.000000e+00
    outer loop
      vertex 2.170000e+01 4.350000e+00 1.510000e+01
      vertex 1.120000e+01 4.350000e+00 1.900000e+01
      vertex 3.850000e+01 4.350000e+00 1.900000e+01
    endloop
  endfacet
  facet normal -6.123234e-17 1.000000e+00 0.000000e+00
    outer loop
      vertex 2.170000e+01 4.350000e+00 1.040000e+01
      vertex 1.120000e+01 4.350000e+00 1.900000e+01
      vertex 2.170000e+01 4.350000e+00 1.510000e+01
    endloop
  endfacet
  facet normal 0.000000e+00 0.000000e+00 1.000000e+00
    outer loop
      vertex 3.850000e+01 -6.350000e+00 1.900000e+01
      vertex 3.650000e+01 2.349999e+00 1.900000e+01
      vertex 3.650000e+01 -6.350000e+00 1.900000e+01
    endloop
  endfacet
  facet normal 0.000000e+00 0.000000e+00 1.000000e+00
    outer loop
      vertex 3.650000e+01 2.349999e+00 1.900000e+01
      vertex 3.850000e+01 4.350000e+00 1.900000e+01
      vertex 1.320000e+01 2.349999e+00 1.900000e+01
    endloop
  endfacet
  facet normal 0.000000e+00 0.000000e+00 1.000000e+00
    outer loop
      vertex 3.850000e+01 4.350000e+00 1.900000e+01
      vertex 3.650000e+01 2.349999e+00 1.900000e+01
      vertex 3.850000e+01 -6.350000e+00 1.900000e+01
    endloop
  endfacet
  facet normal 0.000000e+00 0.000000e+00 1.000000e+00
    outer loop
      vertex 1.320000e+01 2.349999e+00 1.900000e+01
      vertex 1.120000e+01 -6.350000e+00 1.900000e+01
      vertex 1.320000e+01 -6.350000e+00 1.900000e+01
    endloop
  endfacet
  facet normal 0.000000e+00 0.000000e+00 1.000000e+00
    outer loop
      vertex 1.320000e+01 2.349999e+00 1.900000e+01
      vertex 1.120000e+01 4.350000e+00 1.900000e+01
      vertex 1.120000e+01 -6.350000e+00 1.900000e+01
    endloop
  endfacet
  facet normal 0.000000e+00 0.000000e+00 1.000000e+00
    outer loop
      vertex 1.120000e+01 4.350000e+00 1.900000e+01
      vertex 1.320000e+01 2.349999e+00 1.900000e+01
      vertex 3.850000e+01 4.350000e+00 1.900000e+01
    endloop
  endfacet
  facet normal 6.123234e-17 -1.000000e+00 0.000000e+00
    outer loop
      vertex 1.120000e+01 -6.350000e+00 1.900000e+01
      vertex 1.320000e+01 -6.350000e+00 3.000000e+00
      vertex 1.320000e+01 -6.350000e+00 1.900000e+01
    endloop
  endfacet
  facet normal 6.123234e-17 -1.000000e+00 0.000000e+00
    outer loop
      vertex 1.320000e+01 -6.350000e+00 3.000000e+00
      vertex 1.120000e+01 -6.350000e+00 1.900000e+01
      vertex 1.120000e+01 -6.350000e+00 3.000000e+00
    endloop
  endfacet
  facet normal 6.123234e-17 -1.000000e+00 0.000000e+00
    outer loop
      vertex 3.650000e+01 -6.350000e+00 1.900000e+01
      vertex 3.850000e+01 -6.350000e+00 3.000000e+00
      vertex 3.850000e+01 -6.350000e+00 1.900000e+01
    endloop
  endfacet
  facet normal 6.123234e-17 -1.000000e+00 0.000000e+00
    outer loop
      vertex 3.850000e+01 -6.350000e+00 3.000000e+00
      vertex 3.650000e+01 -6.350000e+00 1.900000e+01
      vertex 3.650000e+01 -6.350000e+00 3.000000e+00
    endloop
  endfacet
  facet normal -1.000000e+00 -6.123234e-17 0.000000e+00
    outer loop
      vertex 1.120000e+01 4.350000e+00 3.000000e+00
      vertex 1.120000e+01 -6.350000e+00 1.900000e+01
      vertex 1.120000e+01 4.350000e+00 1.900000e+01
    endloop
  endfacet
  facet normal -1.000000e+00 -6.123234e-17 0.000000e+00
    outer loop
      vertex 1.120000e+01 -6.350000e+00 1.900000e+01
      vertex 1.120000e+01 4.350000e+00 3.000000e+00
      vertex 1.120000e+01 -6.350000e+00 3.000000e+00
    endloop
  endfacet
  facet normal 1.000000e+00 6.123234e-17 0.000000e+00
    outer loop
      vertex 3.850000e+01 -6.350000e+00 3.000000e+00
      vertex 3.850000e+01 4.350000e+00 1.900000e+01
      vertex 3.850000e+01 -6.350000e+00 1.900000e+01
    endloop
  endfacet
  facet normal 1.000000e+00 6.123234e-17 0.000000e+00
    outer loop
      vertex 3.850000e+01 4.350000e+00 1.900000e+01
      vertex 3.850000e+01 -6.350000e+00 3.000000e+00
      vertex 3.850000e+01 4.350000e+00 3.000000e+00
    endloop
  endfacet
  facet normal 1.000000e+00 6.123234e-17 0.000000e+00
    outer loop
      vertex 2.800000e+01 4.350000e+00 1.040000e+01
      vertex 2.800000e+01 6.049997e+00 1.040000e+01
      vertex 2.800000e+01 4.350000e+00 1.510000e+01
    endloop
  endfacet
  facet normal -5.758144e-17 9.403763e-01 3.401357e-01
    outer loop
      vertex 2.170000e+01 6.049997e+00 1.040000e+01
      vertex 2.800000e+01 4.350000e+00 1.510000e+01
      vertex 2.800000e+01 6.049997e+00 1.040000e+01
    endloop
  endfacet
  facet normal -5.758144e-17 9.403763e-01 3.401357e-01
    outer loop
      vertex 2.800000e+01 4.350000e+00 1.510000e+01
      vertex 2.170000e+01 6.049997e+00 1.040000e+01
      vertex 2.170000e+01 4.350000e+00 1.510000e+01
    endloop
  endfacet
  facet normal 0.000000e+00 0.000000e+00 -1.000000e+00
    outer loop
      vertex 2.170000e+01 6.049997e+00 1.040000e+01
      vertex 2.800000e+01 4.350000e+00 1.040000e+01
      vertex 2.170000e+01 4.350000e+00 1.040000e+01
    endloop
  endfacet
  facet normal 0.000000e+00 0.000000e+00 -1.000000e+00
    outer loop
      vertex 2.800000e+01 4.350000e+00 1.040000e+01
      vertex 2.170000e+01 6.049997e+00 1.040000e+01
      vertex 2.800000e+01 6.049997e+00 1.040000e+01
    endloop
  endfacet
  facet normal -1.000000e+00 -6.123234e-17 0.000000e+00
    outer loop
      vertex 2.170000e+01 4.350000e+00 1.510000e+01
      vertex 2.170000e+01 6.049997e+00 1.040000e+01
      vertex 2.170000e+01 4.350000e+00 1.040000e+01
    endloop
  endfacet
  facet normal 6.123234e-17 -1.000000e+00 0.000000e+00
    outer loop
      vertex 1.320000e+01 2.349999e+00 1.900000e+01
      vertex 3.650000e+01 2.349999e+00 3.000000e+00
      vertex 3.650000e+01 2.349999e+00 1.900000e+01
    endloop
  endfacet
  facet normal 6.123234e-17 -1.000000e+00 0.000000e+00
    outer loop
      vertex 3.650000e+01 2.349999e+00 3.000000e+00
      vertex 1.320000e+01 2.349999e+00 1.900000e+01
      vertex 1.320000e+01 2.349999e+00 3.000000e+00
    endloop
  endfacet
  facet normal 1.000000e+00 6.123234e-17 0.000000e+00
    outer loop
      vertex 1.320000e+01 -6.350000e+00 3.000000e+00
      vertex 1.320000e+01 2.349999e+00 1.900000e+01
      vertex 1.320000e+01 -6.350000e+00 1.900000e+01
    endloop
  endfacet
  facet normal 1.000000e+00 6.123234e-17 0.000000e+00
    outer loop
      vertex 1.320000e+01 2.349999e+00 1.900000e+01
      vertex 1.320000e+01 -6.350000e+00 3.000000e+00
      vertex 1.320000e+01 2.349999e+00 3.000000e+00
    endloop
  endfacet
  facet normal -1.000000e+00 -6.123234e-17 0.000000e+00
    outer loop
      vertex 3.650000e+01 2.349999e+00 3.000000e+00
      vertex 3.650000e+01 -6.350000e+00 1.900000e+01
      vertex 3.650000e+01 2.349999e+00 1.900000e+01
    endloop
  endfacet
  facet normal -1.000000e+00 -6.123234e-17 0.000000e+00
    outer loop
      vertex 3.650000e+01 -6.350000e+00 1.900000e+01
      vertex 3.650000e+01 2.349999e+00 3.000000e+00
      vertex 3.650000e+01 -6.350000e+00 3.000000e+00
    endloop
  endfacet
  facet normal -6.123234e-17 1.000000e+00 0.000000e+00
    outer loop
      vertex 6.880000e+01 4.350000e+00 3.000000e+00
      vertex 5.830000e+01 4.350000e+00 1.040000e+01
      vertex 6.880000e+01 4.350000e+00 1.900000e+01
    endloop
  endfacet
  facet normal -6.123234e-17 1.000000e+00 0.000000e+00
    outer loop
      vertex 6.880000e+01 4.350000e+00 3.000000e+00
      vertex 5.200000e+01 4.350000e+00 1.040000e+01
      vertex 5.830000e+01 4.350000e+00 1.040000e+01
    endloop
  endfacet
  facet normal -6.123234e-17 1.000000e+00 0.000000e+00
    outer loop
      vertex 4.150000e+01 4.350000e+00 1.900000e+01
      vertex 5.200000e+01 4.350000e+00 1.040000e+01
      vertex 4.150000e+01 4.350000e+00 3.000000e+00
    endloop
  endfacet
  facet normal -6.123234e-17 1.000000e+00 0.000000e+00
    outer loop
      vertex 4.150000e+01 4.350000e+00 3.000000e+00
      vertex 5.200000e+01 4.350000e+00 1.040000e+01
      vertex 6.880000e+01 4.350000e+00 3.000000e+00
    endloop
  endfacet
  facet normal -6.123234e-17 1.000000e+00 0.000000e+00
    outer loop
      vertex 5.830000e+01 4.350000e+00 1.510000e+01
      vertex 6.880000e+01 4.350000e+00 1.900000e+01
      vertex 5.830000e+01 4.350000e+00 1.040000e+01
    endloop
  endfacet
  facet normal -6.123234e-17 1.000000e+00 0.000000e+00
    outer loop
      vertex 5.200000e+01 4.350000e+00 1.510000e+01
      vertex 6.880000e+01 4.350000e+00 1.900000e+01
      vertex 5.830000e+01 4.350000e+00 1.510000e+01
    endloop
  endfacet
  facet normal -6.123234e-17 1.000000e+00 0.000000e+00
    outer loop
      vertex 5.200000e+01 4.350000e+00 1.510000e+01
      vertex 4.150000e+01 4.350000e+00 1.900000e+01
      vertex 6.880000e+01 4.350000e+00 1.900000e+01
    endloop
  endfacet
  facet normal -6.123234e-17 1.000000e+00 0.000000e+00
    outer loop
      vertex 5.200000e+01 4.350000e+00 1.040000e+01
      vertex 4.150000e+01 4.350000e+00 1.900000e+01
      vertex 5.200000e+01 4.350000e+00 1.510000e+01
    endloop
  endfacet
  facet normal 0.000000e+00 0.000000e+00 1.000000e+00
    outer loop
      vertex 6.880000e+01 -6.350000e+00 1.900000e+01
      vertex 6.680000e+01 2.349999e+00 1.900000e+01
      vertex 6.680000e+01 -6.350000e+00 1.900000e+01
    endloop
  endfacet
  facet normal 0.000000e+00 0.000000e+00 1.000000e+00
    outer loop
      vertex 6.680000e+01 2.349999e+00 1.900000e+01
      vertex 6.880000e+01 4.350000e+00 1.900000e+01
      vertex 4.350000e+01 2.349999e+00 1.900000e+01
    endloop
  endfacet
  facet normal 0.000000e+00 0.000000e+00 1.000000e+00
    outer loop
      vertex 6.880000e+01 4.350000e+00 1.900000e+01
      vertex 6.680000e+01 2.349999e+00 1.900000e+01
      vertex 6.880000e+01 -6.350000e+00 1.900000e+01
    endloop
  endfacet
  facet normal 0.000000e+00 0.000000e+00 1.000000e+00
    outer loop
      vertex 4.350000e+01 2.349999e+00 1.900000e+01
      vertex 4.150000e+01 -6.350000e+00 1.900000e+01
      vertex 4.350000e+01 -6.350000e+00 1.900000e+01
    endloop
  endfacet
  facet normal 0.000000e+00 0.000000e+00 1.000000e+00
    outer loop
      vertex 4.350000e+01 2.349999e+00 1.900000e+01
      vertex 4.150000e+01 4.350000e+00 1.900000e+01
      vertex 4.150000e+01 -6.350000e+00 1.900000e+01
    endloop
  endfacet
  facet normal 0.000000e+00 0.000000e+00 1.000000e+00
    outer loop
      vertex 4.150000e+01 4.350000e+00 1.900000e+01
      vertex 4.350000e+01 2.349999e+00 1.900000e+01
      vertex 6.880000e+01 4.350000e+00 1.900000e+01
    endloop
  endfacet
  facet normal 6.123234e-17 -1.000000e+00 0.000000e+00
    outer loop
      vertex 4.150000e+01 -6.350000e+00 1.900000e+01
      vertex 4.350000e+01 -6.350000e+00 3.000000e+00
      vertex 4.350000e+01 -6.350000e+00 1.900000e+01
    endloop
  endfacet
  facet normal 6.123234e-17 -1.000000e+00 0.000000e+00
    outer loop
      vertex 4.350000e+01 -6.350000e+00 3.000000e+00
      vertex 4.150000e+01 -6.350000e+00 1.900000e+01
      vertex 4.150000e+01 -6.350000e+00 3.000000e+00
    endloop
  endfacet
  facet normal 6.123234e-17 -1.000000e+00 0.000000e+00
    outer loop
      vertex 6.680000e+01 -6.350000e+00 1.900000e+01
      vertex 6.880000e+01 -6.350000e+00 3.000000e+00
      vertex 6.880000e+01 -6.350000e+00 1.900000e+01
    endloop
  endfacet
  facet normal 6.123234e-17 -1.000000e+00 0.000000e+00
    outer loop
      vertex 6.880000e+01 -6.350000e+00 3.000000e+00
      vertex 6.680000e+01 -6.350000e+00 1.900000e+01
      vertex 6.680000e+01 -6.350000e+00 3.000000e+00
    endloop
  endfacet
  facet normal -1.000000e+00 -6.123234e-17 0.000000e+00
    outer loop
      vertex 4.150000e+01 4.350000e+00 3.000000e+00
      vertex 4.150000e+01 -6.350000e+00 1.900000e+01
      vertex 4.150000e+01 4.350000e+00 1.900000e+01
    endloop
  endfacet
  facet normal -1.000000e+00 -6.123234e-17 0.000000e+00
    outer loop
      vertex 4.150000e+01 -6.350000e+00 1.900000e+01
      vertex 4.150000e+01 4.350000e+00 3.000000e+00
      vertex 4.150000e+01 -6.350000e+00 3.000000e+00
    endloop
  endfacet
  facet normal 1.000000e+00 6.123234e-17 0.000000e+00
    outer loop
      vertex 6.880000e+01 -6.350000e+00 3.000000e+00
      vertex 6.880000e+01 4.350000e+00 1.900000e+01
      vertex 6.880000e+01 -6.350000e+00 1.900000e+01
    endloop
  endfacet
  facet normal 1.000000e+00 6.123234e-17 0.000000e+00
    outer loop
      vertex 6.880000e+01 4.350000e+00 1.900000e+01
      vertex 6.880000e+01 -6.350000e+00 3.000000e+00
      vertex 6.880000e+01 4.350000e+00 3.000000e+00
    endloop
  endfacet
  facet normal 1.000000e+00 6.123234e-17 0.000000e+00
    outer loop
      vertex 5.830000e+01 4.350000e+00 1.040000e+01
      vertex 5.830000e+01 6.049997e+00 1.040000e+01
      vertex 5.830000e+01 4.350000e+00 1.510000e+01
    endloop
  endfacet
  facet normal -5.758144e-17 9.403763e-01 3.401357e-01
    outer loop
      vertex 5.200000e+01 6.049997e+00 1.040000e+01
      vertex 5.830000e+01 4.350000e+00 1.510000e+01
      vertex 5.830000e+01 6.049997e+00 1.040000e+01
    endloop
  endfacet
  facet normal -5.758144e-17 9.403763e-01 3.401357e-01
    outer loop
      vertex 5.830000e+01 4.350000e+00 1.510000e+01
      vertex 5.200000e+01 6.049997e+00 1.040000e+01
      vertex 5.200000e+01 4.350000e+00 1.510000e+01
    endloop
  endfacet
  facet normal 0.000000e+00 0.000000e+00 -1.000000e+00
    outer loop
      vertex 5.200000e+01 6.049997e+00 1.040000e+01
      vertex 5.830000e+01 4.350000e+00 1.040000e+01
      vertex 5.200000e+01 4.350000e+00 1.040000e+01
    endloop
  endfacet
  facet normal 0.000000e+00 0.000000e+00 -1.000000e+00
    outer loop
      vertex 5.830000e+01 4.350000e+00 1.040000e+01
      vertex 5.200000e+01 6.049997e+00 1.040000e+01
      vertex 5.830000e+01 6.049997e+00 1.040000e+01
    endloop
  endfacet
  facet normal -1.000000e+00 -6.123234e-17 0.000000e+00
    outer loop
      vertex 5.200000e+01 4.350000e+00 1.510000e+01
      vertex 5.200000e+01 6.049997e+00 1.040000e+01
      vertex 5.200000e+01 4.350000e+00 1.040000e+01
    endloop
  endfacet
  facet normal 6.123234e-17 -1.000000e+00 0.000000e+00
    outer loop
      vertex 6.680000e+01 2.349999e+00 1.900000e+01
      vertex 6.428000e+01 2.349999e+00 3.000000e+00
      vertex 6.680000e+01 2.349999e+00 3.000000e+00
    endloop
  endfacet
  facet normal 6.123234e-17 -1.000000e+00 0.000000e+00
    outer loop
      vertex 6.428000e+01 2.349999e+00 3.000000e+00
      vertex 6.084999e+01 2.349999e+00 3.000000e+00
      vertex 6.428000e+01 2.349999e+00 0.000000e+00
    endloop
  endfacet
  facet normal 6.123234e-17 -1.000000e+00 0.000000e+00
    outer loop
      vertex 6.680000e+01 2.349999e+00 1.900000e+01
      vertex 6.084999e+01 2.349999e+00 3.000000e+00
      vertex 6.428000e+01 2.349999e+00 3.000000e+00
    endloop
  endfacet
  facet normal 6.123234e-17 -1.000000e+00 0.000000e+00
    outer loop
      vertex 4.350000e+01 2.349999e+00 1.900000e+01
      vertex 6.084999e+01 2.349999e+00 3.000000e+00
      vertex 6.680000e+01 2.349999e+00 1.900000e+01
    endloop
  endfacet
  facet normal 6.123234e-17 -1.000000e+00 0.000000e+00
    outer loop
      vertex 6.084999e+01 2.349999e+00 3.000000e+00
      vertex 4.350000e+01 2.349999e+00 1.900000e+01
      vertex 4.350000e+01 2.349999e+00 3.000000e+00
    endloop
  endfacet
  facet normal 6.123234e-17 -1.000000e+00 0.000000e+00
    outer loop
      vertex 6.428000e+01 2.349999e+00 0.000000e+00
      vertex 6.084999e+01 2.349999e+00 3.000000e+00
      vertex 6.084999e+01 2.349999e+00 0.000000e+00
    endloop
  endfacet
  facet normal 1.000000e+00 6.123234e-17 0.000000e+00
    outer loop
      vertex 4.350000e+01 -6.350000e+00 3.000000e+00
      vertex 4.350000e+01 2.349999e+00 1.900000e+01
      vertex 4.350000e+01 -6.350000e+00 1.900000e+01
    endloop
  endfacet
  facet normal 1.000000e+00 6.123234e-17 0.000000e+00
    outer loop
      vertex 4.350000e+01 2.349999e+00 1.900000e+01
      vertex 4.350000e+01 -6.350000e+00 3.000000e+00
      vertex 4.350000e+01 2.349999e+00 3.000000e+00
    endloop
  endfacet
  facet normal -1.000000e+00 -6.123234e-17 0.000000e+00
    outer loop
      vertex 6.680000e+01 2.349999e+00 3.000000e+00
      vertex 6.680000e+01 -6.350000e+00 1.900000e+01
      vertex 6.680000e+01 2.349999e+00 1.900000e+01
    endloop
  endfacet
  facet normal -1.000000e+00 -6.123234e-17 0.000000e+00
    outer loop
      vertex 6.680000e+01 -6.350000e+00 1.900000e+01
      vertex 6.680000e+01 2.349999e+00 3.000000e+00
      vertex 6.680000e+01 -6.350000e+00 3.000000e+00
    endloop
  endfacet
endsolid Default
