solid Default
  facet normal -3.826836e-01 9.238795e-01 0.000000e+00
    outer loop
      vertex -5.120000e+01 -2.799999e+00 0.000000e+00
      vertex -4.992721e+01 -2.272790e+00 3.000000e+00
      vertex -4.992721e+01 -2.272790e+00 0.000000e+00
    endloop
  endfacet
  facet normal -3.826836e-01 9.238795e-01 0.000000e+00
    outer loop
      vertex -4.992721e+01 -2.272790e+00 3.000000e+00
      vertex -5.120000e+01 -2.799999e+00 0.000000e+00
      vertex -5.120000e+01 -2.799999e+00 3.000000e+00
    endloop
  endfacet
  facet normal -3.826836e-01 -9.238795e-01 0.000000e+00
    outer loop
      vertex -5.120000e+01 8.000017e-01 3.000000e+00
      vertex -4.992721e+01 2.727934e-01 0.000000e+00
      vertex -4.992721e+01 2.727934e-01 3.000000e+00
    endloop
  endfacet
  facet normal -3.826836e-01 -9.238795e-01 0.000000e+00
    outer loop
      vertex -4.992721e+01 2.727934e-01 0.000000e+00
      vertex -5.120000e+01 8.000017e-01 3.000000e+00
      vertex -5.120000e+01 8.000017e-01 0.000000e+00
    endloop
  endfacet
  facet normal 0.000000e+00 0.000000e+00 -1.000000e+00
    outer loop
      vertex -7.000000e+01 -7.399998e+00 0.000000e+00
      vertex -6.428001e+01 2.190010e+00 0.000000e+00
      vertex -6.428001e+01 -7.399998e+00 0.000000e+00
    endloop
  endfacet
  facet normal 0.000000e+00 0.000000e+00 -1.000000e+00
    outer loop
      vertex -7.000000e+01 6.900001e+00 0.000000e+00
      vertex -6.085001e+01 2.190010e+00 0.000000e+00
      vertex -6.428001e+01 2.190010e+00 0.000000e+00
    endloop
  endfacet
  facet normal 0.000000e+00 0.000000e+00 -1.000000e+00
    outer loop
      vertex -6.085001e+01 2.190010e+00 0.000000e+00
      vertex -7.000000e+01 6.900001e+00 0.000000e+00
      vertex 6.084999e+01 2.190010e+00 0.000000e+00
    endloop
  endfacet
  facet normal 0.000000e+00 0.000000e+00 -1.000000e+00
    outer loop
      vertex 7.000000e+01 6.900001e+00 0.000000e+00
      vertex 6.084999e+01 2.190010e+00 0.000000e+00
      vertex -7.000000e+01 6.900001e+00 0.000000e+00
    endloop
  endfacet
  facet normal 0.000000e+00 0.000000e+00 -1.000000e+00
    outer loop
      vertex -7.000000e+01 6.900001e+00 0.000000e+00
      vertex -6.428001e+01 2.190010e+00 0.000000e+00
      vertex -7.000000e+01 -7.399998e+00 0.000000e+00
    endloop
  endfacet
  facet normal 0.000000e+00 0.000000e+00 -1.000000e+00
    outer loop
      vertex 6.428000e+01 2.190010e+00 0.000000e+00
      vertex 7.000000e+01 -7.399998e+00 0.000000e+00
      vertex 6.428000e+01 -7.399998e+00 0.000000e+00
    endloop
  endfacet
  facet normal 0.000000e+00 0.000000e+00 -1.000000e+00
    outer loop
      vertex 6.428000e+01 2.190010e+00 0.000000e+00
      vertex 7.000000e+01 6.900001e+00 0.000000e+00
      vertex 7.000000e+01 -7.399998e+00 0.000000e+00
    endloop
  endfacet
  facet normal 0.000000e+00 0.000000e+00 -1.000000e+00
    outer loop
      vertex 6.084999e+01 2.190010e+00 0.000000e+00
      vertex 7.000000e+01 6.900001e+00 0.000000e+00
      vertex 6.428000e+01 2.190010e+00 0.000000e+00
    endloop
  endfacet
  facet normal 0.000000e+00 0.000000e+00 -1.000000e+00
    outer loop
      vertex 2.587279e+01 -2.272790e+00 0.000000e+00
      vertex 5.120000e+01 -2.799999e+00 0.000000e+00
      vertex 2.460000e+01 -2.799999e+00 0.000000e+00
    endloop
  endfacet
  facet normal 0.000000e+00 0.000000e+00 -1.000000e+00
    outer loop
      vertex 2.587279e+01 -2.272790e+00 0.000000e+00
      vertex 4.992721e+01 -2.272790e+00 0.000000e+00
      vertex 5.120000e+01 -2.799999e+00 0.000000e+00
    endloop
  endfacet
  facet normal 0.000000e+00 0.000000e+00 -1.000000e+00
    outer loop
      vertex 2.640000e+01 -9.999985e-01 0.000000e+00
      vertex 4.992721e+01 -2.272790e+00 0.000000e+00
      vertex 2.587279e+01 -2.272790e+00 0.000000e+00
    endloop
  endfacet
  facet normal 0.000000e+00 0.000000e+00 -1.000000e+00
    outer loop
      vertex 2.640000e+01 -9.999985e-01 0.000000e+00
      vertex 4.940000e+01 -9.999985e-01 0.000000e+00
      vertex 4.992721e+01 -2.272790e+00 0.000000e+00
    endloop
  endfacet
  facet normal 0.000000e+00 0.000000e+00 -1.000000e+00
    outer loop
      vertex 2.587279e+01 2.727934e-01 0.000000e+00
      vertex 4.940000e+01 -9.999985e-01 0.000000e+00
      vertex 2.640000e+01 -9.999985e-01 0.000000e+00
    endloop
  endfacet
  facet normal 0.000000e+00 0.000000e+00 -1.000000e+00
    outer loop
      vertex 2.587279e+01 2.727934e-01 0.000000e+00
      vertex 4.992721e+01 2.727934e-01 0.000000e+00
      vertex 4.940000e+01 -9.999985e-01 0.000000e+00
    endloop
  endfacet
  facet normal 0.000000e+00 0.000000e+00 -1.000000e+00
    outer loop
      vertex 2.460000e+01 8.000017e-01 0.000000e+00
      vertex 4.992721e+01 2.727934e-01 0.000000e+00
      vertex 2.587279e+01 2.727934e-01 0.000000e+00
    endloop
  endfacet
  facet normal 0.000000e+00 0.000000e+00 -1.000000e+00
    outer loop
      vertex 4.992721e+01 2.727934e-01 0.000000e+00
      vertex 2.460000e+01 8.000017e-01 0.000000e+00
      vertex 5.120000e+01 8.000017e-01 0.000000e+00
    endloop
  endfacet
  facet normal 0.000000e+00 0.000000e+00 -1.000000e+00
    outer loop
      vertex -2.332721e+01 -2.272790e+00 0.000000e+00
      vertex 2.460000e+01 -2.799999e+00 0.000000e+00
      vertex -2.460000e+01 -2.799999e+00 0.000000e+00
    endloop
  endfacet
  facet normal 0.000000e+00 0.000000e+00 -1.000000e+00
    outer loop
      vertex -2.332721e+01 -2.272790e+00 0.000000e+00
      vertex 2.332721e+01 -2.272790e+00 0.000000e+00
      vertex 2.460000e+01 -2.799999e+00 0.000000e+00
    endloop
  endfacet
  facet normal 0.000000e+00 0.000000e+00 -1.000000e+00
    outer loop
      vertex -2.280000e+01 -9.999985e-01 0.000000e+00
      vertex 2.332721e+01 -2.272790e+00 0.000000e+00
      vertex -2.332721e+01 -2.272790e+00 0.000000e+00
    endloop
  endfacet
  facet normal 0.000000e+00 0.000000e+00 -1.000000e+00
    outer loop
      vertex -2.280000e+01 -9.999985e-01 0.000000e+00
      vertex 2.280000e+01 -9.999985e-01 0.000000e+00
      vertex 2.332721e+01 -2.272790e+00 0.000000e+00
    endloop
  endfacet
  facet normal 0.000000e+00 0.000000e+00 -1.000000e+00
    outer loop
      vertex -2.332721e+01 2.727934e-01 0.000000e+00
      vertex 2.280000e+01 -9.999985e-01 0.000000e+00
      vertex -2.280000e+01 -9.999985e-01 0.000000e+00
    endloop
  endfacet
  facet normal 0.000000e+00 0.000000e+00 -1.000000e+00
    outer loop
      vertex -2.332721e+01 2.727934e-01 0.000000e+00
      vertex 2.332721e+01 2.727934e-01 0.000000e+00
      vertex 2.280000e+01 -9.999985e-01 0.000000e+00
    endloop
  endfacet
  facet normal 0.000000e+00 0.000000e+00 -1.000000e+00
    outer loop
      vertex -2.460000e+01 8.000017e-01 0.000000e+00
      vertex 2.332721e+01 2.727934e-01 0.000000e+00
      vertex -2.332721e+01 2.727934e-01 0.000000e+00
    endloop
  endfacet
  facet normal 0.000000e+00 0.000000e+00 -1.000000e+00
    outer loop
      vertex 2.332721e+01 2.727934e-01 0.000000e+00
      vertex -2.460000e+01 8.000017e-01 0.000000e+00
      vertex 2.460000e+01 8.000017e-01 0.000000e+00
    endloop
  endfacet
  facet normal 0.000000e+00 0.000000e+00 -1.000000e+00
    outer loop
      vertex -4.992721e+01 -2.272790e+00 0.000000e+00
      vertex -2.460000e+01 -2.799999e+00 0.000000e+00
      vertex -5.120000e+01 -2.799999e+00 0.000000e+00
    endloop
  endfacet
  facet normal 0.000000e+00 0.000000e+00 -1.000000e+00
    outer loop
      vertex -4.992721e+01 -2.272790e+00 0.000000e+00
      vertex -2.587279e+01 -2.272790e+00 0.000000e+00
      vertex -2.460000e+01 -2.799999e+00 0.000000e+00
    endloop
  endfacet
  facet normal 0.000000e+00 0.000000e+00 -1.000000e+00
    outer loop
      vertex -4.940000e+01 -9.999985e-01 0.000000e+00
      vertex -2.587279e+01 -2.272790e+00 0.000000e+00
      vertex -4.992721e+01 -2.272790e+00 0.000000e+00
    endloop
  endfacet
  facet normal 0.000000e+00 0.000000e+00 -1.000000e+00
    outer loop
      vertex -4.940000e+01 -9.999985e-01 0.000000e+00
      vertex -2.640000e+01 -9.999985e-01 0.000000e+00
      vertex -2.587279e+01 -2.272790e+00 0.000000e+00
    endloop
  endfacet
  facet normal 0.000000e+00 0.000000e+00 -1.000000e+00
    outer loop
      vertex -4.992721e+01 2.727934e-01 0.000000e+00
      vertex -2.640000e+01 -9.999985e-01 0.000000e+00
      vertex -4.940000e+01 -9.999985e-01 0.000000e+00
    endloop
  endfacet
  facet normal 0.000000e+00 0.000000e+00 -1.000000e+00
    outer loop
      vertex -4.992721e+01 2.727934e-01 0.000000e+00
      vertex -2.587279e+01 2.727934e-01 0.000000e+00
      vertex -2.640000e+01 -9.999985e-01 0.000000e+00
    endloop
  endfacet
  facet normal 0.000000e+00 0.000000e+00 -1.000000e+00
    outer loop
      vertex -5.120000e+01 8.000017e-01 0.000000e+00
      vertex -2.587279e+01 2.727934e-01 0.000000e+00
      vertex -4.992721e+01 2.727934e-01 0.000000e+00
    endloop
  endfacet
  facet normal 0.000000e+00 0.000000e+00 -1.000000e+00
    outer loop
      vertex -2.587279e+01 2.727934e-01 0.000000e+00
      vertex -5.120000e+01 8.000017e-01 0.000000e+00
      vertex -2.460000e+01 8.000017e-01 0.000000e+00
    endloop
  endfacet
  facet normal 0.000000e+00 0.000000e+00 -1.000000e+00
    outer loop
      vertex -2.460000e+01 -2.799999e+00 0.000000e+00
      vertex -6.085001e+01 -7.399998e+00 0.000000e+00
      vertex -5.120000e+01 -2.799999e+00 0.000000e+00
    endloop
  endfacet
  facet normal 0.000000e+00 0.000000e+00 -1.000000e+00
    outer loop
      vertex -6.085001e+01 -7.399998e+00 0.000000e+00
      vertex -5.247279e+01 -2.272790e+00 0.000000e+00
      vertex -5.120000e+01 -2.799999e+00 0.000000e+00
    endloop
  endfacet
  facet normal 0.000000e+00 0.000000e+00 -1.000000e+00
    outer loop
      vertex -6.085001e+01 -7.399998e+00 0.000000e+00
      vertex -5.300000e+01 -9.999985e-01 0.000000e+00
      vertex -5.247279e+01 -2.272790e+00 0.000000e+00
    endloop
  endfacet
  facet normal 0.000000e+00 0.000000e+00 -1.000000e+00
    outer loop
      vertex -6.085001e+01 2.190010e+00 0.000000e+00
      vertex -5.300000e+01 -9.999985e-01 0.000000e+00
      vertex -6.085001e+01 -7.399998e+00 0.000000e+00
    endloop
  endfacet
  facet normal 0.000000e+00 0.000000e+00 -1.000000e+00
    outer loop
      vertex -6.085001e+01 2.190010e+00 0.000000e+00
      vertex -2.460000e+01 8.000017e-01 0.000000e+00
      vertex -5.120000e+01 8.000017e-01 0.000000e+00
    endloop
  endfacet
  facet normal 0.000000e+00 0.000000e+00 -1.000000e+00
    outer loop
      vertex -2.460000e+01 8.000017e-01 0.000000e+00
      vertex -6.085001e+01 2.190010e+00 0.000000e+00
      vertex 2.460000e+01 8.000017e-01 0.000000e+00
    endloop
  endfacet
  facet normal 0.000000e+00 0.000000e+00 -1.000000e+00
    outer loop
      vertex 6.084999e+01 2.190010e+00 0.000000e+00
      vertex 2.460000e+01 8.000017e-01 0.000000e+00
      vertex -6.085001e+01 2.190010e+00 0.000000e+00
    endloop
  endfacet
  facet normal 0.000000e+00 0.000000e+00 -1.000000e+00
    outer loop
      vertex -5.247279e+01 2.727934e-01 0.000000e+00
      vertex -6.085001e+01 2.190010e+00 0.000000e+00
      vertex -5.120000e+01 8.000017e-01 0.000000e+00
    endloop
  endfacet
  facet normal 0.000000e+00 0.000000e+00 -1.000000e+00
    outer loop
      vertex -5.300000e+01 -9.999985e-01 0.000000e+00
      vertex -6.085001e+01 2.190010e+00 0.000000e+00
      vertex -5.247279e+01 2.727934e-01 0.000000e+00
    endloop
  endfacet
  facet normal 0.000000e+00 0.000000e+00 -1.000000e+00
    outer loop
      vertex -6.085001e+01 -7.399998e+00 0.000000e+00
      vertex -2.460000e+01 -2.799999e+00 0.000000e+00
      vertex 6.084999e+01 -7.399998e+00 0.000000e+00
    endloop
  endfacet
  facet normal 0.000000e+00 0.000000e+00 -1.000000e+00
    outer loop
      vertex 2.460000e+01 -2.799999e+00 0.000000e+00
      vertex 6.084999e+01 -7.399998e+00 0.000000e+00
      vertex -2.460000e+01 -2.799999e+00 0.000000e+00
    endloop
  endfacet
  facet normal 0.000000e+00 0.000000e+00 -1.000000e+00
    outer loop
      vertex 5.120000e+01 -2.799999e+00 0.000000e+00
      vertex 6.084999e+01 -7.399998e+00 0.000000e+00
      vertex 2.460000e+01 -2.799999e+00 0.000000e+00
    endloop
  endfacet
  facet normal 0.000000e+00 0.000000e+00 -1.000000e+00
    outer loop
      vertex 5.247279e+01 -2.272790e+00 0.000000e+00
      vertex 6.084999e+01 -7.399998e+00 0.000000e+00
      vertex 5.120000e+01 -2.799999e+00 0.000000e+00
    endloop
  endfacet
  facet normal 0.000000e+00 0.000000e+00 -1.000000e+00
    outer loop
      vertex 5.300000e+01 -9.999985e-01 0.000000e+00
      vertex 6.084999e+01 -7.399998e+00 0.000000e+00
      vertex 5.247279e+01 -2.272790e+00 0.000000e+00
    endloop
  endfacet
  facet normal 0.000000e+00 0.000000e+00 -1.000000e+00
    outer loop
      vertex 6.084999e+01 2.190010e+00 0.000000e+00
      vertex 5.300000e+01 -9.999985e-01 0.000000e+00
      vertex 5.247279e+01 2.727934e-01 0.000000e+00
    endloop
  endfacet
  facet normal 0.000000e+00 0.000000e+00 -1.000000e+00
    outer loop
      vertex 5.300000e+01 -9.999985e-01 0.000000e+00
      vertex 6.084999e+01 2.190010e+00 0.000000e+00
      vertex 6.084999e+01 -7.399998e+00 0.000000e+00
    endloop
  endfacet
  facet normal 0.000000e+00 0.000000e+00 -1.000000e+00
    outer loop
      vertex 5.120000e+01 8.000017e-01 0.000000e+00
      vertex 6.084999e+01 2.190010e+00 0.000000e+00
      vertex 5.247279e+01 2.727934e-01 0.000000e+00
    endloop
  endfacet
  facet normal 0.000000e+00 0.000000e+00 -1.000000e+00
    outer loop
      vertex 2.460000e+01 8.000017e-01 0.000000e+00
      vertex 6.084999e+01 2.190010e+00 0.000000e+00
      vertex 5.120000e+01 8.000017e-01 0.000000e+00
    endloop
  endfacet
  facet normal -9.238799e-01 -3.826827e-01 0.000000e+00
    outer loop
      vertex -4.992721e+01 2.727934e-01 0.000000e+00
      vertex -4.940000e+01 -9.999985e-01 3.000000e+00
      vertex -4.992721e+01 2.727934e-01 3.000000e+00
    endloop
  endfacet
  facet normal -9.238799e-01 -3.826827e-01 0.000000e+00
    outer loop
      vertex -4.940000e+01 -9.999985e-01 3.000000e+00
      vertex -4.992721e+01 2.727934e-01 0.000000e+00
      vertex -4.940000e+01 -9.999985e-01 0.000000e+00
    endloop
  endfacet
  facet normal -9.238799e-01 3.826827e-01 0.000000e+00
    outer loop
      vertex -4.940000e+01 -9.999985e-01 0.000000e+00
      vertex -4.992721e+01 -2.272790e+00 3.000000e+00
      vertex -4.940000e+01 -9.999985e-01 3.000000e+00
    endloop
  endfacet
  facet normal -9.238799e-01 3.826827e-01 -0.000000e+00
    outer loop
      vertex -4.992721e+01 -2.272790e+00 3.000000e+00
      vertex -4.940000e+01 -9.999985e-01 0.000000e+00
      vertex -4.992721e+01 -2.272790e+00 0.000000e+00
    endloop
  endfacet
  facet normal 0.000000e+00 0.000000e+00 1.000000e+00
    outer loop
      vertex 6.680000e+01 -5.699998e+00 3.000000e+00
      vertex 7.000000e+01 -7.399998e+00 3.000000e+00
      vertex 6.880000e+01 -5.699998e+00 3.000000e+00
    endloop
  endfacet
  facet normal 0.000000e+00 0.000000e+00 1.000000e+00
    outer loop
      vertex 7.000000e+01 6.900001e+00 3.000000e+00
      vertex 6.880000e+01 -5.699998e+00 3.000000e+00
      vertex 7.000000e+01 -7.399998e+00 3.000000e+00
    endloop
  endfacet
  facet normal 0.000000e+00 0.000000e+00 1.000000e+00
    outer loop
      vertex 7.000000e+01 6.900001e+00 3.000000e+00
      vertex 4.100000e+01 5.700001e+00 3.000000e+00
      vertex 6.880000e+01 5.700001e+00 3.000000e+00
    endloop
  endfacet
  facet normal 0.000000e+00 0.000000e+00 1.000000e+00
    outer loop
      vertex 4.100000e+01 5.700001e+00 3.000000e+00
      vertex 7.000000e+01 6.900001e+00 3.000000e+00
      vertex 3.850000e+01 5.700001e+00 3.000000e+00
    endloop
  endfacet
  facet normal 0.000000e+00 0.000000e+00 1.000000e+00
    outer loop
      vertex 3.850000e+01 5.700001e+00 3.000000e+00
      vertex 7.000000e+01 6.900001e+00 3.000000e+00
      vertex 1.070000e+01 5.700001e+00 3.000000e+00
    endloop
  endfacet
  facet normal 0.000000e+00 0.000000e+00 1.000000e+00
    outer loop
      vertex 1.070000e+01 5.700001e+00 3.000000e+00
      vertex 7.000000e+01 6.900001e+00 3.000000e+00
      vertex -1.070000e+01 5.700001e+00 3.000000e+00
    endloop
  endfacet
  facet normal 0.000000e+00 0.000000e+00 1.000000e+00
    outer loop
      vertex -7.000000e+01 6.900001e+00 3.000000e+00
      vertex -1.070000e+01 5.700001e+00 3.000000e+00
      vertex 7.000000e+01 6.900001e+00 3.000000e+00
    endloop
  endfacet
  facet normal 0.000000e+00 0.000000e+00 1.000000e+00
    outer loop
      vertex -1.070000e+01 5.700001e+00 3.000000e+00
      vertex -7.000000e+01 6.900001e+00 3.000000e+00
      vertex -3.850000e+01 5.700001e+00 3.000000e+00
    endloop
  endfacet
  facet normal 0.000000e+00 0.000000e+00 1.000000e+00
    outer loop
      vertex -3.850000e+01 5.700001e+00 3.000000e+00
      vertex -7.000000e+01 6.900001e+00 3.000000e+00
      vertex -4.100000e+01 5.700001e+00 3.000000e+00
    endloop
  endfacet
  facet normal 0.000000e+00 0.000000e+00 1.000000e+00
    outer loop
      vertex 6.880000e+01 -5.699998e+00 3.000000e+00
      vertex 7.000000e+01 6.900001e+00 3.000000e+00
      vertex 6.880000e+01 5.700001e+00 3.000000e+00
    endloop
  endfacet
  facet normal 0.000000e+00 0.000000e+00 1.000000e+00
    outer loop
      vertex 7.000000e+01 -7.399998e+00 3.000000e+00
      vertex 6.680000e+01 -5.699998e+00 3.000000e+00
      vertex 6.428000e+01 -7.399998e+00 3.000000e+00
    endloop
  endfacet
  facet normal 0.000000e+00 0.000000e+00 1.000000e+00
    outer loop
      vertex 6.680000e+01 -5.699998e+00 3.000000e+00
      vertex 6.428000e+01 2.190010e+00 3.000000e+00
      vertex 6.428000e+01 -7.399998e+00 3.000000e+00
    endloop
  endfacet
  facet normal 0.000000e+00 0.000000e+00 1.000000e+00
    outer loop
      vertex 6.428000e+01 2.190010e+00 3.000000e+00
      vertex 6.680000e+01 3.700001e+00 3.000000e+00
      vertex 6.084999e+01 2.190010e+00 3.000000e+00
    endloop
  endfacet
  facet normal 0.000000e+00 0.000000e+00 1.000000e+00
    outer loop
      vertex 6.680000e+01 3.700001e+00 3.000000e+00
      vertex 6.428000e+01 2.190010e+00 3.000000e+00
      vertex 6.680000e+01 -5.699998e+00 3.000000e+00
    endloop
  endfacet
  facet normal 0.000000e+00 0.000000e+00 1.000000e+00
    outer loop
      vertex -6.428001e+01 -7.399998e+00 3.000000e+00
      vertex -6.680000e+01 -5.699998e+00 3.000000e+00
      vertex -7.000000e+01 -7.399998e+00 3.000000e+00
    endloop
  endfacet
  facet normal 0.000000e+00 0.000000e+00 1.000000e+00
    outer loop
      vertex -6.428001e+01 2.190010e+00 3.000000e+00
      vertex -6.680000e+01 -5.699998e+00 3.000000e+00
      vertex -6.428001e+01 -7.399998e+00 3.000000e+00
    endloop
  endfacet
  facet normal 0.000000e+00 0.000000e+00 1.000000e+00
    outer loop
      vertex -6.428001e+01 2.190010e+00 3.000000e+00
      vertex -6.680000e+01 3.700001e+00 3.000000e+00
      vertex -6.680000e+01 -5.699998e+00 3.000000e+00
    endloop
  endfacet
  facet normal 0.000000e+00 0.000000e+00 1.000000e+00
    outer loop
      vertex -6.085001e+01 2.190010e+00 3.000000e+00
      vertex -6.680000e+01 3.700001e+00 3.000000e+00
      vertex -6.428001e+01 2.190010e+00 3.000000e+00
    endloop
  endfacet
  facet normal 0.000000e+00 0.000000e+00 1.000000e+00
    outer loop
      vertex -6.880000e+01 -5.699998e+00 3.000000e+00
      vertex -7.000000e+01 -7.399998e+00 3.000000e+00
      vertex -6.680000e+01 -5.699998e+00 3.000000e+00
    endloop
  endfacet
  facet normal 0.000000e+00 0.000000e+00 1.000000e+00
    outer loop
      vertex -7.000000e+01 6.900001e+00 3.000000e+00
      vertex -6.880000e+01 -5.699998e+00 3.000000e+00
      vertex -6.880000e+01 5.700001e+00 3.000000e+00
    endloop
  endfacet
  facet normal 0.000000e+00 0.000000e+00 1.000000e+00
    outer loop
      vertex -6.880000e+01 -5.699998e+00 3.000000e+00
      vertex -7.000000e+01 6.900001e+00 3.000000e+00
      vertex -7.000000e+01 -7.399998e+00 3.000000e+00
    endloop
  endfacet
  facet normal 0.000000e+00 0.000000e+00 1.000000e+00
    outer loop
      vertex -4.100000e+01 5.700001e+00 3.000000e+00
      vertex -7.000000e+01 6.900001e+00 3.000000e+00
      vertex -6.880000e+01 5.700001e+00 3.000000e+00
    endloop
  endfacet
  facet normal 0.000000e+00 0.000000e+00 1.000000e+00
    outer loop
      vertex -4.300000e+01 -5.699998e+00 3.000000e+00
      vertex -4.992721e+01 -2.272790e+00 3.000000e+00
      vertex -5.120000e+01 -2.799999e+00 3.000000e+00
    endloop
  endfacet
  facet normal 0.000000e+00 0.000000e+00 1.000000e+00
    outer loop
      vertex -4.300000e+01 -5.699998e+00 3.000000e+00
      vertex -4.940000e+01 -9.999985e-01 3.000000e+00
      vertex -4.992721e+01 -2.272790e+00 3.000000e+00
    endloop
  endfacet
  facet normal 0.000000e+00 0.000000e+00 1.000000e+00
    outer loop
      vertex -4.300000e+01 3.700001e+00 3.000000e+00
      vertex -4.940000e+01 -9.999985e-01 3.000000e+00
      vertex -4.300000e+01 -5.699998e+00 3.000000e+00
    endloop
  endfacet
  facet normal 0.000000e+00 0.000000e+00 1.000000e+00
    outer loop
      vertex -6.680000e+01 3.700001e+00 3.000000e+00
      vertex -6.085001e+01 2.190010e+00 3.000000e+00
      vertex -4.300000e+01 3.700001e+00 3.000000e+00
    endloop
  endfacet
  facet normal 0.000000e+00 0.000000e+00 1.000000e+00
    outer loop
      vertex -5.120000e+01 8.000017e-01 3.000000e+00
      vertex -4.300000e+01 3.700001e+00 3.000000e+00
      vertex -6.085001e+01 2.190010e+00 3.000000e+00
    endloop
  endfacet
  facet normal 0.000000e+00 0.000000e+00 1.000000e+00
    outer loop
      vertex -4.992721e+01 2.727934e-01 3.000000e+00
      vertex -4.300000e+01 3.700001e+00 3.000000e+00
      vertex -5.120000e+01 8.000017e-01 3.000000e+00
    endloop
  endfacet
  facet normal 0.000000e+00 0.000000e+00 1.000000e+00
    outer loop
      vertex -4.940000e+01 -9.999985e-01 3.000000e+00
      vertex -4.300000e+01 3.700001e+00 3.000000e+00
      vertex -4.992721e+01 2.727934e-01 3.000000e+00
    endloop
  endfacet
  facet normal 0.000000e+00 0.000000e+00 1.000000e+00
    outer loop
      vertex -3.850000e+01 5.700001e+00 3.000000e+00
      vertex -4.100000e+01 -5.699998e+00 3.000000e+00
      vertex -3.850000e+01 -5.699998e+00 3.000000e+00
    endloop
  endfacet
  facet normal 0.000000e+00 0.000000e+00 1.000000e+00
    outer loop
      vertex -4.100000e+01 -5.699998e+00 3.000000e+00
      vertex -3.850000e+01 5.700001e+00 3.000000e+00
      vertex -4.100000e+01 5.700001e+00 3.000000e+00
    endloop
  endfacet
  facet normal 0.000000e+00 0.000000e+00 1.000000e+00
    outer loop
      vertex -1.270000e+01 -5.699998e+00 3.000000e+00
      vertex -2.460000e+01 -2.799999e+00 3.000000e+00
      vertex -3.650000e+01 -5.699998e+00 3.000000e+00
    endloop
  endfacet
  facet normal 0.000000e+00 0.000000e+00 1.000000e+00
    outer loop
      vertex -1.270000e+01 -5.699998e+00 3.000000e+00
      vertex -2.332721e+01 -2.272790e+00 3.000000e+00
      vertex -2.460000e+01 -2.799999e+00 3.000000e+00
    endloop
  endfacet
  facet normal 0.000000e+00 0.000000e+00 1.000000e+00
    outer loop
      vertex -1.270000e+01 -5.699998e+00 3.000000e+00
      vertex -2.280000e+01 -9.999985e-01 3.000000e+00
      vertex -2.332721e+01 -2.272790e+00 3.000000e+00
    endloop
  endfacet
  facet normal 0.000000e+00 0.000000e+00 1.000000e+00
    outer loop
      vertex -1.270000e+01 3.700001e+00 3.000000e+00
      vertex -2.280000e+01 -9.999985e-01 3.000000e+00
      vertex -1.270000e+01 -5.699998e+00 3.000000e+00
    endloop
  endfacet
  facet normal 0.000000e+00 0.000000e+00 1.000000e+00
    outer loop
      vertex -2.332721e+01 2.727934e-01 3.000000e+00
      vertex -1.270000e+01 3.700001e+00 3.000000e+00
      vertex -2.460000e+01 8.000017e-01 3.000000e+00
    endloop
  endfacet
  facet normal 0.000000e+00 0.000000e+00 1.000000e+00
    outer loop
      vertex -2.280000e+01 -9.999985e-01 3.000000e+00
      vertex -1.270000e+01 3.700001e+00 3.000000e+00
      vertex -2.332721e+01 2.727934e-01 3.000000e+00
    endloop
  endfacet
  facet normal 0.000000e+00 0.000000e+00 1.000000e+00
    outer loop
      vertex 1.070000e+01 5.700001e+00 3.000000e+00
      vertex -1.070000e+01 -5.699998e+00 3.000000e+00
      vertex 1.070000e+01 -5.699998e+00 3.000000e+00
    endloop
  endfacet
  facet normal 0.000000e+00 0.000000e+00 1.000000e+00
    outer loop
      vertex -1.070000e+01 -5.699998e+00 3.000000e+00
      vertex 1.070000e+01 5.700001e+00 3.000000e+00
      vertex -1.070000e+01 5.700001e+00 3.000000e+00
    endloop
  endfacet
  facet normal 0.000000e+00 0.000000e+00 1.000000e+00
    outer loop
      vertex 3.650000e+01 -5.699998e+00 3.000000e+00
      vertex 2.460000e+01 -2.799999e+00 3.000000e+00
      vertex 1.270000e+01 -5.699998e+00 3.000000e+00
    endloop
  endfacet
  facet normal 0.000000e+00 0.000000e+00 1.000000e+00
    outer loop
      vertex 3.650000e+01 -5.699998e+00 3.000000e+00
      vertex 2.587279e+01 -2.272790e+00 3.000000e+00
      vertex 2.460000e+01 -2.799999e+00 3.000000e+00
    endloop
  endfacet
  facet normal 0.000000e+00 0.000000e+00 1.000000e+00
    outer loop
      vertex 3.650000e+01 -5.699998e+00 3.000000e+00
      vertex 2.640000e+01 -9.999985e-01 3.000000e+00
      vertex 2.587279e+01 -2.272790e+00 3.000000e+00
    endloop
  endfacet
  facet normal 0.000000e+00 0.000000e+00 1.000000e+00
    outer loop
      vertex 3.650000e+01 3.700001e+00 3.000000e+00
      vertex 2.640000e+01 -9.999985e-01 3.000000e+00
      vertex 3.650000e+01 -5.699998e+00 3.000000e+00
    endloop
  endfacet
  facet normal 0.000000e+00 0.000000e+00 1.000000e+00
    outer loop
      vertex 2.587279e+01 2.727934e-01 3.000000e+00
      vertex 3.650000e+01 3.700001e+00 3.000000e+00
      vertex 2.460000e+01 8.000017e-01 3.000000e+00
    endloop
  endfacet
  facet normal 0.000000e+00 0.000000e+00 1.000000e+00
    outer loop
      vertex 2.640000e+01 -9.999985e-01 3.000000e+00
      vertex 3.650000e+01 3.700001e+00 3.000000e+00
      vertex 2.587279e+01 2.727934e-01 3.000000e+00
    endloop
  endfacet
  facet normal 0.000000e+00 0.000000e+00 1.000000e+00
    outer loop
      vertex 4.100000e+01 5.700001e+00 3.000000e+00
      vertex 3.850000e+01 -5.699998e+00 3.000000e+00
      vertex 4.100000e+01 -5.699998e+00 3.000000e+00
    endloop
  endfacet
  facet normal 0.000000e+00 0.000000e+00 1.000000e+00
    outer loop
      vertex 3.850000e+01 -5.699998e+00 3.000000e+00
      vertex 4.100000e+01 5.700001e+00 3.000000e+00
      vertex 3.850000e+01 5.700001e+00 3.000000e+00
    endloop
  endfacet
  facet normal 0.000000e+00 0.000000e+00 1.000000e+00
    outer loop
      vertex 4.100000e+01 -5.699998e+00 3.000000e+00
      vertex 6.084999e+01 -7.399998e+00 3.000000e+00
      vertex 4.300000e+01 -5.699998e+00 3.000000e+00
    endloop
  endfacet
  facet normal 0.000000e+00 0.000000e+00 1.000000e+00
    outer loop
      vertex 6.084999e+01 -7.399998e+00 3.000000e+00
      vertex 5.120000e+01 -2.799999e+00 3.000000e+00
      vertex 4.300000e+01 -5.699998e+00 3.000000e+00
    endloop
  endfacet
  facet normal 0.000000e+00 0.000000e+00 1.000000e+00
    outer loop
      vertex 6.084999e+01 -7.399998e+00 3.000000e+00
      vertex 5.247279e+01 -2.272790e+00 3.000000e+00
      vertex 5.120000e+01 -2.799999e+00 3.000000e+00
    endloop
  endfacet
  facet normal 0.000000e+00 0.000000e+00 1.000000e+00
    outer loop
      vertex 6.084999e+01 -7.399998e+00 3.000000e+00
      vertex 5.300000e+01 -9.999985e-01 3.000000e+00
      vertex 5.247279e+01 -2.272790e+00 3.000000e+00
    endloop
  endfacet
  facet normal 0.000000e+00 0.000000e+00 1.000000e+00
    outer loop
      vertex 6.084999e+01 2.190010e+00 3.000000e+00
      vertex 5.300000e+01 -9.999985e-01 3.000000e+00
      vertex 6.084999e+01 -7.399998e+00 3.000000e+00
    endloop
  endfacet
  facet normal 0.000000e+00 0.000000e+00 1.000000e+00
    outer loop
      vertex 5.247279e+01 2.727934e-01 3.000000e+00
      vertex 6.084999e+01 2.190010e+00 3.000000e+00
      vertex 5.120000e+01 8.000017e-01 3.000000e+00
    endloop
  endfacet
  facet normal 0.000000e+00 0.000000e+00 1.000000e+00
    outer loop
      vertex 5.300000e+01 -9.999985e-01 3.000000e+00
      vertex 6.084999e+01 2.190010e+00 3.000000e+00
      vertex 5.247279e+01 2.727934e-01 3.000000e+00
    endloop
  endfacet
  facet normal 0.000000e+00 0.000000e+00 1.000000e+00
    outer loop
      vertex 3.850000e+01 -5.699998e+00 3.000000e+00
      vertex 6.084999e+01 -7.399998e+00 3.000000e+00
      vertex 4.100000e+01 -5.699998e+00 3.000000e+00
    endloop
  endfacet
  facet normal 0.000000e+00 0.000000e+00 1.000000e+00
    outer loop
      vertex 3.650000e+01 -5.699998e+00 3.000000e+00
      vertex 6.084999e+01 -7.399998e+00 3.000000e+00
      vertex 3.850000e+01 -5.699998e+00 3.000000e+00
    endloop
  endfacet
  facet normal 0.000000e+00 0.000000e+00 1.000000e+00
    outer loop
      vertex 1.270000e+01 -5.699998e+00 3.000000e+00
      vertex 6.084999e+01 -7.399998e+00 3.000000e+00
      vertex 3.650000e+01 -5.699998e+00 3.000000e+00
    endloop
  endfacet
  facet normal 0.000000e+00 0.000000e+00 1.000000e+00
    outer loop
      vertex 1.070000e+01 -5.699998e+00 3.000000e+00
      vertex 6.084999e+01 -7.399998e+00 3.000000e+00
      vertex 1.270000e+01 -5.699998e+00 3.000000e+00
    endloop
  endfacet
  facet normal 0.000000e+00 0.000000e+00 1.000000e+00
    outer loop
      vertex 6.084999e+01 -7.399998e+00 3.000000e+00
      vertex 1.070000e+01 -5.699998e+00 3.000000e+00
      vertex -6.085001e+01 -7.399998e+00 3.000000e+00
    endloop
  endfacet
  facet normal 0.000000e+00 0.000000e+00 1.000000e+00
    outer loop
      vertex -1.070000e+01 -5.699998e+00 3.000000e+00
      vertex -6.085001e+01 -7.399998e+00 3.000000e+00
      vertex 1.070000e+01 -5.699998e+00 3.000000e+00
    endloop
  endfacet
  facet normal 0.000000e+00 0.000000e+00 1.000000e+00
    outer loop
      vertex -1.270000e+01 -5.699998e+00 3.000000e+00
      vertex -6.085001e+01 -7.399998e+00 3.000000e+00
      vertex -1.070000e+01 -5.699998e+00 3.000000e+00
    endloop
  endfacet
  facet normal 0.000000e+00 0.000000e+00 1.000000e+00
    outer loop
      vertex -3.650000e+01 -5.699998e+00 3.000000e+00
      vertex -6.085001e+01 -7.399998e+00 3.000000e+00
      vertex -1.270000e+01 -5.699998e+00 3.000000e+00
    endloop
  endfacet
  facet normal 0.000000e+00 0.000000e+00 1.000000e+00
    outer loop
      vertex -3.850000e+01 -5.699998e+00 3.000000e+00
      vertex -6.085001e+01 -7.399998e+00 3.000000e+00
      vertex -3.650000e+01 -5.699998e+00 3.000000e+00
    endloop
  endfacet
  facet normal 0.000000e+00 0.000000e+00 1.000000e+00
    outer loop
      vertex -4.100000e+01 -5.699998e+00 3.000000e+00
      vertex -6.085001e+01 -7.399998e+00 3.000000e+00
      vertex -3.850000e+01 -5.699998e+00 3.000000e+00
    endloop
  endfacet
  facet normal 0.000000e+00 0.000000e+00 1.000000e+00
    outer loop
      vertex -4.300000e+01 -5.699998e+00 3.000000e+00
      vertex -6.085001e+01 -7.399998e+00 3.000000e+00
      vertex -4.100000e+01 -5.699998e+00 3.000000e+00
    endloop
  endfacet
  facet normal 0.000000e+00 0.000000e+00 1.000000e+00
    outer loop
      vertex -5.120000e+01 -2.799999e+00 3.000000e+00
      vertex -6.085001e+01 -7.399998e+00 3.000000e+00
      vertex -4.300000e+01 -5.699998e+00 3.000000e+00
    endloop
  endfacet
  facet normal 0.000000e+00 0.000000e+00 1.000000e+00
    outer loop
      vertex -5.247279e+01 -2.272790e+00 3.000000e+00
      vertex -6.085001e+01 -7.399998e+00 3.000000e+00
      vertex -5.120000e+01 -2.799999e+00 3.000000e+00
    endloop
  endfacet
  facet normal 0.000000e+00 0.000000e+00 1.000000e+00
    outer loop
      vertex -5.300000e+01 -9.999985e-01 3.000000e+00
      vertex -6.085001e+01 -7.399998e+00 3.000000e+00
      vertex -5.247279e+01 -2.272790e+00 3.000000e+00
    endloop
  endfacet
  facet normal 0.000000e+00 0.000000e+00 1.000000e+00
    outer loop
      vertex -6.085001e+01 2.190010e+00 3.000000e+00
      vertex -5.300000e+01 -9.999985e-01 3.000000e+00
      vertex -5.247279e+01 2.727934e-01 3.000000e+00
    endloop
  endfacet
  facet normal 0.000000e+00 0.000000e+00 1.000000e+00
    outer loop
      vertex -5.300000e+01 -9.999985e-01 3.000000e+00
      vertex -6.085001e+01 2.190010e+00 3.000000e+00
      vertex -6.085001e+01 -7.399998e+00 3.000000e+00
    endloop
  endfacet
  facet normal 0.000000e+00 0.000000e+00 1.000000e+00
    outer loop
      vertex -6.085001e+01 2.190010e+00 3.000000e+00
      vertex -5.247279e+01 2.727934e-01 3.000000e+00
      vertex -5.120000e+01 8.000017e-01 3.000000e+00
    endloop
  endfacet
  facet normal 0.000000e+00 0.000000e+00 1.000000e+00
    outer loop
      vertex 4.992721e+01 -2.272790e+00 3.000000e+00
      vertex 4.300000e+01 -5.699998e+00 3.000000e+00
      vertex 5.120000e+01 -2.799999e+00 3.000000e+00
    endloop
  endfacet
  facet normal 0.000000e+00 0.000000e+00 1.000000e+00
    outer loop
      vertex 4.940000e+01 -9.999985e-01 3.000000e+00
      vertex 4.300000e+01 -5.699998e+00 3.000000e+00
      vertex 4.992721e+01 -2.272790e+00 3.000000e+00
    endloop
  endfacet
  facet normal 0.000000e+00 0.000000e+00 1.000000e+00
    outer loop
      vertex 4.300000e+01 3.700001e+00 3.000000e+00
      vertex 4.940000e+01 -9.999985e-01 3.000000e+00
      vertex 4.992721e+01 2.727934e-01 3.000000e+00
    endloop
  endfacet
  facet normal 0.000000e+00 0.000000e+00 1.000000e+00
    outer loop
      vertex 4.300000e+01 3.700001e+00 3.000000e+00
      vertex 6.084999e+01 2.190010e+00 3.000000e+00
      vertex 6.680000e+01 3.700001e+00 3.000000e+00
    endloop
  endfacet
  facet normal 0.000000e+00 0.000000e+00 1.000000e+00
    outer loop
      vertex 4.940000e+01 -9.999985e-01 3.000000e+00
      vertex 4.300000e+01 3.700001e+00 3.000000e+00
      vertex 4.300000e+01 -5.699998e+00 3.000000e+00
    endloop
  endfacet
  facet normal 0.000000e+00 0.000000e+00 1.000000e+00
    outer loop
      vertex 5.120000e+01 8.000017e-01 3.000000e+00
      vertex 4.300000e+01 3.700001e+00 3.000000e+00
      vertex 4.992721e+01 2.727934e-01 3.000000e+00
    endloop
  endfacet
  facet normal 0.000000e+00 0.000000e+00 1.000000e+00
    outer loop
      vertex 6.084999e+01 2.190010e+00 3.000000e+00
      vertex 4.300000e+01 3.700001e+00 3.000000e+00
      vertex 5.120000e+01 8.000017e-01 3.000000e+00
    endloop
  endfacet
  facet normal 0.000000e+00 0.000000e+00 1.000000e+00
    outer loop
      vertex 2.332721e+01 -2.272790e+00 3.000000e+00
      vertex 1.270000e+01 -5.699998e+00 3.000000e+00
      vertex 2.460000e+01 -2.799999e+00 3.000000e+00
    endloop
  endfacet
  facet normal 0.000000e+00 0.000000e+00 1.000000e+00
    outer loop
      vertex 2.280000e+01 -9.999985e-01 3.000000e+00
      vertex 1.270000e+01 -5.699998e+00 3.000000e+00
      vertex 2.332721e+01 -2.272790e+00 3.000000e+00
    endloop
  endfacet
  facet normal 0.000000e+00 0.000000e+00 1.000000e+00
    outer loop
      vertex 1.270000e+01 3.700001e+00 3.000000e+00
      vertex 2.280000e+01 -9.999985e-01 3.000000e+00
      vertex 2.332721e+01 2.727934e-01 3.000000e+00
    endloop
  endfacet
  facet normal 0.000000e+00 0.000000e+00 1.000000e+00
    outer loop
      vertex 2.280000e+01 -9.999985e-01 3.000000e+00
      vertex 1.270000e+01 3.700001e+00 3.000000e+00
      vertex 1.270000e+01 -5.699998e+00 3.000000e+00
    endloop
  endfacet
  facet normal 0.000000e+00 0.000000e+00 1.000000e+00
    outer loop
      vertex 2.460000e+01 8.000017e-01 3.000000e+00
      vertex 1.270000e+01 3.700001e+00 3.000000e+00
      vertex 2.332721e+01 2.727934e-01 3.000000e+00
    endloop
  endfacet
  facet normal 0.000000e+00 0.000000e+00 1.000000e+00
    outer loop
      vertex 1.270000e+01 3.700001e+00 3.000000e+00
      vertex 2.460000e+01 8.000017e-01 3.000000e+00
      vertex 3.650000e+01 3.700001e+00 3.000000e+00
    endloop
  endfacet
  facet normal 0.000000e+00 0.000000e+00 1.000000e+00
    outer loop
      vertex -2.587279e+01 -2.272790e+00 3.000000e+00
      vertex -3.650000e+01 -5.699998e+00 3.000000e+00
      vertex -2.460000e+01 -2.799999e+00 3.000000e+00
    endloop
  endfacet
  facet normal 0.000000e+00 0.000000e+00 1.000000e+00
    outer loop
      vertex -2.640000e+01 -9.999985e-01 3.000000e+00
      vertex -3.650000e+01 -5.699998e+00 3.000000e+00
      vertex -2.587279e+01 -2.272790e+00 3.000000e+00
    endloop
  endfacet
  facet normal 0.000000e+00 0.000000e+00 1.000000e+00
    outer loop
      vertex -3.650000e+01 3.700001e+00 3.000000e+00
      vertex -2.640000e+01 -9.999985e-01 3.000000e+00
      vertex -2.587279e+01 2.727934e-01 3.000000e+00
    endloop
  endfacet
  facet normal 0.000000e+00 0.000000e+00 1.000000e+00
    outer loop
      vertex -2.640000e+01 -9.999985e-01 3.000000e+00
      vertex -3.650000e+01 3.700001e+00 3.000000e+00
      vertex -3.650000e+01 -5.699998e+00 3.000000e+00
    endloop
  endfacet
  facet normal 0.000000e+00 0.000000e+00 1.000000e+00
    outer loop
      vertex -2.460000e+01 8.000017e-01 3.000000e+00
      vertex -3.650000e+01 3.700001e+00 3.000000e+00
      vertex -2.587279e+01 2.727934e-01 3.000000e+00
    endloop
  endfacet
  facet normal 0.000000e+00 0.000000e+00 1.000000e+00
    outer loop
      vertex -3.650000e+01 3.700001e+00 3.000000e+00
      vertex -2.460000e+01 8.000017e-01 3.000000e+00
      vertex -1.270000e+01 3.700001e+00 3.000000e+00
    endloop
  endfacet
  facet normal 3.826836e-01 9.238795e-01 0.000000e+00
    outer loop
      vertex -5.247279e+01 -2.272790e+00 0.000000e+00
      vertex -5.120000e+01 -2.799999e+00 3.000000e+00
      vertex -5.120000e+01 -2.799999e+00 0.000000e+00
    endloop
  endfacet
  facet normal 3.826836e-01 9.238795e-01 0.000000e+00
    outer loop
      vertex -5.120000e+01 -2.799999e+00 3.000000e+00
      vertex -5.247279e+01 -2.272790e+00 0.000000e+00
      vertex -5.247279e+01 -2.272790e+00 3.000000e+00
    endloop
  endfacet
  facet normal 9.238799e-01 3.826827e-01 0.000000e+00
    outer loop
      vertex -5.247279e+01 -2.272790e+00 0.000000e+00
      vertex -5.300000e+01 -9.999985e-01 3.000000e+00
      vertex -5.247279e+01 -2.272790e+00 3.000000e+00
    endloop
  endfacet
  facet normal 9.238799e-01 3.826827e-01 0.000000e+00
    outer loop
      vertex -5.300000e+01 -9.999985e-01 3.000000e+00
      vertex -5.247279e+01 -2.272790e+00 0.000000e+00
      vertex -5.300000e+01 -9.999985e-01 0.000000e+00
    endloop
  endfacet
  facet normal 9.238799e-01 -3.826827e-01 0.000000e+00
    outer loop
      vertex -5.300000e+01 -9.999985e-01 0.000000e+00
      vertex -5.247279e+01 2.727934e-01 3.000000e+00
      vertex -5.300000e+01 -9.999985e-01 3.000000e+00
    endloop
  endfacet
  facet normal 9.238799e-01 -3.826827e-01 0.000000e+00
    outer loop
      vertex -5.247279e+01 2.727934e-01 3.000000e+00
      vertex -5.300000e+01 -9.999985e-01 0.000000e+00
      vertex -5.247279e+01 2.727934e-01 0.000000e+00
    endloop
  endfacet
  facet normal 3.826836e-01 -9.238795e-01 0.000000e+00
    outer loop
      vertex -5.247279e+01 2.727934e-01 3.000000e+00
      vertex -5.120000e+01 8.000017e-01 0.000000e+00
      vertex -5.120000e+01 8.000017e-01 3.000000e+00
    endloop
  endfacet
  facet normal 3.826836e-01 -9.238795e-01 0.000000e+00
    outer loop
      vertex -5.120000e+01 8.000017e-01 0.000000e+00
      vertex -5.247279e+01 2.727934e-01 3.000000e+00
      vertex -5.247279e+01 2.727934e-01 0.000000e+00
    endloop
  endfacet
  facet normal -3.826826e-01 9.238799e-01 0.000000e+00
    outer loop
      vertex 5.120000e+01 -2.799999e+00 0.000000e+00
      vertex 5.247279e+01 -2.272790e+00 3.000000e+00
      vertex 5.247279e+01 -2.272790e+00 0.000000e+00
    endloop
  endfacet
  facet normal -3.826826e-01 9.238799e-01 0.000000e+00
    outer loop
      vertex 5.247279e+01 -2.272790e+00 3.000000e+00
      vertex 5.120000e+01 -2.799999e+00 0.000000e+00
      vertex 5.120000e+01 -2.799999e+00 3.000000e+00
    endloop
  endfacet
  facet normal -9.238799e-01 -3.826827e-01 0.000000e+00
    outer loop
      vertex 5.247279e+01 2.727934e-01 0.000000e+00
      vertex 5.300000e+01 -9.999985e-01 3.000000e+00
      vertex 5.247279e+01 2.727934e-01 3.000000e+00
    endloop
  endfacet
  facet normal -9.238799e-01 -3.826827e-01 0.000000e+00
    outer loop
      vertex 5.300000e+01 -9.999985e-01 3.000000e+00
      vertex 5.247279e+01 2.727934e-01 0.000000e+00
      vertex 5.300000e+01 -9.999985e-01 0.000000e+00
    endloop
  endfacet
  facet normal -9.238799e-01 3.826827e-01 0.000000e+00
    outer loop
      vertex 5.300000e+01 -9.999985e-01 0.000000e+00
      vertex 5.247279e+01 -2.272790e+00 3.000000e+00
      vertex 5.300000e+01 -9.999985e-01 3.000000e+00
    endloop
  endfacet
  facet normal -9.238799e-01 3.826827e-01 -0.000000e+00
    outer loop
      vertex 5.247279e+01 -2.272790e+00 3.000000e+00
      vertex 5.300000e+01 -9.999985e-01 0.000000e+00
      vertex 5.247279e+01 -2.272790e+00 0.000000e+00
    endloop
  endfacet
  facet normal -3.826826e-01 -9.238799e-01 0.000000e+00
    outer loop
      vertex 5.120000e+01 8.000017e-01 3.000000e+00
      vertex 5.247279e+01 2.727934e-01 0.000000e+00
      vertex 5.247279e+01 2.727934e-01 3.000000e+00
    endloop
  endfacet
  facet normal -3.826826e-01 -9.238799e-01 0.000000e+00
    outer loop
      vertex 5.247279e+01 2.727934e-01 0.000000e+00
      vertex 5.120000e+01 8.000017e-01 3.000000e+00
      vertex 5.120000e+01 8.000017e-01 0.000000e+00
    endloop
  endfacet
  facet normal 3.826846e-01 9.238790e-01 0.000000e+00
    outer loop
      vertex 4.992721e+01 -2.272790e+00 0.000000e+00
      vertex 5.120000e+01 -2.799999e+00 3.000000e+00
      vertex 5.120000e+01 -2.799999e+00 0.000000e+00
    endloop
  endfacet
  facet normal 3.826846e-01 9.238790e-01 0.000000e+00
    outer loop
      vertex 5.120000e+01 -2.799999e+00 3.000000e+00
      vertex 4.992721e+01 -2.272790e+00 0.000000e+00
      vertex 4.992721e+01 -2.272790e+00 3.000000e+00
    endloop
  endfacet
  facet normal 9.238799e-01 -3.826827e-01 0.000000e+00
    outer loop
      vertex 4.940000e+01 -9.999985e-01 0.000000e+00
      vertex 4.992721e+01 2.727934e-01 3.000000e+00
      vertex 4.940000e+01 -9.999985e-01 3.000000e+00
    endloop
  endfacet
  facet normal 9.238799e-01 -3.826827e-01 0.000000e+00
    outer loop
      vertex 4.992721e+01 2.727934e-01 3.000000e+00
      vertex 4.940000e+01 -9.999985e-01 0.000000e+00
      vertex 4.992721e+01 2.727934e-01 0.000000e+00
    endloop
  endfacet
  facet normal 3.826846e-01 -9.238790e-01 0.000000e+00
    outer loop
      vertex 4.992721e+01 2.727934e-01 3.000000e+00
      vertex 5.120000e+01 8.000017e-01 0.000000e+00
      vertex 5.120000e+01 8.000017e-01 3.000000e+00
    endloop
  endfacet
  facet normal 3.826846e-01 -9.238790e-01 0.000000e+00
    outer loop
      vertex 5.120000e+01 8.000017e-01 0.000000e+00
      vertex 4.992721e+01 2.727934e-01 3.000000e+00
      vertex 4.992721e+01 2.727934e-01 0.000000e+00
    endloop
  endfacet
  facet normal 9.238799e-01 3.826827e-01 0.000000e+00
    outer loop
      vertex 4.992721e+01 -2.272790e+00 0.000000e+00
      vertex 4.940000e+01 -9.999985e-01 3.000000e+00
      vertex 4.992721e+01 -2.272790e+00 3.000000e+00
    endloop
  endfacet
  facet normal 9.238799e-01 3.826827e-01 0.000000e+00
    outer loop
      vertex 4.940000e+01 -9.999985e-01 3.000000e+00
      vertex 4.992721e+01 -2.272790e+00 0.000000e+00
      vertex 4.940000e+01 -9.999985e-01 0.000000e+00
    endloop
  endfacet
  facet normal -3.826846e-01 9.238790e-01 0.000000e+00
    outer loop
      vertex -2.460000e+01 -2.799999e+00 0.000000e+00
      vertex -2.332721e+01 -2.272790e+00 3.000000e+00
      vertex -2.332721e+01 -2.272790e+00 0.000000e+00
    endloop
  endfacet
  facet normal -3.826846e-01 9.238790e-01 0.000000e+00
    outer loop
      vertex -2.332721e+01 -2.272790e+00 3.000000e+00
      vertex -2.460000e+01 -2.799999e+00 0.000000e+00
      vertex -2.460000e+01 -2.799999e+00 3.000000e+00
    endloop
  endfacet
  facet normal -3.826846e-01 -9.238790e-01 0.000000e+00
    outer loop
      vertex -2.460000e+01 8.000017e-01 3.000000e+00
      vertex -2.332721e+01 2.727934e-01 0.000000e+00
      vertex -2.332721e+01 2.727934e-01 3.000000e+00
    endloop
  endfacet
  facet normal -3.826846e-01 -9.238790e-01 0.000000e+00
    outer loop
      vertex -2.332721e+01 2.727934e-01 0.000000e+00
      vertex -2.460000e+01 8.000017e-01 3.000000e+00
      vertex -2.460000e+01 8.000017e-01 0.000000e+00
    endloop
  endfacet
  facet normal -9.238789e-01 3.826851e-01 0.000000e+00
    outer loop
      vertex -2.280000e+01 -9.999985e-01 0.000000e+00
      vertex -2.332721e+01 -2.272790e+00 3.000000e+00
      vertex -2.280000e+01 -9.999985e-01 3.000000e+00
    endloop
  endfacet
  facet normal -9.238789e-01 3.826851e-01 -0.000000e+00
    outer loop
      vertex -2.332721e+01 -2.272790e+00 3.000000e+00
      vertex -2.280000e+01 -9.999985e-01 0.000000e+00
      vertex -2.332721e+01 -2.272790e+00 0.000000e+00
    endloop
  endfacet
  facet normal -9.238789e-01 -3.826851e-01 0.000000e+00
    outer loop
      vertex -2.332721e+01 2.727934e-01 0.000000e+00
      vertex -2.280000e+01 -9.999985e-01 3.000000e+00
      vertex -2.332721e+01 2.727934e-01 3.000000e+00
    endloop
  endfacet
  facet normal -9.238789e-01 -3.826851e-01 0.000000e+00
    outer loop
      vertex -2.280000e+01 -9.999985e-01 3.000000e+00
      vertex -2.332721e+01 2.727934e-01 0.000000e+00
      vertex -2.280000e+01 -9.999985e-01 0.000000e+00
    endloop
  endfacet
  facet normal 9.238789e-01 3.826851e-01 0.000000e+00
    outer loop
      vertex -2.587279e+01 -2.272790e+00 0.000000e+00
      vertex -2.640000e+01 -9.999985e-01 3.000000e+00
      vertex -2.587279e+01 -2.272790e+00 3.000000e+00
    endloop
  endfacet
  facet normal 9.238789e-01 3.826851e-01 0.000000e+00
    outer loop
      vertex -2.640000e+01 -9.999985e-01 3.000000e+00
      vertex -2.587279e+01 -2.272790e+00 0.000000e+00
      vertex -2.640000e+01 -9.999985e-01 0.000000e+00
    endloop
  endfacet
  facet normal 3.826836e-01 -9.238795e-01 0.000000e+00
    outer loop
      vertex -2.587279e+01 2.727934e-01 3.000000e+00
      vertex -2.460000e+01 8.000017e-01 0.000000e+00
      vertex -2.460000e+01 8.000017e-01 3.000000e+00
    endloop
  endfacet
  facet normal 3.826836e-01 -9.238795e-01 0.000000e+00
    outer loop
      vertex -2.460000e+01 8.000017e-01 0.000000e+00
      vertex -2.587279e+01 2.727934e-01 3.000000e+00
      vertex -2.587279e+01 2.727934e-01 0.000000e+00
    endloop
  endfacet
  facet normal 3.826836e-01 9.238795e-01 0.000000e+00
    outer loop
      vertex -2.587279e+01 -2.272790e+00 0.000000e+00
      vertex -2.460000e+01 -2.799999e+00 3.000000e+00
      vertex -2.460000e+01 -2.799999e+00 0.000000e+00
    endloop
  endfacet
  facet normal 3.826836e-01 9.238795e-01 0.000000e+00
    outer loop
      vertex -2.460000e+01 -2.799999e+00 3.000000e+00
      vertex -2.587279e+01 -2.272790e+00 0.000000e+00
      vertex -2.587279e+01 -2.272790e+00 3.000000e+00
    endloop
  endfacet
  facet normal 9.238789e-01 -3.826851e-01 0.000000e+00
    outer loop
      vertex -2.640000e+01 -9.999985e-01 0.000000e+00
      vertex -2.587279e+01 2.727934e-01 3.000000e+00
      vertex -2.640000e+01 -9.999985e-01 3.000000e+00
    endloop
  endfacet
  facet normal 9.238789e-01 -3.826851e-01 0.000000e+00
    outer loop
      vertex -2.587279e+01 2.727934e-01 3.000000e+00
      vertex -2.640000e+01 -9.999985e-01 0.000000e+00
      vertex -2.587279e+01 2.727934e-01 0.000000e+00
    endloop
  endfacet
  facet normal -3.826846e-01 9.238790e-01 0.000000e+00
    outer loop
      vertex 2.460000e+01 -2.799999e+00 0.000000e+00
      vertex 2.587279e+01 -2.272790e+00 3.000000e+00
      vertex 2.587279e+01 -2.272790e+00 0.000000e+00
    endloop
  endfacet
  facet normal -3.826846e-01 9.238790e-01 0.000000e+00
    outer loop
      vertex 2.587279e+01 -2.272790e+00 3.000000e+00
      vertex 2.460000e+01 -2.799999e+00 0.000000e+00
      vertex 2.460000e+01 -2.799999e+00 3.000000e+00
    endloop
  endfacet
  facet normal -3.826846e-01 -9.238790e-01 0.000000e+00
    outer loop
      vertex 2.460000e+01 8.000017e-01 3.000000e+00
      vertex 2.587279e+01 2.727934e-01 0.000000e+00
      vertex 2.587279e+01 2.727934e-01 3.000000e+00
    endloop
  endfacet
  facet normal -3.826846e-01 -9.238790e-01 0.000000e+00
    outer loop
      vertex 2.587279e+01 2.727934e-01 0.000000e+00
      vertex 2.460000e+01 8.000017e-01 3.000000e+00
      vertex 2.460000e+01 8.000017e-01 0.000000e+00
    endloop
  endfacet
  facet normal -9.238780e-01 3.826874e-01 0.000000e+00
    outer loop
      vertex 2.640000e+01 -9.999985e-01 0.000000e+00
      vertex 2.587279e+01 -2.272790e+00 3.000000e+00
      vertex 2.640000e+01 -9.999985e-01 3.000000e+00
    endloop
  endfacet
  facet normal -9.238780e-01 3.826874e-01 -0.000000e+00
    outer loop
      vertex 2.587279e+01 -2.272790e+00 3.000000e+00
      vertex 2.640000e+01 -9.999985e-01 0.000000e+00
      vertex 2.587279e+01 -2.272790e+00 0.000000e+00
    endloop
  endfacet
  facet normal -9.238780e-01 -3.826874e-01 0.000000e+00
    outer loop
      vertex 2.587279e+01 2.727934e-01 0.000000e+00
      vertex 2.640000e+01 -9.999985e-01 3.000000e+00
      vertex 2.587279e+01 2.727934e-01 3.000000e+00
    endloop
  endfacet
  facet normal -9.238780e-01 -3.826874e-01 0.000000e+00
    outer loop
      vertex 2.640000e+01 -9.999985e-01 3.000000e+00
      vertex 2.587279e+01 2.727934e-01 0.000000e+00
      vertex 2.640000e+01 -9.999985e-01 0.000000e+00
    endloop
  endfacet
  facet normal 9.238799e-01 3.826827e-01 0.000000e+00
    outer loop
      vertex 2.332721e+01 -2.272790e+00 0.000000e+00
      vertex 2.280000e+01 -9.999985e-01 3.000000e+00
      vertex 2.332721e+01 -2.272790e+00 3.000000e+00
    endloop
  endfacet
  facet normal 9.238799e-01 3.826827e-01 0.000000e+00
    outer loop
      vertex 2.280000e+01 -9.999985e-01 3.000000e+00
      vertex 2.332721e+01 -2.272790e+00 0.000000e+00
      vertex 2.280000e+01 -9.999985e-01 0.000000e+00
    endloop
  endfacet
  facet normal 3.826846e-01 -9.238790e-01 0.000000e+00
    outer loop
      vertex 2.332721e+01 2.727934e-01 3.000000e+00
      vertex 2.460000e+01 8.000017e-01 0.000000e+00
      vertex 2.460000e+01 8.000017e-01 3.000000e+00
    endloop
  endfacet
  facet normal 3.826846e-01 -9.238790e-01 0.000000e+00
    outer loop
      vertex 2.460000e+01 8.000017e-01 0.000000e+00
      vertex 2.332721e+01 2.727934e-01 3.000000e+00
      vertex 2.332721e+01 2.727934e-01 0.000000e+00
    endloop
  endfacet
  facet normal 9.238799e-01 -3.826827e-01 0.000000e+00
    outer loop
      vertex 2.280000e+01 -9.999985e-01 0.000000e+00
      vertex 2.332721e+01 2.727934e-01 3.000000e+00
      vertex 2.280000e+01 -9.999985e-01 3.000000e+00
    endloop
  endfacet
  facet normal 9.238799e-01 -3.826827e-01 0.000000e+00
    outer loop
      vertex 2.332721e+01 2.727934e-01 3.000000e+00
      vertex 2.280000e+01 -9.999985e-01 0.000000e+00
      vertex 2.332721e+01 2.727934e-01 0.000000e+00
    endloop
  endfacet
  facet normal 3.826846e-01 9.238790e-01 0.000000e+00
    outer loop
      vertex 2.332721e+01 -2.272790e+00 0.000000e+00
      vertex 2.460000e+01 -2.799999e+00 3.000000e+00
      vertex 2.460000e+01 -2.799999e+00 0.000000e+00
    endloop
  endfacet
  facet normal 3.826846e-01 9.238790e-01 0.000000e+00
    outer loop
      vertex 2.460000e+01 -2.799999e+00 3.000000e+00
      vertex 2.332721e+01 -2.272790e+00 0.000000e+00
      vertex 2.332721e+01 -2.272790e+00 3.000000e+00
    endloop
  endfacet
  facet normal -6.123234e-17 1.000000e+00 0.000000e+00
    outer loop
      vertex -4.100000e+01 5.700001e+00 3.000000e+00
      vertex -5.175000e+01 5.700001e+00 9.500000e+00
      vertex -4.100000e+01 5.700001e+00 1.900000e+01
    endloop
  endfacet
  facet normal -6.123234e-17 1.000000e+00 0.000000e+00
    outer loop
      vertex -4.100000e+01 5.700001e+00 3.000000e+00
      vertex -5.805000e+01 5.700001e+00 9.500000e+00
      vertex -5.175000e+01 5.700001e+00 9.500000e+00
    endloop
  endfacet
  facet normal -6.123234e-17 1.000000e+00 0.000000e+00
    outer loop
      vertex -6.880000e+01 5.700001e+00 1.900000e+01
      vertex -5.805000e+01 5.700001e+00 9.500000e+00
      vertex -6.880000e+01 5.700001e+00 3.000000e+00
    endloop
  endfacet
  facet normal -6.123234e-17 1.000000e+00 0.000000e+00
    outer loop
      vertex -6.880000e+01 5.700001e+00 3.000000e+00
      vertex -5.805000e+01 5.700001e+00 9.500000e+00
      vertex -4.100000e+01 5.700001e+00 3.000000e+00
    endloop
  endfacet
  facet normal -6.123234e-17 1.000000e+00 0.000000e+00
    outer loop
      vertex -5.175000e+01 5.700001e+00 1.420000e+01
      vertex -4.100000e+01 5.700001e+00 1.900000e+01
      vertex -5.175000e+01 5.700001e+00 9.500000e+00
    endloop
  endfacet
  facet normal -6.123234e-17 1.000000e+00 0.000000e+00
    outer loop
      vertex -5.805000e+01 5.700001e+00 1.420000e+01
      vertex -4.100000e+01 5.700001e+00 1.900000e+01
      vertex -5.175000e+01 5.700001e+00 1.420000e+01
    endloop
  endfacet
  facet normal -6.123234e-17 1.000000e+00 0.000000e+00
    outer loop
      vertex -5.805000e+01 5.700001e+00 1.420000e+01
      vertex -6.880000e+01 5.700001e+00 1.900000e+01
      vertex -4.100000e+01 5.700001e+00 1.900000e+01
    endloop
  endfacet
  facet normal -6.123234e-17 1.000000e+00 0.000000e+00
    outer loop
      vertex -5.805000e+01 5.700001e+00 9.500000e+00
      vertex -6.880000e+01 5.700001e+00 1.900000e+01
      vertex -5.805000e+01 5.700001e+00 1.420000e+01
    endloop
  endfacet
  facet normal 0.000000e+00 0.000000e+00 1.000000e+00
    outer loop
      vertex -4.100000e+01 -5.699998e+00 1.900000e+01
      vertex -4.300000e+01 3.700001e+00 1.900000e+01
      vertex -4.300000e+01 -5.699998e+00 1.900000e+01
    endloop
  endfacet
  facet normal 0.000000e+00 0.000000e+00 1.000000e+00
    outer loop
      vertex -4.300000e+01 3.700001e+00 1.900000e+01
      vertex -4.100000e+01 5.700001e+00 1.900000e+01
      vertex -6.680000e+01 3.700001e+00 1.900000e+01
    endloop
  endfacet
  facet normal 0.000000e+00 0.000000e+00 1.000000e+00
    outer loop
      vertex -4.100000e+01 5.700001e+00 1.900000e+01
      vertex -4.300000e+01 3.700001e+00 1.900000e+01
      vertex -4.100000e+01 -5.699998e+00 1.900000e+01
    endloop
  endfacet
  facet normal 0.000000e+00 0.000000e+00 1.000000e+00
    outer loop
      vertex -6.680000e+01 3.700001e+00 1.900000e+01
      vertex -6.880000e+01 -5.699998e+00 1.900000e+01
      vertex -6.680000e+01 -5.699998e+00 1.900000e+01
    endloop
  endfacet
  facet normal 0.000000e+00 0.000000e+00 1.000000e+00
    outer loop
      vertex -6.680000e+01 3.700001e+00 1.900000e+01
      vertex -6.880000e+01 5.700001e+00 1.900000e+01
      vertex -6.880000e+01 -5.699998e+00 1.900000e+01
    endloop
  endfacet
  facet normal 0.000000e+00 0.000000e+00 1.000000e+00
    outer loop
      vertex -6.880000e+01 5.700001e+00 1.900000e+01
      vertex -6.680000e+01 3.700001e+00 1.900000e+01
      vertex -4.100000e+01 5.700001e+00 1.900000e+01
    endloop
  endfacet
  facet normal 6.123234e-17 -1.000000e+00 0.000000e+00
    outer loop
      vertex -6.880000e+01 -5.699998e+00 1.900000e+01
      vertex -6.680000e+01 -5.699998e+00 3.000000e+00
      vertex -6.680000e+01 -5.699998e+00 1.900000e+01
    endloop
  endfacet
  facet normal 6.123234e-17 -1.000000e+00 0.000000e+00
    outer loop
      vertex -6.680000e+01 -5.699998e+00 3.000000e+00
      vertex -6.880000e+01 -5.699998e+00 1.900000e+01
      vertex -6.880000e+01 -5.699998e+00 3.000000e+00
    endloop
  endfacet
  facet normal 6.123234e-17 -1.000000e+00 0.000000e+00
    outer loop
      vertex -4.300000e+01 -5.699998e+00 1.900000e+01
      vertex -4.100000e+01 -5.699998e+00 3.000000e+00
      vertex -4.100000e+01 -5.699998e+00 1.900000e+01
    endloop
  endfacet
  facet normal 6.123234e-17 -1.000000e+00 0.000000e+00
    outer loop
      vertex -4.100000e+01 -5.699998e+00 3.000000e+00
      vertex -4.300000e+01 -5.699998e+00 1.900000e+01
      vertex -4.300000e+01 -5.699998e+00 3.000000e+00
    endloop
  endfacet
  facet normal 1.000000e+00 6.123234e-17 0.000000e+00
    outer loop
      vertex -4.100000e+01 -5.699998e+00 3.000000e+00
      vertex -4.100000e+01 5.700001e+00 1.900000e+01
      vertex -4.100000e+01 -5.699998e+00 1.900000e+01
    endloop
  endfacet
  facet normal 1.000000e+00 6.123234e-17 0.000000e+00
    outer loop
      vertex -4.100000e+01 5.700001e+00 1.900000e+01
      vertex -4.100000e+01 -5.699998e+00 3.000000e+00
      vertex -4.100000e+01 5.700001e+00 3.000000e+00
    endloop
  endfacet
  facet normal -1.000000e+00 -6.123234e-17 0.000000e+00
    outer loop
      vertex -6.880000e+01 5.700001e+00 3.000000e+00
      vertex -6.880000e+01 -5.699998e+00 1.900000e+01
      vertex -6.880000e+01 5.700001e+00 1.900000e+01
    endloop
  endfacet
  facet normal -1.000000e+00 -6.123234e-17 0.000000e+00
    outer loop
      vertex -6.880000e+01 -5.699998e+00 1.900000e+01
      vertex -6.880000e+01 5.700001e+00 3.000000e+00
      vertex -6.880000e+01 -5.699998e+00 3.000000e+00
    endloop
  endfacet
  facet normal 1.000000e+00 6.123234e-17 0.000000e+00
    outer loop
      vertex -5.175000e+01 5.700001e+00 9.500000e+00
      vertex -5.175000e+01 7.399998e+00 9.500000e+00
      vertex -5.175000e+01 5.700001e+00 1.420000e+01
    endloop
  endfacet
  facet normal -5.758145e-17 9.403763e-01 3.401357e-01
    outer loop
      vertex -5.805000e+01 7.399998e+00 9.500000e+00
      vertex -5.175000e+01 5.700001e+00 1.420000e+01
      vertex -5.175000e+01 7.399998e+00 9.500000e+00
    endloop
  endfacet
  facet normal -5.758145e-17 9.403763e-01 3.401357e-01
    outer loop
      vertex -5.175000e+01 5.700001e+00 1.420000e+01
      vertex -5.805000e+01 7.399998e+00 9.500000e+00
      vertex -5.805000e+01 5.700001e+00 1.420000e+01
    endloop
  endfacet
  facet normal 0.000000e+00 0.000000e+00 -1.000000e+00
    outer loop
      vertex -5.805000e+01 7.399998e+00 9.500000e+00
      vertex -5.175000e+01 5.700001e+00 9.500000e+00
      vertex -5.805000e+01 5.700001e+00 9.500000e+00
    endloop
  endfacet
  facet normal 0.000000e+00 0.000000e+00 -1.000000e+00
    outer loop
      vertex -5.175000e+01 5.700001e+00 9.500000e+00
      vertex -5.805000e+01 7.399998e+00 9.500000e+00
      vertex -5.175000e+01 7.399998e+00 9.500000e+00
    endloop
  endfacet
  facet normal -1.000000e+00 -6.123234e-17 0.000000e+00
    outer loop
      vertex -5.805000e+01 5.700001e+00 1.420000e+01
      vertex -5.805000e+01 7.399998e+00 9.500000e+00
      vertex -5.805000e+01 5.700001e+00 9.500000e+00
    endloop
  endfacet
  facet normal 6.123234e-17 -1.000000e+00 0.000000e+00
    outer loop
      vertex -6.680000e+01 3.700001e+00 1.900000e+01
      vertex -4.300000e+01 3.700001e+00 3.000000e+00
      vertex -4.300000e+01 3.700001e+00 1.900000e+01
    endloop
  endfacet
  facet normal 6.123234e-17 -1.000000e+00 0.000000e+00
    outer loop
      vertex -4.300000e+01 3.700001e+00 3.000000e+00
      vertex -6.680000e+01 3.700001e+00 1.900000e+01
      vertex -6.680000e+01 3.700001e+00 3.000000e+00
    endloop
  endfacet
  facet normal -1.000000e+00 -6.123234e-17 0.000000e+00
    outer loop
      vertex -4.300000e+01 3.700001e+00 3.000000e+00
      vertex -4.300000e+01 -5.699998e+00 1.900000e+01
      vertex -4.300000e+01 3.700001e+00 1.900000e+01
    endloop
  endfacet
  facet normal -1.000000e+00 -6.123234e-17 0.000000e+00
    outer loop
      vertex -4.300000e+01 -5.699998e+00 1.900000e+01
      vertex -4.300000e+01 3.700001e+00 3.000000e+00
      vertex -4.300000e+01 -5.699998e+00 3.000000e+00
    endloop
  endfacet
  facet normal 1.000000e+00 6.123234e-17 0.000000e+00
    outer loop
      vertex -6.680000e+01 -5.699998e+00 3.000000e+00
      vertex -6.680000e+01 3.700001e+00 1.900000e+01
      vertex -6.680000e+01 -5.699998e+00 1.900000e+01
    endloop
  endfacet
  facet normal 1.000000e+00 6.123234e-17 0.000000e+00
    outer loop
      vertex -6.680000e+01 3.700001e+00 1.900000e+01
      vertex -6.680000e+01 -5.699998e+00 3.000000e+00
      vertex -6.680000e+01 3.700001e+00 3.000000e+00
    endloop
  endfacet
  facet normal -6.123234e-17 1.000000e+00 0.000000e+00
    outer loop
      vertex -1.070000e+01 5.700001e+00 3.000000e+00
      vertex -2.145000e+01 5.700001e+00 9.500000e+00
      vertex -1.070000e+01 5.700001e+00 1.900000e+01
    endloop
  endfacet
  facet normal -6.123234e-17 1.000000e+00 0.000000e+00
    outer loop
      vertex -1.070000e+01 5.700001e+00 3.000000e+00
      vertex -2.775000e+01 5.700001e+00 9.500000e+00
      vertex -2.145000e+01 5.700001e+00 9.500000e+00
    endloop
  endfacet
  facet normal -6.123234e-17 1.000000e+00 0.000000e+00
    outer loop
      vertex -3.850000e+01 5.700001e+00 1.900000e+01
      vertex -2.775000e+01 5.700001e+00 9.500000e+00
      vertex -3.850000e+01 5.700001e+00 3.000000e+00
    endloop
  endfacet
  facet normal -6.123234e-17 1.000000e+00 0.000000e+00
    outer loop
      vertex -3.850000e+01 5.700001e+00 3.000000e+00
      vertex -2.775000e+01 5.700001e+00 9.500000e+00
      vertex -1.070000e+01 5.700001e+00 3.000000e+00
    endloop
  endfacet
  facet normal -6.123234e-17 1.000000e+00 0.000000e+00
    outer loop
      vertex -2.145000e+01 5.700001e+00 1.420000e+01
      vertex -1.070000e+01 5.700001e+00 1.900000e+01
      vertex -2.145000e+01 5.700001e+00 9.500000e+00
    endloop
  endfacet
  facet normal -6.123234e-17 1.000000e+00 0.000000e+00
    outer loop
      vertex -2.775000e+01 5.700001e+00 1.420000e+01
      vertex -1.070000e+01 5.700001e+00 1.900000e+01
      vertex -2.145000e+01 5.700001e+00 1.420000e+01
    endloop
  endfacet
  facet normal -6.123234e-17 1.000000e+00 0.000000e+00
    outer loop
      vertex -2.775000e+01 5.700001e+00 1.420000e+01
      vertex -3.850000e+01 5.700001e+00 1.900000e+01
      vertex -1.070000e+01 5.700001e+00 1.900000e+01
    endloop
  endfacet
  facet normal -6.123234e-17 1.000000e+00 0.000000e+00
    outer loop
      vertex -2.775000e+01 5.700001e+00 9.500000e+00
      vertex -3.850000e+01 5.700001e+00 1.900000e+01
      vertex -2.775000e+01 5.700001e+00 1.420000e+01
    endloop
  endfacet
  facet normal 0.000000e+00 0.000000e+00 1.000000e+00
    outer loop
      vertex -1.070000e+01 -5.699998e+00 1.900000e+01
      vertex -1.270000e+01 3.700001e+00 1.900000e+01
      vertex -1.270000e+01 -5.699998e+00 1.900000e+01
    endloop
  endfacet
  facet normal 0.000000e+00 0.000000e+00 1.000000e+00
    outer loop
      vertex -1.270000e+01 3.700001e+00 1.900000e+01
      vertex -1.070000e+01 5.700001e+00 1.900000e+01
      vertex -3.650000e+01 3.700001e+00 1.900000e+01
    endloop
  endfacet
  facet normal 0.000000e+00 0.000000e+00 1.000000e+00
    outer loop
      vertex -1.070000e+01 5.700001e+00 1.900000e+01
      vertex -1.270000e+01 3.700001e+00 1.900000e+01
      vertex -1.070000e+01 -5.699998e+00 1.900000e+01
    endloop
  endfacet
  facet normal 0.000000e+00 0.000000e+00 1.000000e+00
    outer loop
      vertex -3.650000e+01 3.700001e+00 1.900000e+01
      vertex -3.850000e+01 -5.699998e+00 1.900000e+01
      vertex -3.650000e+01 -5.699998e+00 1.900000e+01
    endloop
  endfacet
  facet normal 0.000000e+00 0.000000e+00 1.000000e+00
    outer loop
      vertex -3.650000e+01 3.700001e+00 1.900000e+01
      vertex -3.850000e+01 5.700001e+00 1.900000e+01
      vertex -3.850000e+01 -5.699998e+00 1.900000e+01
    endloop
  endfacet
  facet normal 0.000000e+00 0.000000e+00 1.000000e+00
    outer loop
      vertex -3.850000e+01 5.700001e+00 1.900000e+01
      vertex -3.650000e+01 3.700001e+00 1.900000e+01
      vertex -1.070000e+01 5.700001e+00 1.900000e+01
    endloop
  endfacet
  facet normal 6.123234e-17 -1.000000e+00 0.000000e+00
    outer loop
      vertex -3.850000e+01 -5.699998e+00 1.900000e+01
      vertex -3.650000e+01 -5.699998e+00 3.000000e+00
      vertex -3.650000e+01 -5.699998e+00 1.900000e+01
    endloop
  endfacet
  facet normal 6.123234e-17 -1.000000e+00 0.000000e+00
    outer loop
      vertex -3.650000e+01 -5.699998e+00 3.000000e+00
      vertex -3.850000e+01 -5.699998e+00 1.900000e+01
      vertex -3.850000e+01 -5.699998e+00 3.000000e+00
    endloop
  endfacet
  facet normal 6.123234e-17 -1.000000e+00 0.000000e+00
    outer loop
      vertex -1.270000e+01 -5.699998e+00 1.900000e+01
      vertex -1.070000e+01 -5.699998e+00 3.000000e+00
      vertex -1.070000e+01 -5.699998e+00 1.900000e+01
    endloop
  endfacet
  facet normal 6.123234e-17 -1.000000e+00 0.000000e+00
    outer loop
      vertex -1.070000e+01 -5.699998e+00 3.000000e+00
      vertex -1.270000e+01 -5.699998e+00 1.900000e+01
      vertex -1.270000e+01 -5.699998e+00 3.000000e+00
    endloop
  endfacet
  facet normal 1.000000e+00 6.123234e-17 0.000000e+00
    outer loop
      vertex -1.070000e+01 -5.699998e+00 3.000000e+00
      vertex -1.070000e+01 5.700001e+00 1.900000e+01
      vertex -1.070000e+01 -5.699998e+00 1.900000e+01
    endloop
  endfacet
  facet normal 1.000000e+00 6.123234e-17 0.000000e+00
    outer loop
      vertex -1.070000e+01 5.700001e+00 1.900000e+01
      vertex -1.070000e+01 -5.699998e+00 3.000000e+00
      vertex -1.070000e+01 5.700001e+00 3.000000e+00
    endloop
  endfacet
  facet normal -1.000000e+00 -6.123234e-17 0.000000e+00
    outer loop
      vertex -3.850000e+01 5.700001e+00 3.000000e+00
      vertex -3.850000e+01 -5.699998e+00 1.900000e+01
      vertex -3.850000e+01 5.700001e+00 1.900000e+01
    endloop
  endfacet
  facet normal -1.000000e+00 -6.123234e-17 0.000000e+00
    outer loop
      vertex -3.850000e+01 -5.699998e+00 1.900000e+01
      vertex -3.850000e+01 5.700001e+00 3.000000e+00
      vertex -3.850000e+01 -5.699998e+00 3.000000e+00
    endloop
  endfacet
  facet normal 1.000000e+00 6.123234e-17 0.000000e+00
    outer loop
      vertex -2.145000e+01 5.700001e+00 9.500000e+00
      vertex -2.145000e+01 7.399998e+00 9.500000e+00
      vertex -2.145000e+01 5.700001e+00 1.420000e+01
    endloop
  endfacet
  facet normal -5.758145e-17 9.403763e-01 3.401357e-01
    outer loop
      vertex -2.775000e+01 7.399998e+00 9.500000e+00
      vertex -2.145000e+01 5.700001e+00 1.420000e+01
      vertex -2.145000e+01 7.399998e+00 9.500000e+00
    endloop
  endfacet
  facet normal -5.758145e-17 9.403763e-01 3.401357e-01
    outer loop
      vertex -2.145000e+01 5.700001e+00 1.420000e+01
      vertex -2.775000e+01 7.399998e+00 9.500000e+00
      vertex -2.775000e+01 5.700001e+00 1.420000e+01
    endloop
  endfacet
  facet normal 0.000000e+00 0.000000e+00 -1.000000e+00
    outer loop
      vertex -2.775000e+01 7.399998e+00 9.500000e+00
      vertex -2.145000e+01 5.700001e+00 9.500000e+00
      vertex -2.775000e+01 5.700001e+00 9.500000e+00
    endloop
  endfacet
  facet normal 0.000000e+00 0.000000e+00 -1.000000e+00
    outer loop
      vertex -2.145000e+01 5.700001e+00 9.500000e+00
      vertex -2.775000e+01 7.399998e+00 9.500000e+00
      vertex -2.145000e+01 7.399998e+00 9.500000e+00
    endloop
  endfacet
  facet normal -1.000000e+00 -6.123234e-17 0.000000e+00
    outer loop
      vertex -2.775000e+01 5.700001e+00 1.420000e+01
      vertex -2.775000e+01 7.399998e+00 9.500000e+00
      vertex -2.775000e+01 5.700001e+00 9.500000e+00
    endloop
  endfacet
  facet normal 6.123234e-17 -1.000000e+00 0.000000e+00
    outer loop
      vertex -3.650000e+01 3.700001e+00 1.900000e+01
      vertex -1.270000e+01 3.700001e+00 3.000000e+00
      vertex -1.270000e+01 3.700001e+00 1.900000e+01
    endloop
  endfacet
  facet normal 6.123234e-17 -1.000000e+00 0.000000e+00
    outer loop
      vertex -1.270000e+01 3.700001e+00 3.000000e+00
      vertex -3.650000e+01 3.700001e+00 1.900000e+01
      vertex -3.650000e+01 3.700001e+00 3.000000e+00
    endloop
  endfacet
  facet normal -1.000000e+00 -6.123234e-17 0.000000e+00
    outer loop
      vertex -1.270000e+01 3.700001e+00 3.000000e+00
      vertex -1.270000e+01 -5.699998e+00 1.900000e+01
      vertex -1.270000e+01 3.700001e+00 1.900000e+01
    endloop
  endfacet
  facet normal -1.000000e+00 -6.123234e-17 0.000000e+00
    outer loop
      vertex -1.270000e+01 -5.699998e+00 1.900000e+01
      vertex -1.270000e+01 3.700001e+00 3.000000e+00
      vertex -1.270000e+01 -5.699998e+00 3.000000e+00
    endloop
  endfacet
  facet normal 1.000000e+00 6.123234e-17 0.000000e+00
    outer loop
      vertex -3.650000e+01 -5.699998e+00 3.000000e+00
      vertex -3.650000e+01 3.700001e+00 1.900000e+01
      vertex -3.650000e+01 -5.699998e+00 1.900000e+01
    endloop
  endfacet
  facet normal 1.000000e+00 6.123234e-17 0.000000e+00
    outer loop
      vertex -3.650000e+01 3.700001e+00 1.900000e+01
      vertex -3.650000e+01 -5.699998e+00 3.000000e+00
      vertex -3.650000e+01 3.700001e+00 3.000000e+00
    endloop
  endfacet
  facet normal -6.123234e-17 1.000000e+00 0.000000e+00
    outer loop
      vertex 3.850000e+01 5.700001e+00 3.000000e+00
      vertex 2.775000e+01 5.700001e+00 9.500000e+00
      vertex 3.850000e+01 5.700001e+00 1.900000e+01
    endloop
  endfacet
  facet normal -6.123234e-17 1.000000e+00 0.000000e+00
    outer loop
      vertex 3.850000e+01 5.700001e+00 3.000000e+00
      vertex 2.145000e+01 5.700001e+00 9.500000e+00
      vertex 2.775000e+01 5.700001e+00 9.500000e+00
    endloop
  endfacet
  facet normal -6.123234e-17 1.000000e+00 0.000000e+00
    outer loop
      vertex 1.070000e+01 5.700001e+00 1.900000e+01
      vertex 2.145000e+01 5.700001e+00 9.500000e+00
      vertex 1.070000e+01 5.700001e+00 3.000000e+00
    endloop
  endfacet
  facet normal -6.123234e-17 1.000000e+00 0.000000e+00
    outer loop
      vertex 1.070000e+01 5.700001e+00 3.000000e+00
      vertex 2.145000e+01 5.700001e+00 9.500000e+00
      vertex 3.850000e+01 5.700001e+00 3.000000e+00
    endloop
  endfacet
  facet normal -6.123234e-17 1.000000e+00 0.000000e+00
    outer loop
      vertex 2.775000e+01 5.700001e+00 1.420000e+01
      vertex 3.850000e+01 5.700001e+00 1.900000e+01
      vertex 2.775000e+01 5.700001e+00 9.500000e+00
    endloop
  endfacet
  facet normal -6.123234e-17 1.000000e+00 0.000000e+00
    outer loop
      vertex 2.145000e+01 5.700001e+00 1.420000e+01
      vertex 3.850000e+01 5.700001e+00 1.900000e+01
      vertex 2.775000e+01 5.700001e+00 1.420000e+01
    endloop
  endfacet
  facet normal -6.123234e-17 1.000000e+00 0.000000e+00
    outer loop
      vertex 2.145000e+01 5.700001e+00 1.420000e+01
      vertex 1.070000e+01 5.700001e+00 1.900000e+01
      vertex 3.850000e+01 5.700001e+00 1.900000e+01
    endloop
  endfacet
  facet normal -6.123234e-17 1.000000e+00 0.000000e+00
    outer loop
      vertex 2.145000e+01 5.700001e+00 9.500000e+00
      vertex 1.070000e+01 5.700001e+00 1.900000e+01
      vertex 2.145000e+01 5.700001e+00 1.420000e+01
    endloop
  endfacet
  facet normal 0.000000e+00 0.000000e+00 1.000000e+00
    outer loop
      vertex 3.850000e+01 -5.699998e+00 1.900000e+01
      vertex 3.650000e+01 3.700001e+00 1.900000e+01
      vertex 3.650000e+01 -5.699998e+00 1.900000e+01
    endloop
  endfacet
  facet normal 0.000000e+00 0.000000e+00 1.000000e+00
    outer loop
      vertex 3.650000e+01 3.700001e+00 1.900000e+01
      vertex 3.850000e+01 5.700001e+00 1.900000e+01
      vertex 1.270000e+01 3.700001e+00 1.900000e+01
    endloop
  endfacet
  facet normal 0.000000e+00 0.000000e+00 1.000000e+00
    outer loop
      vertex 3.850000e+01 5.700001e+00 1.900000e+01
      vertex 3.650000e+01 3.700001e+00 1.900000e+01
      vertex 3.850000e+01 -5.699998e+00 1.900000e+01
    endloop
  endfacet
  facet normal 0.000000e+00 0.000000e+00 1.000000e+00
    outer loop
      vertex 1.270000e+01 3.700001e+00 1.900000e+01
      vertex 1.070000e+01 -5.699998e+00 1.900000e+01
      vertex 1.270000e+01 -5.699998e+00 1.900000e+01
    endloop
  endfacet
  facet normal 0.000000e+00 0.000000e+00 1.000000e+00
    outer loop
      vertex 1.270000e+01 3.700001e+00 1.900000e+01
      vertex 1.070000e+01 5.700001e+00 1.900000e+01
      vertex 1.070000e+01 -5.699998e+00 1.900000e+01
    endloop
  endfacet
  facet normal 0.000000e+00 0.000000e+00 1.000000e+00
    outer loop
      vertex 1.070000e+01 5.700001e+00 1.900000e+01
      vertex 1.270000e+01 3.700001e+00 1.900000e+01
      vertex 3.850000e+01 5.700001e+00 1.900000e+01
    endloop
  endfacet
  facet normal 6.123234e-17 -1.000000e+00 0.000000e+00
    outer loop
      vertex 1.070000e+01 -5.699998e+00 1.900000e+01
      vertex 1.270000e+01 -5.699998e+00 3.000000e+00
      vertex 1.270000e+01 -5.699998e+00 1.900000e+01
    endloop
  endfacet
  facet normal 6.123234e-17 -1.000000e+00 0.000000e+00
    outer loop
      vertex 1.270000e+01 -5.699998e+00 3.000000e+00
      vertex 1.070000e+01 -5.699998e+00 1.900000e+01
      vertex 1.070000e+01 -5.699998e+00 3.000000e+00
    endloop
  endfacet
  facet normal 6.123234e-17 -1.000000e+00 0.000000e+00
    outer loop
      vertex 3.650000e+01 -5.699998e+00 1.900000e+01
      vertex 3.850000e+01 -5.699998e+00 3.000000e+00
      vertex 3.850000e+01 -5.699998e+00 1.900000e+01
    endloop
  endfacet
  facet normal 6.123234e-17 -1.000000e+00 0.000000e+00
    outer loop
      vertex 3.850000e+01 -5.699998e+00 3.000000e+00
      vertex 3.650000e+01 -5.699998e+00 1.900000e+01
      vertex 3.650000e+01 -5.699998e+00 3.000000e+00
    endloop
  endfacet
  facet normal 1.000000e+00 6.123234e-17 0.000000e+00
    outer loop
      vertex 3.850000e+01 -5.699998e+00 3.000000e+00
      vertex 3.850000e+01 5.700001e+00 1.900000e+01
      vertex 3.850000e+01 -5.699998e+00 1.900000e+01
    endloop
  endfacet
  facet normal 1.000000e+00 6.123234e-17 0.000000e+00
    outer loop
      vertex 3.850000e+01 5.700001e+00 1.900000e+01
      vertex 3.850000e+01 -5.699998e+00 3.000000e+00
      vertex 3.850000e+01 5.700001e+00 3.000000e+00
    endloop
  endfacet
  facet normal -1.000000e+00 -6.123234e-17 0.000000e+00
    outer loop
      vertex 1.070000e+01 5.700001e+00 3.000000e+00
      vertex 1.070000e+01 -5.699998e+00 1.900000e+01
      vertex 1.070000e+01 5.700001e+00 1.900000e+01
    endloop
  endfacet
  facet normal -1.000000e+00 -6.123234e-17 0.000000e+00
    outer loop
      vertex 1.070000e+01 -5.699998e+00 1.900000e+01
      vertex 1.070000e+01 5.700001e+00 3.000000e+00
      vertex 1.070000e+01 -5.699998e+00 3.000000e+00
    endloop
  endfacet
  facet normal 1.000000e+00 6.123234e-17 0.000000e+00
    outer loop
      vertex 2.775000e+01 5.700001e+00 9.500000e+00
      vertex 2.775000e+01 7.399998e+00 9.500000e+00
      vertex 2.775000e+01 5.700001e+00 1.420000e+01
    endloop
  endfacet
  facet normal -5.758144e-17 9.403763e-01 3.401357e-01
    outer loop
      vertex 2.145000e+01 7.399998e+00 9.500000e+00
      vertex 2.775000e+01 5.700001e+00 1.420000e+01
      vertex 2.775000e+01 7.399998e+00 9.500000e+00
    endloop
  endfacet
  facet normal -5.758144e-17 9.403763e-01 3.401357e-01
    outer loop
      vertex 2.775000e+01 5.700001e+00 1.420000e+01
      vertex 2.145000e+01 7.399998e+00 9.500000e+00
      vertex 2.145000e+01 5.700001e+00 1.420000e+01
    endloop
  endfacet
  facet normal 0.000000e+00 0.000000e+00 -1.000000e+00
    outer loop
      vertex 2.145000e+01 7.399998e+00 9.500000e+00
      vertex 2.775000e+01 5.700001e+00 9.500000e+00
      vertex 2.145000e+01 5.700001e+00 9.500000e+00
    endloop
  endfacet
  facet normal 0.000000e+00 0.000000e+00 -1.000000e+00
    outer loop
      vertex 2.775000e+01 5.700001e+00 9.500000e+00
      vertex 2.145000e+01 7.399998e+00 9.500000e+00
      vertex 2.775000e+01 7.399998e+00 9.500000e+00
    endloop
  endfacet
  facet normal -1.000000e+00 -6.123234e-17 0.000000e+00
    outer loop
      vertex 2.145000e+01 5.700001e+00 1.420000e+01
      vertex 2.145000e+01 7.399998e+00 9.500000e+00
      vertex 2.145000e+01 5.700001e+00 9.500000e+00
    endloop
  endfacet
  facet normal 6.123234e-17 -1.000000e+00 0.000000e+00
    outer loop
      vertex 1.270000e+01 3.700001e+00 1.900000e+01
      vertex 3.650000e+01 3.700001e+00 3.000000e+00
      vertex 3.650000e+01 3.700001e+00 1.900000e+01
    endloop
  endfacet
  facet normal 6.123234e-17 -1.000000e+00 0.000000e+00
    outer loop
      vertex 3.650000e+01 3.700001e+00 3.000000e+00
      vertex 1.270000e+01 3.700001e+00 1.900000e+01
      vertex 1.270000e+01 3.700001e+00 3.000000e+00
    endloop
  endfacet
  facet normal -1.000000e+00 -6.123234e-17 0.000000e+00
    outer loop
      vertex 3.650000e+01 3.700001e+00 3.000000e+00
      vertex 3.650000e+01 -5.699998e+00 1.900000e+01
      vertex 3.650000e+01 3.700001e+00 1.900000e+01
    endloop
  endfacet
  facet normal -1.000000e+00 -6.123234e-17 0.000000e+00
    outer loop
      vertex 3.650000e+01 -5.699998e+00 1.900000e+01
      vertex 3.650000e+01 3.700001e+00 3.000000e+00
      vertex 3.650000e+01 -5.699998e+00 3.000000e+00
    endloop
  endfacet
  facet normal 1.000000e+00 6.123234e-17 0.000000e+00
    outer loop
      vertex 1.270000e+01 -5.699998e+00 3.000000e+00
      vertex 1.270000e+01 3.700001e+00 1.900000e+01
      vertex 1.270000e+01 -5.699998e+00 1.900000e+01
    endloop
  endfacet
  facet normal 1.000000e+00 6.123234e-17 0.000000e+00
    outer loop
      vertex 1.270000e+01 3.700001e+00 1.900000e+01
      vertex 1.270000e+01 -5.699998e+00 3.000000e+00
      vertex 1.270000e+01 3.700001e+00 3.000000e+00
    endloop
  endfacet
  facet normal -6.123234e-17 1.000000e+00 0.000000e+00
    outer loop
      vertex 6.880000e+01 5.700001e+00 3.000000e+00
      vertex 5.805000e+01 5.700001e+00 9.500000e+00
      vertex 6.880000e+01 5.700001e+00 1.900000e+01
    endloop
  endfacet
  facet normal -6.123234e-17 1.000000e+00 0.000000e+00
    outer loop
      vertex 6.880000e+01 5.700001e+00 3.000000e+00
      vertex 5.175000e+01 5.700001e+00 9.500000e+00
      vertex 5.805000e+01 5.700001e+00 9.500000e+00
    endloop
  endfacet
  facet normal -6.123234e-17 1.000000e+00 0.000000e+00
    outer loop
      vertex 4.100000e+01 5.700001e+00 1.900000e+01
      vertex 5.175000e+01 5.700001e+00 9.500000e+00
      vertex 4.100000e+01 5.700001e+00 3.000000e+00
    endloop
  endfacet
  facet normal -6.123234e-17 1.000000e+00 0.000000e+00
    outer loop
      vertex 4.100000e+01 5.700001e+00 3.000000e+00
      vertex 5.175000e+01 5.700001e+00 9.500000e+00
      vertex 6.880000e+01 5.700001e+00 3.000000e+00
    endloop
  endfacet
  facet normal -6.123234e-17 1.000000e+00 0.000000e+00
    outer loop
      vertex 5.805000e+01 5.700001e+00 1.420000e+01
      vertex 6.880000e+01 5.700001e+00 1.900000e+01
      vertex 5.805000e+01 5.700001e+00 9.500000e+00
    endloop
  endfacet
  facet normal -6.123234e-17 1.000000e+00 0.000000e+00
    outer loop
      vertex 5.175000e+01 5.700001e+00 1.420000e+01
      vertex 6.880000e+01 5.700001e+00 1.900000e+01
      vertex 5.805000e+01 5.700001e+00 1.420000e+01
    endloop
  endfacet
  facet normal -6.123234e-17 1.000000e+00 0.000000e+00
    outer loop
      vertex 5.175000e+01 5.700001e+00 1.420000e+01
      vertex 4.100000e+01 5.700001e+00 1.900000e+01
      vertex 6.880000e+01 5.700001e+00 1.900000e+01
    endloop
  endfacet
  facet normal -6.123234e-17 1.000000e+00 0.000000e+00
    outer loop
      vertex 5.175000e+01 5.700001e+00 9.500000e+00
      vertex 4.100000e+01 5.700001e+00 1.900000e+01
      vertex 5.175000e+01 5.700001e+00 1.420000e+01
    endloop
  endfacet
  facet normal 0.000000e+00 0.000000e+00 1.000000e+00
    outer loop
      vertex 6.880000e+01 -5.699998e+00 1.900000e+01
      vertex 6.680000e+01 3.700001e+00 1.900000e+01
      vertex 6.680000e+01 -5.699998e+00 1.900000e+01
    endloop
  endfacet
  facet normal 0.000000e+00 0.000000e+00 1.000000e+00
    outer loop
      vertex 6.680000e+01 3.700001e+00 1.900000e+01
      vertex 6.880000e+01 5.700001e+00 1.900000e+01
      vertex 4.300000e+01 3.700001e+00 1.900000e+01
    endloop
  endfacet
  facet normal 0.000000e+00 0.000000e+00 1.000000e+00
    outer loop
      vertex 6.880000e+01 5.700001e+00 1.900000e+01
      vertex 6.680000e+01 3.700001e+00 1.900000e+01
      vertex 6.880000e+01 -5.699998e+00 1.900000e+01
    endloop
  endfacet
  facet normal 0.000000e+00 0.000000e+00 1.000000e+00
    outer loop
      vertex 4.300000e+01 3.700001e+00 1.900000e+01
      vertex 4.100000e+01 -5.699998e+00 1.900000e+01
      vertex 4.300000e+01 -5.699998e+00 1.900000e+01
    endloop
  endfacet
  facet normal 0.000000e+00 0.000000e+00 1.000000e+00
    outer loop
      vertex 4.300000e+01 3.700001e+00 1.900000e+01
      vertex 4.100000e+01 5.700001e+00 1.900000e+01
      vertex 4.100000e+01 -5.699998e+00 1.900000e+01
    endloop
  endfacet
  facet normal 0.000000e+00 0.000000e+00 1.000000e+00
    outer loop
      vertex 4.100000e+01 5.700001e+00 1.900000e+01
      vertex 4.300000e+01 3.700001e+00 1.900000e+01
      vertex 6.880000e+01 5.700001e+00 1.900000e+01
    endloop
  endfacet
  facet normal 6.123234e-17 -1.000000e+00 0.000000e+00
    outer loop
      vertex 4.100000e+01 -5.699998e+00 1.900000e+01
      vertex 4.300000e+01 -5.699998e+00 3.000000e+00
      vertex 4.300000e+01 -5.699998e+00 1.900000e+01
    endloop
  endfacet
  facet normal 6.123234e-17 -1.000000e+00 0.000000e+00
    outer loop
      vertex 4.300000e+01 -5.699998e+00 3.000000e+00
      vertex 4.100000e+01 -5.699998e+00 1.900000e+01
      vertex 4.100000e+01 -5.699998e+00 3.000000e+00
    endloop
  endfacet
  facet normal 6.123234e-17 -1.000000e+00 0.000000e+00
    outer loop
      vertex 6.680000e+01 -5.699998e+00 1.900000e+01
      vertex 6.880000e+01 -5.699998e+00 3.000000e+00
      vertex 6.880000e+01 -5.699998e+00 1.900000e+01
    endloop
  endfacet
  facet normal 6.123234e-17 -1.000000e+00 0.000000e+00
    outer loop
      vertex 6.880000e+01 -5.699998e+00 3.000000e+00
      vertex 6.680000e+01 -5.699998e+00 1.900000e+01
      vertex 6.680000e+01 -5.699998e+00 3.000000e+00
    endloop
  endfacet
  facet normal 1.000000e+00 6.123234e-17 0.000000e+00
    outer loop
      vertex 6.880000e+01 -5.699998e+00 3.000000e+00
      vertex 6.880000e+01 5.700001e+00 1.900000e+01
      vertex 6.880000e+01 -5.699998e+00 1.900000e+01
    endloop
  endfacet
  facet normal 1.000000e+00 6.123234e-17 0.000000e+00
    outer loop
      vertex 6.880000e+01 5.700001e+00 1.900000e+01
      vertex 6.880000e+01 -5.699998e+00 3.000000e+00
      vertex 6.880000e+01 5.700001e+00 3.000000e+00
    endloop
  endfacet
  facet normal -1.000000e+00 -6.123234e-17 0.000000e+00
    outer loop
      vertex 4.100000e+01 5.700001e+00 3.000000e+00
      vertex 4.100000e+01 -5.699998e+00 1.900000e+01
      vertex 4.100000e+01 5.700001e+00 1.900000e+01
    endloop
  endfacet
  facet normal -1.000000e+00 -6.123234e-17 0.000000e+00
    outer loop
      vertex 4.100000e+01 -5.699998e+00 1.900000e+01
      vertex 4.100000e+01 5.700001e+00 3.000000e+00
      vertex 4.100000e+01 -5.699998e+00 3.000000e+00
    endloop
  endfacet
  facet normal 1.000000e+00 6.123234e-17 0.000000e+00
    outer loop
      vertex 5.805000e+01 5.700001e+00 9.500000e+00
      vertex 5.805000e+01 7.399998e+00 9.500000e+00
      vertex 5.805000e+01 5.700001e+00 1.420000e+01
    endloop
  endfacet
  facet normal -5.758144e-17 9.403763e-01 3.401357e-01
    outer loop
      vertex 5.175000e+01 7.399998e+00 9.500000e+00
      vertex 5.805000e+01 5.700001e+00 1.420000e+01
      vertex 5.805000e+01 7.399998e+00 9.500000e+00
    endloop
  endfacet
  facet normal -5.758144e-17 9.403763e-01 3.401357e-01
    outer loop
      vertex 5.805000e+01 5.700001e+00 1.420000e+01
      vertex 5.175000e+01 7.399998e+00 9.500000e+00
      vertex 5.175000e+01 5.700001e+00 1.420000e+01
    endloop
  endfacet
  facet normal 0.000000e+00 0.000000e+00 -1.000000e+00
    outer loop
      vertex 5.175000e+01 7.399998e+00 9.500000e+00
      vertex 5.805000e+01 5.700001e+00 9.500000e+00
      vertex 5.175000e+01 5.700001e+00 9.500000e+00
    endloop
  endfacet
  facet normal 0.000000e+00 0.000000e+00 -1.000000e+00
    outer loop
      vertex 5.805000e+01 5.700001e+00 9.500000e+00
      vertex 5.175000e+01 7.399998e+00 9.500000e+00
      vertex 5.805000e+01 7.399998e+00 9.500000e+00
    endloop
  endfacet
  facet normal -1.000000e+00 -6.123234e-17 0.000000e+00
    outer loop
      vertex 5.175000e+01 5.700001e+00 1.420000e+01
      vertex 5.175000e+01 7.399998e+00 9.500000e+00
      vertex 5.175000e+01 5.700001e+00 9.500000e+00
    endloop
  endfacet
  facet normal 6.123234e-17 -1.000000e+00 0.000000e+00
    outer loop
      vertex 4.300000e+01 3.700001e+00 1.900000e+01
      vertex 6.680000e+01 3.700001e+00 3.000000e+00
      vertex 6.680000e+01 3.700001e+00 1.900000e+01
    endloop
  endfacet
  facet normal 6.123234e-17 -1.000000e+00 0.000000e+00
    outer loop
      vertex 6.680000e+01 3.700001e+00 3.000000e+00
      vertex 4.300000e+01 3.700001e+00 1.900000e+01
      vertex 4.300000e+01 3.700001e+00 3.000000e+00
    endloop
  endfacet
  facet normal -1.000000e+00 -6.123234e-17 0.000000e+00
    outer loop
      vertex 6.680000e+01 3.700001e+00 3.000000e+00
      vertex 6.680000e+01 -5.699998e+00 1.900000e+01
      vertex 6.680000e+01 3.700001e+00 1.900000e+01
    endloop
  endfacet
  facet normal -1.000000e+00 -6.123234e-17 0.000000e+00
    outer loop
      vertex 6.680000e+01 -5.699998e+00 1.900000e+01
      vertex 6.680000e+01 3.700001e+00 3.000000e+00
      vertex 6.680000e+01 -5.699998e+00 3.000000e+00
    endloop
  endfacet
  facet normal 1.000000e+00 6.123234e-17 0.000000e+00
    outer loop
      vertex 4.300000e+01 -5.699998e+00 3.000000e+00
      vertex 4.300000e+01 3.700001e+00 1.900000e+01
      vertex 4.300000e+01 -5.699998e+00 1.900000e+01
    endloop
  endfacet
  facet normal 1.000000e+00 6.123234e-17 0.000000e+00
    outer loop
      vertex 4.300000e+01 3.700001e+00 1.900000e+01
      vertex 4.300000e+01 -5.699998e+00 3.000000e+00
      vertex 4.300000e+01 3.700001e+00 3.000000e+00
    endloop
  endfacet
  facet normal -6.123234e-17 1.000000e+00 0.000000e+00
    outer loop
      vertex -7.000000e+01 6.900001e+00 0.000000e+00
      vertex 7.000000e+01 6.900001e+00 3.000000e+00
      vertex 7.000000e+01 6.900001e+00 0.000000e+00
    endloop
  endfacet
  facet normal -6.123234e-17 1.000000e+00 0.000000e+00
    outer loop
      vertex 7.000000e+01 6.900001e+00 3.000000e+00
      vertex -7.000000e+01 6.900001e+00 0.000000e+00
      vertex -7.000000e+01 6.900001e+00 3.000000e+00
    endloop
  endfacet
  facet normal 6.123234e-17 -1.000000e+00 0.000000e+00
    outer loop
      vertex -7.000000e+01 -7.399998e+00 3.000000e+00
      vertex -6.428001e+01 -7.399998e+00 0.000000e+00
      vertex -6.428001e+01 -7.399998e+00 3.000000e+00
    endloop
  endfacet
  facet normal 6.123234e-17 -1.000000e+00 0.000000e+00
    outer loop
      vertex -6.428001e+01 -7.399998e+00 0.000000e+00
      vertex -7.000000e+01 -7.399998e+00 3.000000e+00
      vertex -7.000000e+01 -7.399998e+00 0.000000e+00
    endloop
  endfacet
  facet normal 6.123234e-17 -1.000000e+00 0.000000e+00
    outer loop
      vertex 6.428000e+01 -7.399998e+00 3.000000e+00
      vertex 7.000000e+01 -7.399998e+00 0.000000e+00
      vertex 7.000000e+01 -7.399998e+00 3.000000e+00
    endloop
  endfacet
  facet normal 6.123234e-17 -1.000000e+00 0.000000e+00
    outer loop
      vertex 7.000000e+01 -7.399998e+00 0.000000e+00
      vertex 6.428000e+01 -7.399998e+00 3.000000e+00
      vertex 6.428000e+01 -7.399998e+00 0.000000e+00
    endloop
  endfacet
  facet normal 6.123234e-17 -1.000000e+00 0.000000e+00
    outer loop
      vertex -6.085001e+01 -7.399998e+00 3.000000e+00
      vertex 6.084999e+01 -7.399998e+00 0.000000e+00
      vertex 6.084999e+01 -7.399998e+00 3.000000e+00
    endloop
  endfacet
  facet normal 6.123234e-17 -1.000000e+00 0.000000e+00
    outer loop
      vertex 6.084999e+01 -7.399998e+00 0.000000e+00
      vertex -6.085001e+01 -7.399998e+00 3.000000e+00
      vertex -6.085001e+01 -7.399998e+00 0.000000e+00
    endloop
  endfacet
  facet normal -1.000000e+00 -6.123234e-17 0.000000e+00
    outer loop
      vertex -7.000000e+01 6.900001e+00 0.000000e+00
      vertex -7.000000e+01 -7.399998e+00 3.000000e+00
      vertex -7.000000e+01 6.900001e+00 3.000000e+00
    endloop
  endfacet
  facet normal -1.000000e+00 -6.123234e-17 0.000000e+00
    outer loop
      vertex -7.000000e+01 -7.399998e+00 3.000000e+00
      vertex -7.000000e+01 6.900001e+00 0.000000e+00
      vertex -7.000000e+01 -7.399998e+00 0.000000e+00
    endloop
  endfacet
  facet normal 1.000000e+00 6.123234e-17 0.000000e+00
    outer loop
      vertex 7.000000e+01 -7.399998e+00 0.000000e+00
      vertex 7.000000e+01 6.900001e+00 3.000000e+00
      vertex 7.000000e+01 -7.399998e+00 3.000000e+00
    endloop
  endfacet
  facet normal 1.000000e+00 6.123234e-17 0.000000e+00
    outer loop
      vertex 7.000000e+01 6.900001e+00 3.000000e+00
      vertex 7.000000e+01 -7.399998e+00 0.000000e+00
      vertex 7.000000e+01 6.900001e+00 0.000000e+00
    endloop
  endfacet
  facet normal 6.123234e-17 -1.000000e+00 0.000000e+00
    outer loop
      vertex -6.428001e+01 2.190010e+00 3.000000e+00
      vertex -6.085001e+01 2.190010e+00 0.000000e+00
      vertex -6.085001e+01 2.190010e+00 3.000000e+00
    endloop
  endfacet
  facet normal 6.123234e-17 -1.000000e+00 0.000000e+00
    outer loop
      vertex -6.085001e+01 2.190010e+00 0.000000e+00
      vertex -6.428001e+01 2.190010e+00 3.000000e+00
      vertex -6.428001e+01 2.190010e+00 0.000000e+00
    endloop
  endfacet
  facet normal -1.000000e+00 -6.123234e-17 0.000000e+00
    outer loop
      vertex -6.085001e+01 2.190010e+00 0.000000e+00
      vertex -6.085001e+01 -7.399998e+00 3.000000e+00
      vertex -6.085001e+01 2.190010e+00 3.000000e+00
    endloop
  endfacet
  facet normal -1.000000e+00 -6.123234e-17 0.000000e+00
    outer loop
      vertex -6.085001e+01 -7.399998e+00 3.000000e+00
      vertex -6.085001e+01 2.190010e+00 0.000000e+00
      vertex -6.085001e+01 -7.399998e+00 0.000000e+00
    endloop
  endfacet
  facet normal 1.000000e+00 6.123234e-17 0.000000e+00
    outer loop
      vertex -6.428001e+01 -7.399998e+00 0.000000e+00
      vertex -6.428001e+01 2.190010e+00 3.000000e+00
      vertex -6.428001e+01 -7.399998e+00 3.000000e+00
    endloop
  endfacet
  facet normal 1.000000e+00 6.123234e-17 0.000000e+00
    outer loop
      vertex -6.428001e+01 2.190010e+00 3.000000e+00
      vertex -6.428001e+01 -7.399998e+00 0.000000e+00
      vertex -6.428001e+01 2.190010e+00 0.000000e+00
    endloop
  endfacet
  facet normal 6.123234e-17 -1.000000e+00 0.000000e+00
    outer loop
      vertex 6.084999e+01 2.190010e+00 3.000000e+00
      vertex 6.428000e+01 2.190010e+00 0.000000e+00
      vertex 6.428000e+01 2.190010e+00 3.000000e+00
    endloop
  endfacet
  facet normal 6.123234e-17 -1.000000e+00 0.000000e+00
    outer loop
      vertex 6.428000e+01 2.190010e+00 0.000000e+00
      vertex 6.084999e+01 2.190010e+00 3.000000e+00
      vertex 6.084999e+01 2.190010e+00 0.000000e+00
    endloop
  endfacet
  facet normal -1.000000e+00 -6.123234e-17 0.000000e+00
    outer loop
      vertex 6.428000e+01 2.190010e+00 0.000000e+00
      vertex 6.428000e+01 -7.399998e+00 3.000000e+00
      vertex 6.428000e+01 2.190010e+00 3.000000e+00
    endloop
  endfacet
  facet normal -1.000000e+00 -6.123234e-17 0.000000e+00
    outer loop
      vertex 6.428000e+01 -7.399998e+00 3.000000e+00
      vertex 6.428000e+01 2.190010e+00 0.000000e+00
      vertex 6.428000e+01 -7.399998e+00 0.000000e+00
    endloop
  endfacet
  facet normal 1.000000e+00 6.123234e-17 0.000000e+00
    outer loop
      vertex 6.084999e+01 -7.399998e+00 0.000000e+00
      vertex 6.084999e+01 2.190010e+00 3.000000e+00
      vertex 6.084999e+01 -7.399998e+00 3.000000e+00
    endloop
  endfacet
  facet normal 1.000000e+00 6.123234e-17 0.000000e+00
    outer loop
      vertex 6.084999e+01 2.190010e+00 3.000000e+00
      vertex 6.084999e+01 -7.399998e+00 0.000000e+00
      vertex 6.084999e+01 2.190010e+00 0.000000e+00
    endloop
  endfacet
endsolid Default
